<ttFont>
          <CharString index="0">
            452 439 rmoveto
            -257 vlineto
            -68 -39 -69 -92 -91 -33 50 99 vhcurveto
            278 vlineto
            -105 callsubr
            -31 callgsubr
            -268 vlineto
            -131 67 -61 136 126 71 79 119 vhcurveto
            281 vlineto
            9 1 8 15 3 vhcurveto
            48 9 -3 36 rlineto
            -183 -71 callsubr
            67 -7 8 -11 -44 vvcurveto
            return
          </CharString>
          <CharString index="1">
            92 vstem
            445 675 rmoveto
            12 -32 -57 15 -65 hhcurveto
            -142 -101 -73 -124 -114 85 -40 85 -36 hvcurveto
            80 -34 88 -33 -94 vvcurveto
            -30 -9 -31 -29 -22 vhcurveto
            -13 -17 -27 -11 -40 hhcurveto
            -56 -57 22 13 -19 hvcurveto
            -11 8 -6 10 -11 103 -57 -3 rcurveline
            -6 -32 -6 -45 -45 vvcurveto
            -20 0 -12 3 -12 vhcurveto
            -14 27 88 -29 88 hhcurveto
            147 90 80 122 120 -89 45 -85 36 hvcurveto
            -85 36 -88 31 85 vvcurveto
            42 22 23 15 11 vhcurveto
            14 19 30 10 41 hhcurveto
            38 42 -9 -12 14 hvcurveto
            11 -9 7 -23 9 -94 58 7 rcurveline
            6 36 5 42 40 vvcurveto
            18 -1 17 -2 16 vhcurveto
            return
          </CharString>
          <CharString index="2">
            9 1 8 15 3 vhcurveto
            48 9 -3 36 rlineto
            -208 -71 callsubr
            -34 callgsubr
            return
          </CharString>
          <CharString index="3">
            vlineto
            -90 callsubr
            57 -11 19 -9 -29 vvcurveto
            return
          </CharString>
          <CharString index="4">
            35 338 rmoveto
            -209 111 -138 202 208 120 150 223 203 -111 135 -202 -33 callgsubr
            vhcurveto
            329 -294 rmoveto
            -146 -72 135 176 148 51 146 150 146 72 -132 -170 -155 -51 -148 -150 hvcurveto
            return
          </CharString>
          <CharString index="5">
            rmoveto
            25 26 -136 139 rlineto
            -56 hlineto
            -136 -139 25 -26 139 91 rlineto
            endchar
          </CharString>
          <CharString index="6">
            14 -64 49 6 rcurveline
            8 28 6 24 callgsubr
            -47 14 -42 hhcurveto
            -165 -26 -191 -56 -96 callgsubr
            return
          </CharString>
          <CharString index="7">
            hhcurveto
            -127 -120 86 222 167 69 127 153 53 58 -15 -8 10 hvcurveto
            11 -8 12 -37 16 -83 57 8 rcurveline
            1 25 1 25 24 vvcurveto
            32 -1 31 -5 31 vhcurveto
            9 -21 -94 19 -81 hhcurveto
            -265 -85 -201 -170 return
          </CharString>
          <CharString index="8">
            92 124 rmoveto
            -94 53 -39 78 71 47 32 42 36 vhcurveto
            12 14 8 -3 rlineto
            -6 vlineto
            -24 12 -51 10 1 vhcurveto
            129 14 -57 callgsubr
            374 -104 callsubr
            -240 vlineto
            -28 -5 -7 -16 -11 vhcurveto
            -27 -38 -36 -12 -32 hhcurveto
            -68 -11 53 51 hvcurveto
            306 -104 callsubr
            return
          </CharString>
          <CharString index="9">
            282 hlineto
            5 17 5 45 26 6 0 7 6 vvcurveto
            -40 2 -13 -54 -8 -6 -5 -1 rlinecurve
            -5 -3 -34 0 -47 -1 -61 -2 rcurveline
            -1 5 rlineto
            148 105 69 67 82 vvcurveto
            68 -53 52 -108 -38 -61 -12 -23 -30 vhcurveto
            -1 -7 0 -15 -9 vvcurveto
            -20 2 -16 4 -19 vhcurveto
            44 -4 4 56 3 4 8 8 rlinecurve
            9 8 20 7 22 hhcurveto
            61 24 -38 -40 -71 -71 -83 -133 -106 hvcurveto
            endchar
          </CharString>
          <CharString index="10">
            rmoveto
            -4 -24 -4 -37 -3 -28 rrcurveto
            -4 13 49 -9 48 hhcurveto
            112 69 66 63 62 -48 37 -50 7 hvcurveto
            -1 5 rlineto
            hintmask 10110000
            39 15 38 39 45 vvcurveto
            55 -57 33 -80 -59 -35 -14 -14 -25 vhcurveto
            -1 -8 0 -15 -10 vvcurveto
            -19 3 -16 3 -16 vhcurveto
            43 -4 5 61 5 3 7 5 rlinecurve
            6 9 16 2 19 hhcurveto
            36 29 -23 -37 -37 -26 -41 -78 -12 hvcurveto
            -2 -36 rlineto
            hintmask 11001000
            1 12 13 1 9 hhcurveto
            60 26 -33 -53 -48 -37 -30 -45 -24 -15 2 4 -12 hvcurveto
            -7 2 -4 17 -2 40 rrcurveto
            endchar
          </CharString>
          <CharString index="11">
            281 287 rmoveto
            -8 hlineto
            3 0 13 -7 11 vhcurveto
            -98 154 rlineto
            -2 4 -3 4 4 vvcurveto
            3 2 2 3 1 vhcurveto
            53 14 -3 37 rlineto
            -207 -47 callsubr
            36 -9 4 -2 14 -23 rlinecurve
            153 -242 rlineto
            -141 vlineto
            -30 -3 -7 -68 -11 vhcurveto
            4 -36 rlineto
            233 hlineto
            3 36 -60 9 rlineto
            -15 2 -1 9 9 vvcurveto
            170 vlineto
            130 222 14 24 13 9 46 9 rlinecurve
            -3 38 rlineto
            -159 -71 callsubr
            34 -8 13 -4 -11 vvcurveto
            -8 -5 -11 -11 -18 vhcurveto
            return
          </CharString>
          <CharString index="12">
            -25 -26 136 -139 rlineto
            56 hlineto
            136 139 -25 26 -139 -91 rlineto
            endchar
          </CharString>
          <CharString index="13">
            50 hmoveto
            238 -64 callgsubr
            -55 -8 callsubr
            4 -1 10 12 vvcurveto
            227 65 vlineto
            198 -304 rlineto
            142 -1 callgsubr
            -11 10 -18 27 rlinecurve
            -141 212 -8 13 -7 7 -7 2 rlinecurve
            5 vlineto
            101 34 55 81 91 vvcurveto
            102 -63 66 -148 vhcurveto
            -278 hlineto
            -6 -39 rlineto
            74 -13 2 -10 -39 vvcurveto
            -491 vlineto
            -16 callgsubr
            173 316 rmoveto
            261 vlineto
            12 1 12 19 vhcurveto
            60 hlineto
            56 79 -17 -107 -131 -65 -30 -95 hvcurveto
            return
          </CharString>
          <CharString index="14">
            rmoveto
            -60 51 -174 -129 25 -36 201 93 rlineto
            endchar
          </CharString>
          <CharString index="15">
            598 hmoveto
            59 616 hlineto
            18 callsubr
            -235 hlineto
            -6 -39 rlineto
            -8 callgsubr
            -58 vvcurveto
            -383 -8 vlineto
            13 -189 rmoveto
            50 1 2 94 -406 598 rlineto
            -114 hlineto
            -77 -693 rmoveto
            247 -64 callgsubr
            -70 9 rlineto
            -34 4 -10 16 32 vvcurveto
            492 9 vlineto
            -10 101 rlineto
            -44 callsubr
            return
          </CharString>
          <CharString index="16">
            -34 callgsubr
            -31 callgsubr
            -369 vlineto
            -30 -1 -8 -58 -10 vhcurveto
            return
          </CharString>
          <CharString index="17">
            -11 10 rlineto
            -24 -41 -3 -11 -84 hvcurveto
            -6 -32 rlineto
            return
          </CharString>
          <CharString index="18">
            -36 callgsubr
            -245 hlineto
            -6 -39 rlineto
            74 -13 2 -10 -39 vvcurveto
            return
          </CharString>
          <CharString index="19">
            180 hlineto
            2 31 -37 8 rlineto
            -11 2 -2 5 6 vvcurveto
            hintmask 01110000
            57 61 vlineto
            6 50 -67 1 rlineto
            255 vlineto
            -7 6 rlineto
            -18 -29 -4 -4 -23 hvcurveto
            -202 -258 15 -46 rlineto
            191 -43 hlineto
            -19 -12 -8 -51 -8 vhcurveto
            hintmask 10110000
            -84 136 rmoveto
            3 4 5 5 3 5 134 170 rcurveline
            4 -2 rlineto
            -2 -6 0 -6 -7 vvcurveto
            -170 vlineto
            -145 3 rlineto
            endchar
          </CharString>
          <CharString index="20">
            rmoveto
            -76 62 -54 70 30 29 8 14 19 vhcurveto
            5 -2 -24 -83 -59 -45 -95 -20 rlinecurve
            hintmask 10111000
            5 -34 rlineto
            195 15 73 147 107 vvcurveto
            95 -60 64 -98 -90 -62 -61 -75 vhcurveto
            83 10 rmoveto
            30 8 27 15 15 vhcurveto
            13 12 13 4 17 hhcurveto
            57 23 -49 -64 -18 -2 -10 -2 -7 hvcurveto
            -2 -9 -1 -6 -14 -9 rrcurveto
            -11 -20 -27 -2 -8 hhcurveto
            -30 -39 28 68 hvcurveto
            endchar
          </CharString>
          <CharString index="21">
            29 -117 rmoveto
            -1 -7 -1 -7 -6 vvcurveto
            -34 12 -34 14 -14 vhcurveto
            156 28 36 79 55 137 158 392 rcurveline
            3 6 2 1 42 10 -4 39 rcurveline
            -178 hlineto
            -6 -39 rlineto
            45 -10 21 -7 -18 vvcurveto
            -8 -3 -8 -3 -8 vhcurveto
            -106 -275 rlineto
            -8 hlineto
            5 -1 15 -4 11 vhcurveto
            -102 267 14 callsubr
            4 5 1 vhcurveto
            61 15 -45 callsubr
            -206 hlineto
            -6 -39 43 -10 0 -1 10 -25 rlinecurve
            166 -398 -28 -80 -21 -25 -14 -6 rlinecurve
            -6 -15 -26 -3 -26 hhcurveto
            -23 -25 1 2 -16 hvcurveto
            return
          </CharString>
          <CharString index="22">
            -20 hstem
            254 97 vstem
            319 361 rmoveto
            -10 hlineto
            4 -1 10 -9 15 vhcurveto
            -115 221 rlineto
            -3 5 -4 6 5 vvcurveto
            3 2 3 5 1 vhcurveto
            67 18 -4 41 rlineto
            -235 hlineto
            -7 -40 46 -11 5 -3 18 -29 rlinecurve
            180 -331 rlineto
            -178 30 callgsubr
            6 -39 rlineto
            275 hlineto
            4 39 -77 12 rlineto
            -61 callgsubr
            return
          </CharString>
          <CharString index="23">
            hstemhm
            hintmask 10100000
            -78 callsubr
            hintmask 01100000
            -76 callgsubr
            return
          </CharString>
          <CharString index="24">
            -65 -36 25 47 -11 hvcurveto
            -37 hlineto
            -76 5 44 -64 100 hhcurveto
            100 44 64 76 5 hvcurveto
            endchar
          </CharString>
          <CharString index="25">
            -20 hstemhm
            90 51 302 51 hintmask 01111000
            36 hmoveto
            190 hlineto
            3 36 -54 7 rlineto
            -27 3 -7 12 25 vvcurveto
            358 6 vlineto
            1 -8 3 -7 9 -14 rrcurveto
            hintmask 10111000
            281 -416 rlineto
            hintmask 01111000
            53 4 rlineto
            472 vlineto
            9 0 8 15 3 vhcurveto
            48 9 -3 36 rlineto
            -181 -71 callsubr
            67 -7 8 -11 -45 vvcurveto
            -278 -6 vlineto
            -1 7 -3 8 -9 13 -233 349 rcurveline
            -155 -93 callgsubr
            return
          </CharString>
          <CharString index="26">
            -73 callgsubr
            62 12 return
          </CharString>
          <CharString index="27">
            hstem
            240 97 vstem
            149 39 rmoveto
            -39 callsubr
            vlineto
            131 -2 3 -2 7 -3 10 -4 10 -6 20 -111 51 4 rcurveline
            1 15 0 14 14 vvcurveto
            52 -5 48 -4 33 vhcurveto
            -545 hlineto
            -4 -33 -5 -48 -52 vvcurveto
            -14 0 -14 1 -15 vhcurveto
            51 -4 20 111 10 6 10 4 rlinecurve
            7 3 3 2 131 2 rrcurveto
            28 callsubr
            return
          </CharString>
          <CharString index="28">
            -9 rmoveto
            154 87 115 173 168 -82 105 -147 -154 -87 -116 -173 -168 82 -104 147 hvcurveto
            16 53 rmoveto
            -102 -46 106 129 81 18 74 24 30 hvcurveto
            29 23 39 6 24 hhcurveto
            102 46 -106 -129 -81 -18 -74 -24 -30 hvcurveto
            -29 -23 -39 -6 -24 hhcurveto
            return
          </CharString>
          <CharString index="29">
            11 hmoveto
            152 hlineto
            3 37 -56 15 rlineto
            -4 1 0 3 1 vvcurveto
            2 1 5 2 5 vhcurveto
            return
          </CharString>
          <CharString index="30">
            -2 callgsubr
            2 callsubr
            endchar
          </CharString>
          <CharString index="31">
            hstem
            187 93 vstem
            116 36 rmoveto
            5 -36 rlineto
            231 hlineto
            4 36 -61 9 rlineto
            -14 3 -1 8 9 vvcurveto
            427 49 vlineto
            22 19 -2 -1 6 hvcurveto
            11 -2 0 -1 21 -73 45 5 rcurveline
            -2 41 -3 39 -14 39 rrcurveto
            -401 hlineto
            -15 -42 -4 -39 -38 vvcurveto
            45 -5 21 73 0 1 10 2 rlinecurve
            1 6 20 2 22 hhcurveto
            49 -408 hlineto
            -30 -3 -7 -68 -11 vhcurveto
            return
          </CharString>
          <CharString index="32">
            524 rmoveto
            -29 11 -52 16 -65 1 rrcurveto
            116 -57 -121 vlineto
            -94 -16 -60 -58 -79 vvcurveto
            -92 79 -37 75 -32 vhcurveto
            -186 vlineto
            -28 4 -23 7 -13 8 -12 6 -2 4 -12 105 -57 -5 rcurveline
            -4 -29 -5 -42 -41 vvcurveto
            -15 0 -16 2 -15 vhcurveto
            23 -10 68 -16 63 -1 rrcurveto
            -119 57 123 vlineto
            104 16 59 67 78 vvcurveto
            94 -85 38 -78 33 vhcurveto
            176 vlineto
            20 -1 25 -4 14 -9 10 -7 8 -15 6 -82 50 6 rcurveline
            7 25 7 55 32 vvcurveto
            9 0 9 -1 9 vhcurveto
            -277 -95 rmoveto
            24 12 18 12 9 vhcurveto
            10 8 16 6 24 2 rrcurveto
            -150 vlineto
            -43 20 -31 24 39 vvcurveto
            207 -310 rmoveto
            -21 -8 -21 -18 -14 vhcurveto
            -11 -9 -16 -6 -23 -2 rrcurveto
            162 vlineto
            43 -22 33 -25 -42 vvcurveto
            endchar
          </CharString>
          <CharString index="33">
            -20 hstem
            591 -9 rmoveto
            72 hlineto
            200 604 11 34 5 10 58 12 rlinecurve
            -4 42 rlineto
            -205 hlineto
            -6 -40 rlineto
            52 -9 25 -9 -17 vvcurveto
            -8 -5 -21 -6 -20 vhcurveto
            -140 -441 rlineto
            -10 hlineto
            4 -5 16 -4 14 vhcurveto
            -132 449 rlineto
            -2 6 -2 7 2 vvcurveto
            3 2 3 5 1 vhcurveto
            71 19 -4 41 rlineto
            -211 hlineto
            -7 -40 40 -11 11 -1 9 -31 rlinecurve
            35 -118 -115 -364 rlineto
            -10 hlineto
            4 -5 16 -4 14 vhcurveto
            -139 449 rlineto
            -2 6 -2 7 2 vvcurveto
            3 2 3 5 1 vhcurveto
            56 19 -4 41 rlineto
            -223 hlineto
            -7 -40 46 -11 11 -2 10 -30 rlinecurve
            209 -619 rlineto
            71 hlineto
            121 364 rlineto
            4 10 2 11 5 vvcurveto
            8 hlineto
            -5 2 -12 3 -9 vhcurveto
            return
          </CharString>
          <CharString index="34">
            -20 hstem
            465 -7 rmoveto
            66 hlineto
            158 463 9 26 7 8 45 9 rlinecurve
            -3 38 rlineto
            -164 -71 callsubr
            41 -7 17 -7 -14 vvcurveto
            -6 -3 -16 -5 -16 vhcurveto
            -103 -326 rlineto
            -8 hlineto
            3 -3 12 -4 11 vhcurveto
            -96 334 rlineto
            -1 4 -2 6 1 vvcurveto
            2 2 3 4 1 vhcurveto
            54 14 -3 37 rlineto
            -184 hlineto
            -6 -36 31 -9 10 0 7 -25 rlinecurve
            33 -113 -83 -245 rlineto
            -7 hlineto
            3 -4 12 -3 11 vhcurveto
            -102 334 rlineto
            -1 4 -2 6 1 vvcurveto
            2 2 3 4 1 vhcurveto
            42 14 -3 37 rlineto
            -194 -47 callsubr
            36 -9 10 -2 8 -23 rlinecurve
            159 -474 rlineto
            67 hlineto
            92 265 rlineto
            1 3 3 9 3 vvcurveto
            5 hlineto
            -4 2 -7 1 -5 vhcurveto
            return
          </CharString>
          <CharString index="35">
            219 -68 callsubr
            return
          </CharString>
          <CharString index="36">
            -47 callsubr
            rlineto
            return
          </CharString>
          <CharString index="37">
            193 hlineto
            3 31 -50 8 rlineto
            -13 2 0 3 8 vvcurveto
            362 vlineto
            -8 7 rlineto
            -36 -68 -16 -10 -29 hvcurveto
            5 -31 rlineto
            2 12 19 1 13 hhcurveto
            16 3 0 -43 hvcurveto
            -258 vlineto
            -19 -13 -8 -51 -8 vhcurveto
            endchar
          </CharString>
          <CharString index="38">
            237 -64 callgsubr
            -65 -48 callsubr
            return
          </CharString>
          <CharString index="39">
            -64 callgsubr
            -49 -59 callsubr
            return
          </CharString>
          <CharString index="40">
            -11 -18 -6 -20 -20 vvcurveto
            -8 1 -8 2 -8 vhcurveto
            -4 23 18 -3 35 hhcurveto
            65 99 125 132 hvcurveto
            return
          </CharString>
          <CharString index="41">
            -35 callsubr
            275 -64 callgsubr
            -77 -8 callsubr
            3 -1 11 12 vvcurveto
            return
          </CharString>
          <CharString index="42">
            -5 -15 -31 -4 -24 hhcurveto
            -75 -106 59 177 132 56 89 112 33 33 -5 -11 14 hvcurveto
            9 -7 0 -8 12 -99 60 7 rcurveline
            8 30 3 48 38 vvcurveto
            22 vlineto
            6 -17 -72 26 -81 hhcurveto
            -195 -78 -154 -114 -151 70 -132 197 44 67 7 15 69 hvcurveto
            return
          </CharString>
          <CharString index="43">
            -32 callsubr
            hintmask 11001011
            -77 callgsubr
            hintmask 11100111
            -56 callgsubr
          </CharString>
          <CharString index="44">
            rmoveto
            201 -93 25 36 -174 129 -60 -51 rlineto
            endchar
          </CharString>
          <CharString index="45">
            rmoveto
            -11 18 rlineto
            -9 -25 -12 0 -17 hhcurveto
            -28 -21 19 32 52 47 43 59 29 hvcurveto
            -11 20 rlineto
            -113 -35 -49 -65 -54 vvcurveto
            -58 41 -33 45 20 39 8 33 36 vhcurveto
            endchar
          </CharString>
          <CharString index="46">
            85 137 rmoveto
            -91 45 -55 74 59 45 35 38 28 vhcurveto
            -21 29 rlineto
            -18 -24 -27 -12 -25 hhcurveto
            -55 -9 55 49 hvcurveto
            244 vlineto
            131 15 8 47 rlineto
            -139 134 hlineto
            -61 -6 -23 -126 -1 -2 -25 -6 rlinecurve
            -49 -12 4 -43 rlineto
            65 hlineto
            return
          </CharString>
          <CharString index="47">
            182 0 53 285 60 242 54 callsubr
            27 338 rmoveto
            93 -237 hlineto
            -35 callgsubr
            -6 callsubr
            -194 -93 vlineto
            211 -331 rmoveto
            -20 4 -1 10 12 vvcurveto
            245 167 60 -167 242 123 vlineto
            95 132 -65 -232 -168 -69 -122 -154 -42 -39 9 5 -25 hvcurveto
            endchar
          </CharString>
          <CharString index="48">
            -8 callsubr
            5 -1 4 12 vvcurveto
            return
          </CharString>
          <CharString index="49">
            hhcurveto
            -118 hlineto
            123 38 123 94 21 35 -6 -5 10 vhcurveto
            7 -3 3 -9 14 -73 54 6 rcurveline
            10 31 7 48 42 vvcurveto
            8 -27 -54 14 -54 hhcurveto
            return
          </CharString>
          <CharString index="50">
            hmoveto
            408 hlineto
            6 26 4 53 43 vvcurveto
            12 0 12 -1 10 vhcurveto
            -46 4 -20 -70 0 -6 -9 -2 rlinecurve
            -14 -3 -1 2 -133 -5 -80 -3 rcurveline
            -2 7 rlineto
            191 173 101 118 130 vvcurveto
            110 -74 65 -131 -64 -82 -17 -39 -44 vhcurveto
            -1 -14 0 -26 -12 vvcurveto
            -30 2 -25 6 -27 vhcurveto
            59 -6 10 97 7 21 6 5 rlinecurve
            11 13 28 9 37 hhcurveto
            85 39 -57 -79 -134 -113 -111 -187 -189 hvcurveto
            endchar
          </CharString>
          <CharString index="51">
            152 24 101 62 14 20 -5 -5 8 vhcurveto
            7 -5 1 -2 16 -79 53 5 rcurveline
            9 31 4 48 42 vvcurveto
            return
          </CharString>
          <CharString index="52">
            hmoveto
            391 hlineto
            7 24 9 63 37 vvcurveto
            10 0 11 -1 9 vhcurveto
            -46 4 -20 -70 -10 -6 -9 -2 rlinecurve
            -11 -2 -43 -2 -90 -3 -60 -2 rcurveline
            -2 7 rlineto
            176 121 83 93 103 vvcurveto
            93 -69 64 -123 -58 -72 -14 -32 -40 vhcurveto
            -1 -10 0 -21 -11 vvcurveto
            -30 2 -25 6 -27 vhcurveto
            54 -6 10 89 7 14 6 5 rlinecurve
            8 10 24 7 29 hhcurveto
            81 37 -55 -65 -102 -93 -75 -184 -149 hvcurveto
            endchar
          </CharString>
          <CharString index="53">
            -150 82 -88 99 vhcurveto
            25 72 rmoveto
            -56 -53 56 128 71 16 56 26 29 hvcurveto
            27 24 30 1 14 hhcurveto
            72 36 -25 -24 20 hvcurveto
            -239 vlineto
            -19 -5 -12 -22 -15 vhcurveto
            -21 -32 -43 -13 -27 hhcurveto
            return
          </CharString>
          <CharString index="54">
            5 39 6 71 52 vvcurveto
            -55 2 -20 -109 -6 -13 -8 -6 rlinecurve
            -7 return
          </CharString>
          <CharString index="55">
            rmoveto
            -91 -16 -91 -29 -19 vhcurveto
            -5 -7 -9 -2 -13 hhcurveto
            -15 -19 3 7 -28 hvcurveto
            return
          </CharString>
          <CharString index="56">
            588 rmoveto
            260 hlineto
            8 16 8 34 20 vvcurveto
            -10 11 rlineto
            -326 hlineto
            -22 -303 22 -26 rlineto
            13 35 51 10 38 hhcurveto
            95 45 -69 -81 -99 -70 -71 -83 -15 -39 1 11 -17 hvcurveto
            -10 5 -2 15 -8 88 -53 -3 rcurveline
            -12 -45 -8 -57 -42 vvcurveto
            -8 18 51 -17 76 hhcurveto
            151 126 96 146 119 -77 74 -133 -32 -41 -4 -13 -38 hvcurveto
            endchar
          </CharString>
          <CharString index="57">
            3 -20 1 -19 -19 vvcurveto
            -35 -5 -34 -9 -34 vhcurveto
            42 -14 36 53 23 62 6 63 rlinecurve
            endchar
          </CharString>
          <CharString index="58">
            120 -38 callsubr
            return
          </CharString>
          <CharString index="59">
            12 rlineto
            -20 3 -2 6 12 vvcurveto
            return
          </CharString>
          <CharString index="60">
            hlineto
            -5 -36 return
          </CharString>
          <CharString index="61">
            45 rmoveto
            1 -1 rlineto
            300 -162 hlineto
            11 -10 rlineto
            20 43 3 3 16 hvcurveto
            166 93 vlineto
            9 57 -102 2 rlineto
            434 vlineto
            -11 10 rlineto
            -20 -40 -7 -6 -26 hvcurveto
            -317 -428 rlineto
            71 9 -50 callgsubr
          </CharString>
          <CharString index="62">
            -4 39 rlineto
            return
          </CharString>
          <CharString index="63">
            -136 hlineto
            -6 -39 rlineto
            74 -13 2 -10 -39 vvcurveto
            -491 vlineto
            -16 callgsubr
            return
          </CharString>
          <CharString index="64">
            rmoveto
            68 52 29 70 54 vvcurveto
            51 -26 25 -31 -27 -25 -18 -29 vhcurveto
            return
          </CharString>
          <CharString index="65">
            97 vstem
            418 -9 rmoveto
            246 142 150 223 203 -132 135 -241 -246 -142 -147 -217 -209 132 -138 241 hvcurveto
            16 53 rmoveto
            -195 -97 135 176 148 70 146 205 195 97 -132 -170 -155 -70 -148 -205 hvcurveto
            return
          </CharString>
          <CharString index="66">
            23 callgsubr
            -175 -14 3 callgsubr
            return
          </CharString>
          <CharString index="67">
            -185 101 -155 228 94 91 26 return
          </CharString>
          <CharString index="68">
            -66 callsubr
            564 return
          </CharString>
          <CharString index="69">
            13 -57 callgsubr
            return
          </CharString>
          <CharString index="70">
            -19 vhcurveto
            -5 -8 -9 -3 -14 hhcurveto
            -17 -20 4 7 -30 hvcurveto
            return
          </CharString>
          <CharString index="71">
            21 -21 callgsubr
            return
          </CharString>
          <CharString index="72">
            6 -39 rlineto
            return
          </CharString>
          <CharString index="73">
            78 -51 51 -51 78 8 -20 hstemhm
            return
          </CharString>
          <CharString index="74">
            261 -64 callgsubr
            -91 -8 callsubr
            3 -1 6 12 vvcurveto
            108 vlineto
            15 -2 18 -2 11 vhcurveto
            7 3 rlineto
            -15 19 43 -11 46 hhcurveto
            145 79 111 148 150 -82 88 -99 -64 -49 -36 -39 -30 hvcurveto
            -10 -13 -8 3 rlineto
            return
          </CharString>
          <CharString index="75">
            rmoveto
            -23 -22 -17 -12 -24 hhcurveto
            return
          </CharString>
          <CharString index="76">
            -54 0 46 199 47 199 46 return
          </CharString>
          <CharString index="77">
            39 callsubr
            20 1 33 25 vvcurveto
            return
          </CharString>
          <CharString index="78">
            139 21 -21 224 57 callsubr
            return
          </CharString>
          <CharString index="79">
            vlineto
            -86 -2 -79 -27 -37 callsubr
            return
          </CharString>
          <CharString index="80">
            -33 32 -5 -35 vvcurveto
            -25 -16 -44 -31 -37 vhcurveto
            return
          </CharString>
          <CharString index="81">
            vlineto
            -105 callsubr
            -2 -30 vvcurveto
            return
          </CharString>
          <CharString index="82">
            160 -64 callgsubr
            -62 -8 callsubr
            4 -1 10 12 vvcurveto
            539 -36 callgsubr
            -288 hlineto
            -136 -66 -80 -110 -119 68 -102 133 -4 hvcurveto
            return
          </CharString>
          <CharString index="83">
            rmoveto
            65 36 28 53 36 vvcurveto
            43 -23 21 -28 -24 -22 -16 -26 vhcurveto
            return
          </CharString>
          <CharString index="84">
            rmoveto
            36 21 27 32 41 -25 15 -32 return
          </CharString>
          <CharString index="85">
            61 0 52 268 53 267 53 return
          </CharString>
          <CharString index="86">
            217 -9 rmoveto
            64 49 36 39 30 hvcurveto
            10 13 8 -3 rlineto
            -1 -8 0 -5 -6 vvcurveto
            return
          </CharString>
          <CharString index="87">
            12 179 rlineto
            260 hlineto
            7 37 5 63 2 47 -51 7 rcurveline
            -69 -13 -6 -4 -8 hhcurveto
            -256 hlineto
            -22 -303 22 -26 rlineto
            13 35 51 10 38 hhcurveto
            96 45 return
          </CharString>
          <CharString index="88">
            rmoveto
            -28 -26 -19 -21 -31 hhcurveto
            -15 -19 5 5 -14 hvcurveto
            -19 7 -64 25 -29 9 rrcurveto
            return
          </CharString>
          <CharString index="89">
            40 184 46 94 57 hstem
            42 53 128 89 vstem
            99 return
          </CharString>
          <CharString index="90">
            -19 -9 68 -41 -21 232 44 162 53 return
          </CharString>
          <CharString index="91">
            rmoveto
            36 22 28 31 41 -27 15 -31 -35 -22 -27 -29 -41 27 -18 30 hvcurveto
            endchar
          </CharString>
          <CharString index="92">
            205 -9 54 callgsubr
            return
          </CharString>
          <CharString index="93">
            -18 -24 -28 -12 -24 hhcurveto
            -56 -8 55 49 hvcurveto
            237 vlineto
            130 15 8 47 rlineto
            -138 141 hlineto
            -61 -6 rlineto
            -12 -63 -12 -32 -17 vvcurveto
            -17 return
          </CharString>
          <CharString index="94">
            21 4 9 23 15 vhcurveto
            25 38 37 10 25 hhcurveto
            58 53 -56 -125 -73 return
          </CharString>
          <CharString index="95">
            -10 0 215 -47 47 return
          </CharString>
          <CharString index="96">
            39 351 37 hstemhm
            14 72 -56 74 140 72 -72 88 hintmask 11011000
            30 return
          </CharString>
          <CharString index="97">
            214 -64 callgsubr
            -44 12 rlineto
            return
          </CharString>
          <CharString index="98">
            -194 -36 callsubr
            return
          </CharString>
          <CharString index="99">
            12 rlineto
            -19 return
          </CharString>
          <CharString index="100">
            47 hmoveto
            -2 callgsubr
            return
          </CharString>
          <CharString index="101">
            291 hlineto
            246 91 193 175 161 -77 164 -238 hvcurveto
            -313 hlineto
            -6 -39 rlineto
            74 -13 2 -10 -39 vvcurveto
            return
          </CharString>
          <CharString index="102">
            rmoveto
            -68 -52 -29 -70 -54 vvcurveto
            -51 26 -25 31 27 25 18 29 vhcurveto
            return
          </CharString>
          <CharString index="103">
            156 51 100 117 return
          </CharString>
          <CharString index="104">
            97 rmoveto
            hintmask 10011001
            376 53 hlineto
            hintmask 01011100
            -376 hlineto
            -175 vmoveto
            hintmask 00111001
            376 53 hlineto
            hintmask 00111100
            -376 hlineto
            endchar
          </CharString>
          <CharString index="105">
            68 -68 140 hstemhm
            return
          </CharString>
          <CharString index="106">
            314 rmoveto
            83 hlineto
            5 -32 6 -34 -47 vvcurveto
            -45 -4 -48 -77 -85 vhcurveto
            25 -33 rlineto
            25 35 25 19 52 hhcurveto
            hintmask 10001110
            return
          </CharString>
          <CharString index="107">
            vlineto
            -17 26 rlineto
            5 -32 -57 4 -34 hhcurveto
            -214 -56 -143 -132 -17 hvcurveto
            -17 -1 -8 -14 -23 hhcurveto
            -216 hlineto
            return
          </CharString>
          <CharString index="108">
            -21 262 69 309 49 hstem
            36 95 246 94 vstem
            36 return
          </CharString>
          <CharString index="109">
            57 -11 19 -9 -29 vvcurveto
            -287 vlineto
            -85 callgsubr
            return
          </CharString>
          <CharString index="110">
            23 callgsubr
            -157 -12 -223 -54 -3 hvcurveto
            -1 -18 -2 -12 -19 -5 -49 -12 rcurveline
            4 -43 rlineto
            65 return
          </CharString>
          <CharString index="111">
            33 -14 31 -9 vhcurveto
            -136 -13 -6 -32 rlineto
            80 -12 3 -14 -31 vvcurveto
            -288 39 callgsubr
            -76 -13 vhcurveto
            return
          </CharString>
          <CharString index="112">
            219 -64 callgsubr
            -49 12 rlineto
            return
          </CharString>
          <CharString index="113">
            -36 callsubr
            hstem
            return
          </CharString>
          <CharString index="114">
            81 8 callsubr
            return
          </CharString>
          <CharString index="115">
            278 11 callsubr
            return
          </CharString>
          <CharString index="116">
            125 366 21 callsubr
            return
          </CharString>
          <CharString index="117">
            755 -53 callgsubr
            return
          </CharString>
          <CharString index="118">
            rmoveto
            193 hlineto
            3 31 -50 8 rlineto
            -13 2 0 3 8 vvcurveto
            362 vlineto
            -8 7 rlineto
            return
          </CharString>
          <CharString index="119">
            rmoveto
            163 -171 50 171 163 53 -163 167 -50 -167 -163 hlineto
            return
          </CharString>
          <CharString index="120">
            152 -151 35 25 -107 179 -80 -30 rlineto
            return
          </CharString>
          <CharString index="121">
            rlineto
            -2 6 -2 5 2 vvcurveto
            3 2 return
          </CharString>
          <CharString index="122">
            -9 49 312 69 259 -20 hstem
            return
          </CharString>
          <CharString index="123">
            68 -52 callsubr
            return
          </CharString>
          <CharString index="124">
            33 -32 5 35 vvcurveto
            25 16 44 31 37 vhcurveto
            return
          </CharString>
          <CharString index="125">
            -81 callsubr
            -45 callsubr
            return
          </CharString>
          <CharString index="126">
            68 193 236 -53 53 return
          </CharString>
          <CharString index="127">
            -24 -44 -16 rlinecurve
            8 -38 rlineto
            2 28 41 3 28 hhcurveto
            25 4 -1 -69 hvcurveto
            return
          </CharString>
          <CharString index="128">
            rmoveto
            -52 callgsubr
            return
          </CharString>
          <CharString index="129">
            39 callgsubr
            -64 -13 vhcurveto
            -35 callsubr
            214 -64 callgsubr
            -49 12 rlineto
            return
          </CharString>
          <CharString index="130">
            36 23 28 31 42 -28 15 -31 -35 -22 -27 -30 -41 26 -18 31 hvcurveto
            return
          </CharString>
          <CharString index="131">
            -10 -3 rlinecurve
            -7 -2 return
          </CharString>
          <CharString index="132">
            -30 callsubr
            48 callsubr
            return
          </CharString>
          <CharString index="133">
            59 46 16 57 35 vvcurveto
            52 -23 19 -28 -21 -21 -15 -26 vhcurveto
            return
          </CharString>
          <CharString index="134">
            rmoveto
            180 hlineto
            2 31 -37 8 rlineto
            -11 2 -2 5 6 vvcurveto
            return
          </CharString>
          <CharString index="135">
            -540 30 callgsubr
            return
          </CharString>
          <CharString index="136">
            535 -21 252 -20 hstemhm
            return
          </CharString>
          <CharString index="137">
            -217 172 -42 42 return
          </CharString>
          <CharString index="138">
            -2 -20 hstemhm
            111 90 return
          </CharString>
          <CharString index="139">
            hhcurveto
            48 21 -11 -29 hvcurveto
            return
          </CharString>
          <CharString index="140">
            -4 vhcurveto
            -240 vlineto
            11 -10 rlineto
            19 36 3 3 16 hvcurveto
            return
          </CharString>
          <CharString index="141">
            hhcurveto
            -50 -40 14 22 -26 hvcurveto
            endchar
          </CharString>
          <CharString index="142">
            0 216 -24 24 -24 53 69 53 326 -20 hstemhm
            return
          </CharString>
          <CharString index="143">
            -27 27 -7 -27 vvcurveto
            -22 -7 -31 -26 -31 vhcurveto
            endchar
          </CharString>
          <CharString index="144">
            -38 0 46 441 -20 25 45 return
          </CharString>
          <CharString index="145">
            -251 -219 79 618 -20 return
          </CharString>
          <CharString index="146">
            -8 3 rlineto
            6 return
          </CharString>
          <CharString index="147">
            919 838 rmoveto
            -838 -838 838 hlineto
            return
          </CharString>
          <CharString index="148">
            241 109 -21 238 53 238 -20 hstem
            return
          </CharString>
          <CharString index="149">
            65 53 callsubr
            return
          </CharString>
          <CharString index="150">
            -21 367 54 hstem
            59 return
          </CharString>
          <CharString index="151">
            4 vhcurveto
            62 12 return
          </CharString>
          <CharString index="152">
            21 55 callsubr
            return
          </CharString>
          <CharString index="153">
            -9 56 199 51 71 51 230 53 hstem
            return
          </CharString>
          <CharString index="154">
            -287 vlineto
            -85 callgsubr
            endchar
          </CharString>
          <CharString index="155">
            256 vlineto
            -17 26 rlineto
            5 return
          </CharString>
          <CharString index="156">
            582 -21 204 -20 hstem
            return
          </CharString>
          <CharString index="157">
            -8 vhcurveto
            -172 -161 rlineto
            return
          </CharString>
          <CharString index="158">
            53 hstemhm
            115 90 return
          </CharString>
          <CharString index="159">
            -9 53 391 53 return
          </CharString>
          <CharString index="160">
            21 58 callgsubr
            return
          </CharString>
          <CharString index="161">
            52 callgsubr
            350 111 vstem
            return
          </CharString>
          <CharString index="162">
            58 callgsubr
            31 callsubr
            return
          </CharString>
          <CharString index="163">
            -59 -21 71 56 573 56 96 -20 hstemhm
            return
          </CharString>
          <CharString index="164">
            53 425 -20 return
          </CharString>
        <CharString name=".notdef">
          -11 0 46 587 46 hstem
          30 49 362 49 vstem
          30 hmoveto
          460 679 -460 hlineto
          49 -633 rmoveto
          587 362 -587 vlineto
          endchar
        </CharString>
        <CharString name=".null">
          -531 endchar
        </CharString>
        <CharString name="A">
          -29 callsubr
          hstem
          -106 callgsubr
          endchar
        </CharString>
        <CharString name="A.sc">
          -12 callsubr
          329 -20 -84 callsubr
          hintmask 10100000
          -102 callgsubr
          endchar
        </CharString>
        <CharString name="AE">
          349 0 52 268 53 267 53 hstem
          428 97 vstem
          328 693 rmoveto
          -6 -39 rlineto
          45 -8 16 -9 -14 vvcurveto
          -5 -2 -5 -4 -7 vhcurveto
          -300 -523 -17 -30 -1 -1 -45 -12 rlinecurve
          7 -40 rlineto
          186 hlineto
          4 41 -68 18 rlineto
          -8 2 -3 3 4 vvcurveto
          5 5 7 4 7 vhcurveto
          134 233 rlineto
          153 -219 hlineto
          -35 callgsubr
          486 hlineto
          0 callgsubr
          -85 -1 rcurveline
          269 158 vlineto
          10 3 -10 -73 21 hvcurveto
          36 6 rlineto
          -10 75 -4 11 112 vvcurveto
          -31 3 rlineto
          -63 -17 -7 -8 -8 hhcurveto
          -151 269 hlineto
          152 -3 28 -1 15 -1 18 -2 rlinecurve
          11 -1 4 -10 19 -94 57 7 rcurveline
          1 23 1 26 28 vvcurveto
          16 -2 38 -4 25 vhcurveto
          -403 -106 rmoveto
          6 -214 -123 hlineto
          endchar
        </CharString>
        <CharString name="Aacute">
          -29 callsubr
          232 -20 hstem
          -106 callgsubr
          77 586 -93 callsubr
        </CharString>
        <CharString name="Aacute.sc">
          -12 callsubr
          550 -20 -84 callsubr
          hintmask 10100000
          -102 callgsubr
          79 499 -93 callsubr
        </CharString>
        <CharString name="Abreve">
          -29 callsubr
          78 -2 callsubr
          hintmask 11101000
          -106 callgsubr
          24 623 rmoveto
          hintmask 11110000
          -28 callgsubr
          hintmask 11101000
          -83 callsubr
        </CharString>
        <CharString name="Abreve.sc">
          -12 callsubr
          396 68 -68 140 -84 callsubr
          hintmask 10010000
          -102 callgsubr
          63 536 rmoveto
          hintmask 10100000
          -28 callgsubr
          hintmask 10010000
          -83 callsubr
        </CharString>
        <CharString name="Acircumflex">
          -29 callsubr
          232 -20 hstem
          -106 callgsubr
          49 472 -102 callsubr
        </CharString>
        <CharString name="Acircumflex.sc">
          -12 callsubr
          550 -20 -84 callsubr
          hintmask 10100000
          -102 callgsubr
          87 385 -102 callsubr
        </CharString>
        <CharString name="Adieresis">
          -29 callsubr
          93 110 hstem
          188 105 88 105 vstem
          -106 callgsubr
          6 498 rmoveto
          -97 callgsubr
          endchar
        </CharString>
        <CharString name="Adieresis.sc">
          -12 callsubr
          411 110 hstemhm
          114 105 88 105 hintmask 10111000
          -78 callsubr
          hintmask 01111000
          -76 callgsubr
          hintmask 10111000
          -102 callgsubr
          44 411 rmoveto
          -97 callgsubr
          endchar
        </CharString>
        <CharString name="Agrave">
          -29 callsubr
          232 -20 hstem
          -106 callgsubr
          -249 565 -63 callsubr
        </CharString>
        <CharString name="Agrave.sc">
          -12 callsubr
          550 -20 -84 callsubr
          hintmask 10100000
          -102 callgsubr
          -219 478 -63 callsubr
        </CharString>
        <CharString name="Amacron">
          139 191 134 65 197 endchar
        </CharString>
        <CharString name="Amacron.sc">
          -12 callsubr
          435 60 -84 callsubr
          hintmask 10100000
          -102 callgsubr
          -172 435 -37 callgsubr
        </CharString>
        <CharString name="Aogonek">
          139 31 callgsubr
          198 57 callsubr
          hstem
          420 81 vstem
          -106 callgsubr
          201 -446 rmoveto
          -12 20 rlineto
          -9 -26 -9 -1 -25 hhcurveto
          -48 callgsubr
        </CharString>
        <CharString name="Aogonek.sc">
          -10 -191 -21 212 215 -47 47 329 -20 hstemhm
          269 67 hintmask 11011000
          -78 callsubr
          hintmask 10111000
          -76 callgsubr
          hintmask 11011000
          -102 callgsubr
          135 -386 -62 callsubr
        </CharString>
        <CharString name="Aring">
          -29 callsubr
          57 43 94 43 hstem
          243 49 98 50 vstem
          -106 callgsubr
          -88 462 -69 callgsubr
        </CharString>
        <CharString name="Aring.sc">
          -12 callsubr
          375 43 94 43 hstemhm
          162 49 98 50 hintmask 10111100
          -78 callsubr
          hintmask 01111100
          -76 callgsubr
          hintmask 10111100
          -102 callgsubr
          -57 375 -69 callgsubr
        </CharString>
        <CharString name="Atilde">
          -29 callsubr
          96 -34 callsubr
          hintmask 11101010
          -106 callgsubr
          66 614 -32 callsubr
          hintmask 11100100
          -77 callgsubr
          hintmask 11110010
          -56 callgsubr
        </CharString>
        <CharString name="Atilde.sc">
          -12 callsubr
          414 -34 callsubr
          hintmask 10100100
          -78 callsubr
          hintmask 01100100
          -76 callgsubr
          hintmask 10010100
          -102 callgsubr
          106 527 -32 callsubr
          hintmask 10001000
          -77 callgsubr
          hintmask 10100100
          -56 callgsubr
        </CharString>
        <CharString name="B">
          88 0 52 278 53 257 53 hstemhm
          120 97 215 107 -66 66 -66 111 hintmask 11110010
          50 hmoveto
          292 hlineto
          179 63 106 87 81 -65 72 -85 16 hvcurveto
          7 vlineto
          hintmask 11111000
          41 13 64 54 92 vvcurveto
          102 -78 63 -147 vhcurveto
          -264 hlineto
          -6 -39 rlineto
          74 -13 2 -10 -39 vvcurveto
          -491 vlineto
          -16 callgsubr
          173 344 rmoveto
          257 67 vlineto
          48 100 -7 -117 -78 -45 -55 -114 hvcurveto
          -56 -286 rmoveto
          233 97 vlineto
          hintmask 11110100
          65 94 -28 -118 -81 -46 -51 -134 -40 -18 8 2 -3 hvcurveto
          -14 6 -1 15 14 vvcurveto
          endchar
        </CharString>
        <CharString name="B.sc">
          -11 0 46 207 47 190 47 hstemhm
          107 93 152 100 -68 68 -68 103 hintmask 11110010
          53 hmoveto
          237 hlineto
          145 52 82 68 62 -51 56 -66 13 hvcurveto
          5 vlineto
          hintmask 11111000
          32 10 50 42 71 vvcurveto
          79 -64 49 -120 vhcurveto
          -215 -93 callgsubr
          152 264 rmoveto
          190 48 vlineto
          33 71 -5 -85 -59 -32 -41 -80 hvcurveto
          30 -47 rmoveto
          hintmask 11110100
          47 67 -21 -89 -60 -33 -37 -96 -29 -13 6 2 -2 hvcurveto
          -10 5 -1 11 11 vvcurveto
          172 vlineto
          endchar
        </CharString>
        <CharString name="C">
          89 53 callgsubr
          hstem
          35 111 vstem
          35 331 rmoveto
          -40 callsubr
          19 36 vhcurveto
          -53 callsubr
          -9 -47 -18 -58 -100 callsubr
          hvcurveto
          endchar
        </CharString>
        <CharString name="C.sc">
          -19 -7 47 457 47 hstem
          38 103 -98 callgsubr
          endchar
        </CharString>
        <CharString name="CR">
          -286 endchar
        </CharString>
        <CharString name="Cacute">
          89 53 callgsubr
          212 -20 hstem
          35 111 vstem
          35 331 rmoveto
          -40 callsubr
          19 36 vhcurveto
          -53 callsubr
          -9 -47 -18 -58 -100 callsubr
          hvcurveto
          486 532 -93 callsubr
        </CharString>
        <CharString name="Cacute.sc">
          -19 -7 47 457 47 221 -20 hstem
          38 103 -98 callgsubr
          387 438 -93 callsubr
        </CharString>
        <CharString name="Ccaron">
          89 53 callgsubr
          215 -20 hstem
          35 111 vstem
          35 331 rmoveto
          -40 callsubr
          19 36 vhcurveto
          -53 callsubr
          -9 -47 -18 -58 -100 callsubr
          hvcurveto
          198 586 rmoveto
          -95 callsubr
        </CharString>
        <CharString name="Ccaron.sc">
          -19 -7 47 457 47 224 -20 hstem
          38 103 -98 callgsubr
          92 492 rmoveto
          -95 callsubr
        </CharString>
        <CharString name="Ccedilla">
          89 30 callsubr
          36 56 602 53 hstem
          35 111 241 82 vstem
          35 331 rmoveto
          -40 callsubr
          19 36 vhcurveto
          -53 callsubr
          -9 -47 -18 -58 -100 callsubr
          hvcurveto
          256 -420 -78 callgsubr
          -21 -58 -7 hvcurveto
          endchar
        </CharString>
        <CharString name="Ccedilla.sc">
          -19 30 callsubr
          38 47 457 47 hstem
          38 103 185 82 -98 callgsubr
          192 -365 -78 callgsubr
          -20 -58 -8 hvcurveto
          endchar
        </CharString>
        <CharString name="Ccircumflex">
          89 53 callgsubr
          212 -20 hstem
          35 111 vstem
          35 331 rmoveto
          -40 callsubr
          19 36 vhcurveto
          -53 callsubr
          -9 -47 -18 -58 -100 callsubr
          hvcurveto
          455 418 -102 callsubr
        </CharString>
        <CharString name="Ccircumflex.sc">
          -19 -7 47 457 47 221 -20 hstem
          38 103 -98 callgsubr
          384 324 -102 callsubr
        </CharString>
        <CharString name="D">
          182 0 53 587 54 callsubr
          50 hmoveto
          -6 callsubr
          -491 vlineto
          -16 callgsubr
          173 54 rmoveto
          547 123 vlineto
          95 132 -65 -232 -168 -69 -122 -154 -42 -39 9 5 -25 hvcurveto
          -20 4 -1 10 12 vvcurveto
          endchar
        </CharString>
        <CharString name="D.sc">
          61 0 47 443 47 -47 callgsubr
          endchar
        </CharString>
        <CharString name="Dcaron">
          182 0 53 587 53 224 -20 hstem
          120 97 350 111 vstem
          50 hmoveto
          -6 callsubr
          -491 vlineto
          -16 callgsubr
          173 54 rmoveto
          547 123 vlineto
          95 132 -65 -232 -168 -69 -122 -154 -42 -39 9 5 -25 hvcurveto
          -20 4 -1 10 12 vvcurveto
          -45 824 rmoveto
          -95 callsubr
        </CharString>
        <CharString name="Dcaron.sc">
          61 0 47 443 47 231 -20 -47 callgsubr
          -81 690 rmoveto
          -95 callsubr
        </CharString>
        <CharString name="Dcroat">
          -60 callsubr
        </CharString>
        <CharString name="Delta">
          110 0 53 649 -20 hstem
          287 702 rmoveto
          -240 -662 rlineto
          -40 544 42 vlineto
          -235 660 rlineto
          -58 -115 rmoveto
          7 hlineto
          -4 2 -13 4 -12 vhcurveto
          165 -505 rlineto
          -362 hlineto
          endchar
        </CharString>
        <CharString name="E">
          -22 callsubr
          hstem
          120 97 vstem
          -107 callgsubr
          endchar
        </CharString>
        <CharString name="E.sc">
          -31 callsubr
          -3 callgsubr
          cntrmask 11100000
          hintmask 11110000
          53 hmoveto
          382 hlineto
          7 19 6 54 29 vvcurveto
          13 0 15 -1 12 vhcurveto
          -43 5 -24 -85 -8 -8 -7 -3 rlinecurve
          -6 -1 12 -3 -112 -1 -59 -1 rcurveline
          200 99 vlineto
          7 3 -8 -56 16 hvcurveto
          34 5 rlineto
          hintmask 11101000
          -8 58 -3 14 87 vvcurveto
          -30 2 rlineto
          -49 -13 -6 -6 -6 hhcurveto
          hintmask 11110000
          -93 200 hlineto
          91 -2 22 -1 12 -1 14 -1 rlinecurve
          8 -1 3 -8 15 -73 50 6 rcurveline
          1 17 1 21 21 vvcurveto
          13 -2 35 -3 19 vhcurveto
          -359 -93 callgsubr
          endchar
        </CharString>
        <CharString name="Eacute">
          -22 callsubr
          42 callgsubr
          97 vstem
          -107 callgsubr
          394 824 -93 callsubr
        </CharString>
        <CharString name="Eacute.sc">
          -31 callsubr
          228 -20 -104 callgsubr
          337 678 -93 callsubr
        </CharString>
        <CharString name="Ebreve">
          -22 callsubr
          67 -2 callsubr
          120 97 hintmask 11101100
          -107 callgsubr
          369 861 rmoveto
          hintmask 11110100
          -28 callgsubr
          hintmask 11101100
          -83 callsubr
        </CharString>
        <CharString name="Ebreve.sc">
          -31 callsubr
          74 68 -68 140 -3 callgsubr
          hintmask 11110100
          53 hmoveto
          382 hlineto
          7 19 6 54 29 vvcurveto
          13 0 15 -1 12 vhcurveto
          -43 5 -24 -85 -8 -8 -7 -3 rlinecurve
          -6 -1 12 -3 -112 -1 -59 -1 rcurveline
          200 99 vlineto
          7 3 -8 -56 16 hvcurveto
          34 5 rlineto
          hintmask 11110010
          -8 58 -3 14 87 vvcurveto
          -30 2 rlineto
          -49 -13 -6 -6 -6 hhcurveto
          hintmask 11101100
          -93 200 hlineto
          91 -2 22 -1 12 -1 14 -1 rlinecurve
          8 -1 3 -8 15 -73 50 6 rcurveline
          1 17 1 21 21 vvcurveto
          13 -2 35 -3 19 vhcurveto
          -359 -93 callgsubr
          303 715 rmoveto
          hintmask 11110100
          -28 callgsubr
          hintmask 11101100
          -83 callsubr
        </CharString>
        <CharString name="Ecaron">
          -22 callsubr
          224 -20 hstem
          120 97 vstem
          -107 callgsubr
          106 878 rmoveto
          -95 callsubr
        </CharString>
        <CharString name="Ecaron.sc">
          -31 callsubr
          231 -20 -104 callgsubr
          62 732 rmoveto
          -95 callsubr
        </CharString>
        <CharString name="Ecircumflex">
          -22 callsubr
          42 callgsubr
          97 vstem
          -107 callgsubr
          386 710 -102 callsubr
        </CharString>
        <CharString name="Ecircumflex.sc">
          -31 callsubr
          228 -20 -104 callgsubr
          331 564 -102 callsubr
        </CharString>
        <CharString name="Edieresis">
          -22 callsubr
          82 110 hstemhm
          120 97 -74 105 88 94 hintmask 11111010
          -107 callgsubr
          344 736 rmoveto
          -95 callgsubr
          -193 hmoveto
          hintmask 11110110
          -95 callgsubr
          endchar
        </CharString>
        <CharString name="Edieresis.sc">
          -31 callsubr
          89 110 hstemhm
          91 109 -93 93 -93 241 -64 105 hintmask 11111001
          53 hmoveto
          382 hlineto
          7 19 6 54 29 vvcurveto
          13 0 15 -1 12 vhcurveto
          -43 5 -24 -85 -8 -8 -7 -3 rlinecurve
          -6 -1 12 -3 -112 -1 -59 -1 rcurveline
          200 99 vlineto
          7 3 -8 -56 16 hvcurveto
          34 5 rlineto
          hintmask 11110010
          -8 58 -3 14 87 vvcurveto
          -30 2 rlineto
          -49 -13 -6 -6 -6 hhcurveto
          hintmask 11111001
          -93 200 hlineto
          91 -2 22 -1 12 -1 14 -1 rlinecurve
          8 -1 3 -8 15 -73 50 6 rcurveline
          1 17 1 21 21 vvcurveto
          13 -2 35 -3 19 vhcurveto
          -359 -71 callsubr
          hintmask 11110101
          -91 callsubr
          288 590 rmoveto
          -88 callgsubr
          hvcurveto
          hintmask 11111001
          -32 -20 -26 -28 -39 22 -17 30 hvcurveto
          endchar
        </CharString>
        <CharString name="Egrave">
          -22 callsubr
          42 callgsubr
          97 vstem
          -107 callgsubr
          88 803 -63 callsubr
        </CharString>
        <CharString name="Egrave.sc">
          -31 callsubr
          228 -20 -104 callgsubr
          39 657 -63 callsubr
        </CharString>
        <CharString name="Emacron">
          61 160 134 69 197 endchar
        </CharString>
        <CharString name="Emacron.sc">
          -31 callsubr
          113 60 -104 callgsubr
          67 614 -37 callgsubr
        </CharString>
        <CharString name="Eng">
          244 -219 79 161 -21 callgsubr
          hstemhm
          120 67 250 220 -67 67 hintmask 11111000
          639 91 rmoveto
          18 78 rlineto
          447 -36 callgsubr
          -235 hlineto
          -6 -39 rlineto
          hintmask 11110100
          -8 callgsubr
          -58 vvcurveto
          -383 -8 vlineto
          13 -189 rmoveto
          50 1 2 94 -406 598 rlineto
          -114 hlineto
          59 hmoveto
          -44 callsubr
          6 -39 rlineto
          247 -64 callgsubr
          -70 9 rlineto
          -34 4 -10 16 32 vvcurveto
          492 9 vlineto
          394 -524 -52 callsubr
          hintmask 11111000
          -11 -18 -6 -20 -20 vvcurveto
          -8 1 -8 2 -8 vhcurveto
          -4 15 20 -3 17 hhcurveto
          97 68 85 237 hvcurveto
          565 vlineto
          hintmask 11110100
          -67 -45 rlineto
          endchar
        </CharString>
        <CharString name="Eogonek">
          61 31 callgsubr
          -26 52 268 53 267 53 hstemhm
          120 97 96 81 hintmask 10111110
          -107 callgsubr
          477 -208 33 callgsubr
          59 64 43 78 3 hvcurveto
          hintmask 11011110
          26 vlineto
          -144 -79 -81 -70 -54 48 -36 50 24 45 9 37 41 hvcurveto
          endchar
        </CharString>
        <CharString name="Eogonek.sc">
          -54 -191 -21 212 46 199 47 199 46 -3 callgsubr
          -103 67 hintmask 11111010
          53 hmoveto
          382 hlineto
          7 19 6 54 29 vvcurveto
          13 0 15 -1 12 vhcurveto
          -43 5 -24 -85 -8 -8 -7 -3 rlinecurve
          -6 -1 12 -3 -112 -1 -59 -1 rcurveline
          200 99 vlineto
          7 3 -8 -56 16 hvcurveto
          34 5 rlineto
          hintmask 11110100
          -8 58 -3 14 87 vvcurveto
          -30 2 rlineto
          -49 -13 -6 -6 -6 hhcurveto
          hintmask 11111010
          -93 200 hlineto
          91 -2 22 -1 12 -1 14 -1 rlinecurve
          8 -1 3 -8 15 -73 50 6 rcurveline
          1 17 1 21 21 vvcurveto
          13 -2 35 -3 19 vhcurveto
          -359 -93 callgsubr
          378 -207 -62 callsubr
        </CharString>
        <CharString name="Eth">
          -60 callsubr
        </CharString>
        <CharString name="Euro">
          54 46 callsubr
          385 368 rmoveto
          51 -193 vlineto
          134 11 50 96 97 hhcurveto
          38 42 -15 -8 7 hvcurveto
          11 -8 12 -37 16 -83 57 8 rcurveline
          1 25 1 25 24 vvcurveto
          32 -1 31 -5 31 vhcurveto
          9 -17 -78 19 -67 hhcurveto
          -182 -79 -139 -144 -22 hvcurveto
          -74 -51 hlineto
          -71 vmoveto
          -51 74 vlineto
          -145 22 83 -110 157 hhcurveto
          80 77 26 19 30 hvcurveto
          -53 callsubr
          -6 -33 -18 -41 hhcurveto
          -79 -74 57 142 -25 hvcurveto
          188 51 hlineto
          endchar
        </CharString>
        <CharString name="Euro.tab">
          46 callsubr
          343 368 rmoveto
          51 -174 vlineto
          134 11 46 96 89 hhcurveto
          35 39 -15 -8 6 hvcurveto
          11 -8 12 -37 16 -83 57 8 rcurveline
          1 25 1 25 24 vvcurveto
          32 -1 31 -5 31 vhcurveto
          9 -16 -75 19 -64 hhcurveto
          -174 -76 -139 -144 -20 hvcurveto
          -45 -51 hlineto
          -71 vmoveto
          -51 45 vlineto
          -145 21 79 -110 149 hhcurveto
          77 74 26 19 29 hvcurveto
          -53 callsubr
          -5 -31 -18 -37 hhcurveto
          -73 -69 57 142 -23 hvcurveto
          168 51 hlineto
          endchar
        </CharString>
        <CharString name="F">
          15 21 -21 311 53 276 52 callgsubr
          vstem
          50 hmoveto
          284 -64 callgsubr
          -101 -8 callsubr
          2 -1 12 12 vvcurveto
          234 161 vlineto
          10 15 -10 -73 21 hvcurveto
          36 6 rlineto
          -10 75 -4 11 112 vvcurveto
          -31 3 rlineto
          -63 -17 -19 -8 -8 hhcurveto
          -154 278 hlineto
          151 -3 28 -1 15 -1 18 -2 rlinecurve
          11 -1 4 -10 19 -94 57 7 rcurveline
          1 23 1 26 28 vvcurveto
          16 -2 38 -4 25 vhcurveto
          -466 hlineto
          -6 -39 rlineto
          74 -13 2 -10 -39 vvcurveto
          -491 vlineto
          -16 callgsubr
          endchar
        </CharString>
        <CharString name="F.sc">
          -89 21 -21 238 47 206 46 -3 callgsubr
          hintmask 11110000
          53 hmoveto
          239 hlineto
          3 36 -79 9 rlineto
          -15 2 -1 9 9 vvcurveto
          173 99 vlineto
          7 3 -8 -56 16 hvcurveto
          34 5 rlineto
          hintmask 11101000
          -8 58 -3 14 87 vvcurveto
          -30 2 rlineto
          -49 -13 -6 -6 -6 hhcurveto
          hintmask 11110000
          -93 207 hlineto
          91 -2 22 -1 12 -1 14 -1 rlinecurve
          8 -1 3 -8 15 -73 50 6 rcurveline
          1 17 1 21 21 vvcurveto
          13 -2 35 -3 19 vhcurveto
          -359 -93 callgsubr
          endchar
        </CharString>
        <CharString name="G">
          29 callgsubr
          hstem
          35 111 344 97 vstem
          587 37 rmoveto
          189 vlineto
          -73 callgsubr
          51 12 -45 callsubr
          -234 hlineto
          -6 -39 rlineto
          74 -13 2 -10 -39 vvcurveto
          -139 vlineto
          -8 -21 -35 -8 -41 -100 callsubr
          -40 callsubr
          20 38 hvcurveto
          endchar
        </CharString>
        <CharString name="G.sc">
          28 callgsubr
          hstemhm
          33 103 251 93 hintmask 01111000
          -38 callgsubr
          hintmask 10111000
          -65 callsubr
          endchar
        </CharString>
        <CharString name="Gbreve">
          29 callgsubr
          58 -2 callsubr
          35 111 344 97 hintmask 11011100
          587 37 rmoveto
          189 vlineto
          -73 callgsubr
          51 12 -45 callsubr
          -234 hlineto
          -6 -39 rlineto
          74 -13 2 -10 -39 vvcurveto
          -139 vlineto
          -8 -21 -35 -8 -41 -100 callsubr
          -40 callsubr
          20 38 hvcurveto
          -97 863 rmoveto
          hintmask 11101100
          -28 callgsubr
          hintmask 11011100
          -83 callsubr
        </CharString>
        <CharString name="Gbreve.sc">
          28 callgsubr
          67 -2 callsubr
          33 103 251 93 hintmask 01110110
          -38 callgsubr
          hintmask 10101110
          -65 callsubr
          -90 736 rmoveto
          hintmask 10110110
          -28 callgsubr
          hintmask 10101110
          -83 callsubr
        </CharString>
        <CharString name="Gcaron">
          29 callgsubr
          215 -20 hstem
          35 111 344 97 vstem
          587 37 rmoveto
          189 vlineto
          -73 callgsubr
          51 12 -45 callsubr
          -234 hlineto
          -6 -39 rlineto
          74 -13 2 -10 -39 vvcurveto
          -139 vlineto
          -8 -21 -35 -8 -41 -100 callsubr
          -40 callsubr
          20 38 hvcurveto
          -374 880 rmoveto
          -95 callsubr
        </CharString>
        <CharString name="Gcircumflex">
          29 callgsubr
          212 -20 hstem
          35 111 344 97 vstem
          587 37 rmoveto
          189 vlineto
          -73 callgsubr
          51 12 -45 callsubr
          -234 hlineto
          -6 -39 rlineto
          74 -13 2 -10 -39 vvcurveto
          -139 vlineto
          -8 -21 -35 -8 -41 -100 callsubr
          -40 callsubr
          20 38 hvcurveto
          -99 712 -102 callsubr
        </CharString>
        <CharString name="Gcircumflex.sc">
          28 callgsubr
          221 -20 hstemhm
          33 103 251 93 hintmask 01111100
          -38 callgsubr
          hintmask 10111100
          -65 callsubr
          -63 585 -102 callsubr
        </CharString>
        <CharString name="H">
          49 callgsubr
          306 -20 hstem
          120 97 333 97 vstem
          -5 callgsubr
          250 333 -226 vlineto
          -35 callgsubr
          -46 callgsubr
          -205 -333 229 -89 callsubr
          -491 vlineto
          -16 callgsubr
          endchar
        </CharString>
        <CharString name="H.sc">
          100 21 -21 259 52 226 -20 hstem
          107 93 231 93 vstem
          -4 callgsubr
          194 231 -175 vlineto
          -30 -1 -8 -58 -10 vhcurveto
          5 -36 rlineto
          -43 callgsubr
          -2 -30 vvcurveto
          -148 -231 161 -26 callsubr
          -375 vlineto
          -30 -1 -8 -58 -10 vhcurveto
          endchar
        </CharString>
        <CharString name="H22073">
          469 0 60 718 60 hstem
          81 60 718 60 vstem
          40 callsubr
          -60 60 rmoveto
          -718 718 718 hlineto
          endchar
        </CharString>
        <CharString name="Hbar">
          49 callgsubr
          105 53 -53 201 hstemhm
          120 97 333 97 hintmask 11011100
          -5 callgsubr
          250 333 -226 vlineto
          -35 callgsubr
          -46 callgsubr
          -205 -333 229 -89 callsubr
          -491 vlineto
          19 callgsubr
          453 rmoveto
          673 hlineto
          hintmask 11101100
          53 -673 vlineto
          endchar
        </CharString>
        <CharString name="Hbar.sc">
          100 21 -21 259 52 54 53 -53 172 hstemhm
          107 93 231 93 hintmask 11011100
          -4 callgsubr
          194 231 -175 vlineto
          -30 -1 -8 -58 -10 vhcurveto
          5 -36 rlineto
          -43 callgsubr
          -2 -30 vvcurveto
          -148 -231 161 -26 callsubr
          -375 vlineto
          -30 -1 -8 -58 -10 vhcurveto
          6 329 rmoveto
          522 hlineto
          hintmask 11101100
          53 -522 vlineto
          endchar
        </CharString>
        <CharString name="Hcircumflex">
          49 callgsubr
          306 -20 241 -20 hstem
          120 97 333 97 vstem
          -5 callgsubr
          250 333 -226 vlineto
          -35 callgsubr
          -46 callgsubr
          -205 -333 229 -89 callsubr
          -491 vlineto
          -16 callgsubr
          484 710 -102 callsubr
        </CharString>
        <CharString name="Hcircumflex.sc">
          100 21 -21 259 52 454 -20 hstem
          107 93 231 93 vstem
          -4 callgsubr
          194 231 -175 vlineto
          -30 -1 -8 -58 -10 vhcurveto
          5 -36 rlineto
          -43 callgsubr
          -2 -30 vvcurveto
          -148 -231 161 -26 callsubr
          -375 vlineto
          -30 -1 -8 -58 -10 vhcurveto
          399 564 -102 callsubr
        </CharString>
        <CharString name="I">
          -9 callsubr
          hstem
          120 97 vstem
          50 hmoveto
          -46 callgsubr
          -491 vlineto
          -16 callgsubr
          endchar
        </CharString>
        <CharString name="I.sc">
          -224 21 -21 537 -20 hstem
          107 93 vstem
          53 hmoveto
          -43 callgsubr
          -31 callgsubr
          -369 vlineto
          -30 -1 -8 -58 -10 vhcurveto
          endchar
        </CharString>
        <CharString name="IJ">
          142 -119 85 55 -21 callgsubr
          hstemhm
          120 97 242 97 vstemhm
          50 hmoveto
          -46 callgsubr
          -491 vlineto
          -16 callgsubr
          512 583 rmoveto
          8 5 9 15 3 vhcurveto
          72 12 -45 callsubr
          -265 hlineto
          -6 -39 rlineto
          74 -13 12 -10 -39 vvcurveto
          -434 -28 callsubr
          hintmask 11111000
          -49 callgsubr
          70 87 123 124 hvcurveto
          endchar
        </CharString>
        <CharString name="Iacute">
          -9 callsubr
          241 -20 hstem
          120 97 vstem
          50 hmoveto
          -46 callgsubr
          -491 vlineto
          -16 callgsubr
          268 824 -93 callsubr
        </CharString>
        <CharString name="Iacute.sc">
          -224 21 -21 765 -20 hstem
          107 93 vstem
          53 hmoveto
          -43 callgsubr
          -31 callgsubr
          -369 vlineto
          -30 -1 -8 -58 -10 vhcurveto
          243 678 -93 callsubr
        </CharString>
        <CharString name="Ibreve">
          -9 callsubr
          87 -2 callsubr
          120 97 hintmask 11011000
          50 hmoveto
          -46 callgsubr
          -491 vlineto
          -16 callgsubr
          237 861 rmoveto
          hintmask 11101000
          -28 callgsubr
          hintmask 11011000
          -83 callsubr
        </CharString>
        <CharString name="Ibreve.sc">
          -224 21 -21 611 -2 callsubr
          107 93 hintmask 10110000
          53 hmoveto
          -43 callgsubr
          -31 callgsubr
          -369 vlineto
          -30 -1 -8 -58 -10 vhcurveto
          216 715 rmoveto
          hintmask 11010000
          -28 callgsubr
          hintmask 10110000
          -83 callsubr
        </CharString>
        <CharString name="Icircumflex">
          -9 callsubr
          241 -20 hstem
          120 97 vstem
          50 hmoveto
          -46 callgsubr
          -491 vlineto
          -16 callgsubr
          263 710 -102 callsubr
        </CharString>
        <CharString name="Icircumflex.sc">
          -224 21 -21 765 -20 hstem
          107 93 vstem
          53 hmoveto
          -43 callgsubr
          -31 callgsubr
          -369 vlineto
          -30 -1 -8 -58 -10 vhcurveto
          249 564 -102 callsubr
        </CharString>
        <CharString name="Idieresis">
          -9 callsubr
          102 110 hstemhm
          19 105 -4 97 -5 105 hintmask 11101000
          50 hmoveto
          -46 callgsubr
          -491 vlineto
          -16 callgsubr
          220 736 rmoveto
          hintmask 11110100
          -97 callgsubr
          endchar
        </CharString>
        <CharString name="Idieresis.sc">
          -224 21 -21 626 110 hstemhm
          8 105 -6 93 1 105 hintmask 11011000
          53 hmoveto
          -43 callgsubr
          -31 callgsubr
          -369 vlineto
          -30 -1 -8 -58 -10 vhcurveto
          205 590 rmoveto
          -95 callgsubr
          -193 hmoveto
          hintmask 11101000
          -95 callgsubr
          endchar
        </CharString>
        <CharString name="Igrave">
          -9 callsubr
          241 -20 hstem
          120 97 vstem
          50 hmoveto
          -46 callgsubr
          -491 vlineto
          -16 callgsubr
          -29 803 -63 callsubr
        </CharString>
        <CharString name="Igrave.sc">
          -224 21 -21 765 -20 hstem
          107 93 vstem
          53 hmoveto
          -43 callgsubr
          -31 callgsubr
          -369 vlineto
          -30 -1 -8 -58 -10 vhcurveto
          -40 657 -63 callsubr
        </CharString>
        <CharString name="Imacron">
          -9 callsubr
          103 60 hstem
          120 97 vstem
          50 hmoveto
          -46 callgsubr
          -491 vlineto
          -16 callgsubr
          2 737 -37 callgsubr
        </CharString>
        <CharString name="Imacron.sc">
          -224 21 -21 650 60 hstem
          107 93 vstem
          53 hmoveto
          -43 callgsubr
          -31 callgsubr
          -369 vlineto
          -30 -1 -8 -58 -10 vhcurveto
          -16 614 -37 callgsubr
        </CharString>
        <CharString name="Iogonek">
          -194 31 callgsubr
          667 -20 hstemhm
          54 81 -15 97 hintmask 11101000
          50 hmoveto
          -46 callgsubr
          -491 vlineto
          -16 callgsubr
          218 -208 rmoveto
          -30 callgsubr
          hintmask 11110000
          -48 callgsubr
        </CharString>
        <CharString name="Iogonek.sc">
          -224 -191 -21 233 -21 537 -20 hstemhm
          42 67 -2 93 hintmask 11101000
          53 hmoveto
          -43 callgsubr
          -31 callgsubr
          -369 vlineto
          -30 -1 -8 -58 -10 vhcurveto
          175 -207 rmoveto
          -11 18 rlineto
          -9 -25 -12 0 -17 hhcurveto
          hintmask 11110000
          -28 -21 19 32 52 47 43 59 29 hvcurveto
          -11 20 rlineto
          -113 -35 -49 -65 -54 vvcurveto
          -58 41 -33 45 20 39 8 33 36 vhcurveto
          endchar
        </CharString>
        <CharString name="Itilde">
          -9 callsubr
          105 -34 callsubr
          120 97 hintmask 11010110
          50 hmoveto
          -46 callgsubr
          -491 vlineto
          -16 callgsubr
          287 852 -32 callsubr
          hintmask 11001010
          -77 callgsubr
          hintmask 11100110
          -56 callgsubr
        </CharString>
        <CharString name="Itilde.sc">
          -224 21 -21 629 -34 callsubr
          107 93 hintmask 10101100
          53 hmoveto
          -43 callgsubr
          -31 callgsubr
          -369 vlineto
          -30 -1 -8 -58 -10 vhcurveto
          261 706 -32 callsubr
          hintmask 10010100
          -77 callgsubr
          hintmask 11001100
          -56 callgsubr
        </CharString>
        <CharString name="J">
          -195 -119 85 727 -20 hstemhm
          122 97 vstemhm
          219 622 rmoveto
          8 5 9 15 3 vhcurveto
          72 12 -45 callsubr
          -265 hlineto
          -6 -39 rlineto
          74 -13 12 -10 -39 vvcurveto
          -434 -28 callsubr
          hintmask 11100000
          -49 callgsubr
          70 87 123 124 hvcurveto
          endchar
        </CharString>
        <CharString name="J.sc">
          -222 -81 -21 639 -20 hstem
          108 93 vstem
          201 477 rmoveto
          6 4 7 12 2 vhcurveto
          56 10 -3 35 rlineto
          -224 hlineto
          -5 -35 rlineto
          58 -10 9 -31 callgsubr
          -328 vlineto
          -69 -2 -63 -21 -15 vhcurveto
          -4 -6 -7 -2 -11 hhcurveto
          -13 -15 3 6 -23 hvcurveto
          -11 -17 -5 -20 -18 vvcurveto
          -8 0 -8 2 -6 vhcurveto
          -5 21 17 -2 33 hhcurveto
          60 74 100 101 hvcurveto
          endchar
        </CharString>
        <CharString name="Jcircumflex">
          -195 -119 85 727 -20 241 -20 hstemhm
          122 97 vstemhm
          219 622 rmoveto
          8 5 9 15 3 vhcurveto
          72 12 -45 callsubr
          -265 hlineto
          -6 -39 rlineto
          74 -13 12 -10 -39 vvcurveto
          -434 -28 callsubr
          hintmask 11110000
          -49 callgsubr
          70 87 123 124 hvcurveto
          92 621 -102 callsubr
        </CharString>
        <CharString name="K">
          121 0 39 614 40 hstem
          120 97 vstem
          50 hmoveto
          238 -64 callgsubr
          -55 -8 callsubr
          4 -1 10 12 vvcurveto
          186 vlineto
          34 36 243 -299 rlineto
          152 -1 callgsubr
          -19 13 -20 24 rlinecurve
          -241 292 222 236 15 15 18 26 45 2 rlinecurve
          -4 42 rlineto
          -212 hlineto
          -6 -40 rlineto
          56 -2 20 -7 -12 vvcurveto
          -7 -6 -8 -9 -9 vhcurveto
          -241 -256 rlineto
          264 -89 callsubr
          -491 vlineto
          -16 callgsubr
          endchar
        </CharString>
        <CharString name="K.sc">
          15 21 -21 501 36 hstem
          107 93 vstem
          200 472 rmoveto
          -105 callsubr
          -31 callgsubr
          -369 vlineto
          -30 -1 -8 -58 -10 vhcurveto
          5 -36 rlineto
          203 hlineto
          3 36 -43 9 rlineto
          -15 3 -1 8 9 vvcurveto
          146 vlineto
          32 34 165 -245 rlineto
          138 hlineto
          5 36 -41 3 -17 8 -14 21 rlinecurve
          -170 245 151 160 12 12 14 12 35 2 rlinecurve
          -3 38 rlineto
          -175 -71 callsubr
          44 -2 16 -6 -10 vvcurveto
          -5 -5 -6 -7 -7 vhcurveto
          -175 -185 rlineto
          endchar
        </CharString>
        <CharString name="L">
          27 0 52 641 -20 hstem
          120 97 vstem
          50 hmoveto
          -90 callgsubr
          endchar
        </CharString>
        <CharString name="L.sc">
          -75 0 46 491 -20 hstem
          107 93 vstem
          53 hmoveto
          -89 callgsubr
          endchar
        </CharString>
        <CharString name="Lacute">
          27 0 52 641 -20 241 -20 hstem
          120 97 vstem
          50 hmoveto
          -90 callgsubr
          296 824 -93 callsubr
        </CharString>
        <CharString name="Lacute.sc">
          -75 0 46 719 -20 hstem
          107 93 vstem
          53 hmoveto
          -89 callgsubr
          255 678 -93 callsubr
        </CharString>
        <CharString name="Lcaron">
          27 0 52 641 -20 101 -20 hstem
          120 97 vstem
          50 hmoveto
          -90 callgsubr
          406 735 rmoveto
          -85 -22 rlineto
          -50 callsubr
        </CharString>
        <CharString name="Lcaron.sc">
          -75 0 46 722 -20 hstem
          107 93 vstem
          53 hmoveto
          -89 callgsubr
          1 732 rmoveto
          -95 callsubr
        </CharString>
        <CharString name="Ldot.sc">
          -75 0 46 218 115 158 -20 hstem
          107 93 87 115 vstem
          53 hmoveto
          -89 callgsubr
          297 228 -23 callsubr
          -22 callgsubr
          endchar
        </CharString>
        <CharString name="Ldotaccent">
          27 0 52 282 115 244 -20 hstem
          120 97 181 115 vstem
          50 hmoveto
          -90 callgsubr
          411 295 -16 callsubr
        </CharString>
        <CharString name="Lslash">
          27 0 52 641 -20 hstem
          120 97 vstem
          62 215 rmoveto
          348 229 -28 43 -348 -229 rlineto
          16 -258 rmoveto
          -90 callgsubr
          endchar
        </CharString>
        <CharString name="Lslash.sc">
          -75 0 46 491 -20 hstem
          107 93 vstem
          52 165 rmoveto
          303 200 -28 43 -303 -200 rlineto
          29 -208 rmoveto
          -89 callgsubr
          endchar
        </CharString>
        <CharString name="M">
          382 6 callsubr
          120 67 509 97 vstem
          43 hmoveto
          233 -64 callgsubr
          -49 9 rlineto
          -34 6 -10 14 32 vvcurveto
          490 8 vlineto
          213 -570 rlineto
          72 hlineto
          211 568 rlineto
          8 hlineto
          -2 -10 -1 -9 -19 vvcurveto
          -457 vlineto
          -31 -10 -11 -68 -12 vhcurveto
          -35 callsubr
          247 -64 callgsubr
          -62 -8 callsubr
          4 -1 10 12 vvcurveto
          542 vlineto
          10 2 8 17 5 vhcurveto
          42 12 -45 callsubr
          -181 hlineto
          -195 -531 -2 -5 -2 -7 -1 -8 rlinecurve
          -10 hlineto
          -2 11 -3 8 -2 6 -192 526 rcurveline
          -210 hlineto
          -6 -39 rlineto
          74 -13 2 -10 -39 vvcurveto
          -491 vlineto
          -39 -9 -58 callgsubr
          endchar
        </CharString>
        <CharString name="M.sc">
          186 21 -21 537 -20 hstem
          99 47 379 91 vstem
          30 hmoveto
          169 hlineto
          3 36 -36 7 rlineto
          -26 5 -2 18 22 vvcurveto
          16 351 rlineto
          7 hlineto
          -6 1 -8 2 -8 vhcurveto
          137 -381 rlineto
          66 hlineto
          148 408 7 -2 rlineto
          -2 -8 -1 -6 -15 vvcurveto
          12 -329 rlineto
          -2 0 -2 -2 vvcurveto
          -24 -7 -9 -53 -9 vhcurveto
          5 -36 rlineto
          214 hlineto
          3 36 -49 9 rlineto
          -14 3 -1 8 9 vvcurveto
          -25 405 rlineto
          2 0 1 1 vvcurveto
          8 3 8 13 2 vhcurveto
          48 9 -3 36 rlineto
          -164 hlineto
          -135 -370 -2 -4 -1 -5 -1 -6 rlinecurve
          -8 hlineto
          -2 8 -2 7 -2 4 -130 366 rcurveline
          -162 hlineto
          -4 -36 52 -10 9 -4 -2 -34 rlinecurve
          -23 -373 -2 -31 -4 -2 -56 -11 rlinecurve
          endchar
        </CharString>
        <CharString name="N">
          244 6 callsubr
          120 67 403 67 vstem
          -92 callsubr
          endchar
        </CharString>
        <CharString name="N.sc">
          46 17 -21 25 -21 537 -82 callsubr
          endchar
        </CharString>
        <CharString name="Nacute">
          244 -36 callsubr
          241 -20 hstem
          120 67 403 67 vstem
          -92 callsubr
          496 824 -93 callsubr
        </CharString>
        <CharString name="Nacute.sc">
          46 17 -21 25 -21 765 -82 callsubr
          390 678 -93 callsubr
        </CharString>
        <CharString name="Ncaron">
          244 -36 callsubr
          244 -20 hstem
          120 67 403 67 vstem
          -92 callsubr
          191 878 rmoveto
          -95 callsubr
        </CharString>
        <CharString name="Ncaron.sc">
          46 17 -21 25 -21 768 -82 callsubr
          109 732 rmoveto
          -95 callsubr
        </CharString>
        <CharString name="Ntilde">
          244 -36 callsubr
          105 -34 callsubr
          120 67 403 67 hintmask 11010111
          -92 callsubr
          506 852 -64 callsubr
        </CharString>
        <CharString name="Ntilde.sc">
          46 17 -21 25 -21 629 -34 callsubr
          90 51 302 51 hintmask 01100111
          36 hmoveto
          190 hlineto
          3 36 -54 7 rlineto
          -27 3 -7 12 25 vvcurveto
          358 6 vlineto
          1 -8 3 -7 9 -14 rrcurveto
          hintmask 10100111
          281 -416 rlineto
          hintmask 01010111
          53 4 rlineto
          472 vlineto
          9 0 8 15 3 vhcurveto
          48 9 -3 36 rlineto
          -181 -71 callsubr
          67 -7 8 -11 -45 vvcurveto
          -278 -6 vlineto
          -1 7 -3 8 -9 13 -233 349 rcurveline
          -155 -93 callgsubr
          405 706 -32 callsubr
          hintmask 01001011
          -77 callgsubr
          hintmask 01100111
          -56 callgsubr
        </CharString>
        <CharString name="O">
          -15 callgsubr
          hstem
          35 111 419 111 vstem
          -103 callsubr
          endchar
        </CharString>
        <CharString name="O.sc">
          -12 callgsubr
          hstem
          33 103 310 103 vstem
          33 262 -105 callgsubr
          endchar
        </CharString>
        <CharString name="OE">
          462 0 52 -40 -21 329 53 276 44 9 -20 hstemhm
          35 111 375 97 hintmask 01110110
          348 -9 rmoveto
          hintmask 10110110
          59 85 9 446 hhcurveto
          0 callgsubr
          -86 -1 rcurveline
          269 157 vlineto
          10 3 -10 -73 21 hvcurveto
          36 6 rlineto
          -10 75 -4 11 112 vvcurveto
          -31 3 rlineto
          -63 -17 -7 -8 -8 hhcurveto
          -150 269 hlineto
          151 -3 28 -1 15 -1 18 -2 rlinecurve
          11 -1 4 -10 19 -94 57 7 rcurveline
          1 23 1 26 28 vvcurveto
          16 -2 38 -4 25 vhcurveto
          hintmask 01101110
          -453 -30 9 -71 hhcurveto
          -33 callgsubr
          -209 111 -138 202 hvcurveto
          16 53 rmoveto
          -146 -72 135 176 hvcurveto
          hintmask 10110110
          161 49 133 177 105 44 -12 -88 vhcurveto
          -399 vlineto
          -104 -62 -2 -95 vhcurveto
          endchar
        </CharString>
        <CharString name="Oacute">
          -15 callgsubr
          212 -20 hstem
          35 111 419 111 vstem
          -103 callsubr
          133 819 -93 callsubr
        </CharString>
        <CharString name="Oacute.sc">
          -12 callgsubr
          221 -20 hstem
          33 103 310 103 vstem
          33 262 -105 callgsubr
          128 680 -93 callsubr
        </CharString>
        <CharString name="Obreve">
          -15 callgsubr
          58 -2 callsubr
          35 111 419 111 hintmask 11011100
          -103 callsubr
          114 856 rmoveto
          hintmask 11101100
          -28 callgsubr
          hintmask 11011100
          -83 callsubr
        </CharString>
        <CharString name="Obreve.sc">
          -12 callgsubr
          67 -2 callsubr
          33 103 310 103 hintmask 11011100
          33 262 -105 callgsubr
          103 717 rmoveto
          hintmask 11101100
          -28 callgsubr
          hintmask 11011100
          -83 callsubr
        </CharString>
        <CharString name="Ocircumflex">
          -15 callgsubr
          212 -20 hstem
          35 111 419 111 vstem
          -103 callsubr
          130 705 -102 callsubr
        </CharString>
        <CharString name="Ocircumflex.sc">
          -12 callgsubr
          221 -20 hstem
          33 103 310 103 vstem
          33 262 -105 callgsubr
          129 566 -102 callsubr
        </CharString>
        <CharString name="Odieresis">
          -15 callgsubr
          73 110 hstem
          35 111 56 105 88 105 65 111 vstem
          -103 callsubr
          83 731 rmoveto
          -97 callgsubr
          endchar
        </CharString>
        <CharString name="Odieresis.sc">
          -12 callgsubr
          82 110 hstem
          33 103 8 105 88 105 4 103 vstem
          33 262 -105 callgsubr
          91 592 rmoveto
          -97 callgsubr
          endchar
        </CharString>
        <CharString name="Ograve">
          -15 callgsubr
          212 -20 hstem
          35 111 419 111 vstem
          -103 callsubr
          -138 798 -63 callsubr
        </CharString>
        <CharString name="Ograve.sc">
          -12 callgsubr
          221 -20 hstem
          33 103 310 103 vstem
          33 262 -105 callgsubr
          -157 659 -63 callsubr
        </CharString>
        <CharString name="Ohungarumlaut">
          -15 callgsubr
          213 -20 hstem
          35 111 419 111 vstem
          -103 callsubr
          256 841 -63 callgsubr
        </CharString>
        <CharString name="Ohungarumlaut.sc">
          -12 callgsubr
          222 -20 hstem
          33 103 310 103 vstem
          33 262 -105 callgsubr
          183 702 -63 callgsubr
        </CharString>
        <CharString name="Omacron">
          180 217 134 79 197 endchar
        </CharString>
        <CharString name="Omacron.sc">
          -12 callgsubr
          106 60 hstem
          33 103 310 103 vstem
          33 262 -105 callgsubr
          -139 616 -37 callgsubr
        </CharString>
        <CharString name="Omega">
          187 0 77 572 53 hstem
          58 111 375 111 vstem
          632 171 rmoveto
          -37 -81 -6 -8 -13 -1 rrcurveto
          -1 -7 -28 -3 -29 hhcurveto
          -31 hlineto
          -3 7 7 3 12 6 12 13 rlinecurve
          104 113 42 104 112 vvcurveto
          161 -104 106 -187 -193 -113 -117 -173 -104 38 -94 111 -111 vhcurveto
          10 -10 11 -6 8 -3 -3 -7 rcurveline
          -26 hlineto
          -28 -29 3 1 -7 hvcurveto
          -13 1 -6 8 -38 81 -51 -5 rcurveline
          7 -55 15 -60 22 -51 rrcurveto
          237 hlineto
          10 32 rlineto
          -73 113 -84 101 157 vvcurveto
          124 46 122 133 132 64 -111 -142 -144 -69 -114 -82 -106 vhcurveto
          10 -32 rlineto
          236 hlineto
          22 48 16 61 6 57 rrcurveto
          endchar
        </CharString>
        <CharString name="Oslash">
          178 -59 -21 71 53 605 53 70 -20 hstem
          35 111 419 111 vstem
          348 -9 rmoveto
          208 120 146 217 131 -44 104 -83 59 hvcurveto
          54 104 -55 20 -50 -96 rlineto
          17 -39 -45 9 -51 hhcurveto
          -33 callgsubr
          -136 47 -106 88 -58 hvcurveto
          -50 -98 54 -20 48 92 rlineto
          -13 37 42 -8 47 hhcurveto
          -202 364 rmoveto
          149 51 145 150 47 39 -14 -25 31 vhcurveto
          -253 -492 rlineto
          -43 56 -22 84 97 vvcurveto
          218 -311 rmoveto
          -43 -36 12 20 -30 hvcurveto
          251 489 rlineto
          39 -57 20 -80 -91 vvcurveto
          -149 -51 -144 -150 vhcurveto
          endchar
        </CharString>
        <CharString name="Oslash.sc">
          51 -45 -21 59 41 469 41 63 -20 hstem
          33 103 310 103 vstem
          436 607 rmoveto
          -334 -653 54 -20 335 653 rlineto
          -458 -325 -105 callgsubr
          endchar
        </CharString>
        <CharString name="Otilde">
          -15 callgsubr
          76 -34 callsubr
          35 111 419 111 hintmask 11010111
          -103 callsubr
          151 847 -64 callsubr
        </CharString>
        <CharString name="Otilde.sc">
          -12 callgsubr
          85 -34 callsubr
          33 103 310 103 hintmask 11010111
          33 262 -105 callgsubr
          155 708 -64 callsubr
        </CharString>
        <CharString name="P">
          28 21 -21 268 53 319 52 callgsubr
          217 107 vstem
          50 hmoveto
          284 -64 callgsubr
          -101 -8 callsubr
          2 -1 12 12 vvcurveto
          191 52 vlineto
          186 86 109 127 110 -66 79 -146 hvcurveto
          -279 hlineto
          -6 -39 rlineto
          74 -13 2 -10 -39 vvcurveto
          -491 vlineto
          -16 callgsubr
          173 282 rmoveto
          295 vlineto
          12 1 12 19 vhcurveto
          62 hlineto
          53 82 -23 -129 -139 -95 -28 -78 hvcurveto
          endchar
        </CharString>
        <CharString name="P.sc">
          -40 21 -21 205 47 238 47 hstem
          107 93 161 102 vstem
          48 501 rmoveto
          -91 callsubr
          5 -36 rlineto
          239 hlineto
          3 36 -79 9 rlineto
          -15 2 -1 9 9 vvcurveto
          140 48 vlineto
          145 70 86 100 85 -54 61 -122 hvcurveto
          -234 hlineto
          211 -47 rmoveto
          38 59 -13 -96 -108 -75 -21 -52 hvcurveto
          -34 220 hlineto
          9 1 9 15 vhcurveto
          endchar
        </CharString>
        <CharString name="Q">
          180 -152 78 -78 196 605 53 hstemhm
          35 111 419 111 hintmask 10111000
          312 -7 rmoveto
          -9 105 63 -136 98 hhcurveto
          46 37 30 27 33 hvcurveto
          -23 36 rlineto
          -8 -21 -18 -7 -19 hhcurveto
          -48 -49 63 17 -49 hvcurveto
          4 vlineto
          134 47 75 131 176 vvcurveto
          203 -111 135 -202 -33 callgsubr
          -197 97 -133 180 -15 vhcurveto
          hintmask 01111000
          52 51 rmoveto
          -146 -72 135 176 148 51 146 150 146 72 -132 -170 -155 -51 -148 -150 hvcurveto
          endchar
        </CharString>
        <CharString name="Q.sc">
          51 -118 64 1 87 -36 36 469 41 hstemhm
          33 103 310 103 hintmask 11011100
          33 262 rmoveto
          -143 70 -94 108 -24 vhcurveto
          -14 -17 -21 -30 -16 -27 26 -18 rcurveline
          20 19 16 18 24 hhcurveto
          11 15 -4 -4 11 hvcurveto
          123 -44 rlineto
          -11 30 13 -2 9 hhcurveto
          30 21 21 60 36 hvcurveto
          -26 19 rlineto
          -26 -24 -15 -10 -18 hhcurveto
          -34 -72 31 17 -39 hvcurveto
          hintmask 10111100
          1 4 rlineto
          140 7 92 109 168 vvcurveto
          157 -90 105 -162 -167 -97 -114 -168 vhcurveto
          265 -228 rmoveto
          -109 -53 105 136 115 38 113 111 108 53 -102 -132 -120 -37 -115 -111 hvcurveto
          endchar
        </CharString>
        <CharString name="R">
          101 0 39 265 51 285 52 callgsubr
          215 107 vstem
          -94 callsubr
          endchar
        </CharString>
        <CharString name="R.sc">
          -1 21 -21 490 47 -82 callgsubr
          endchar
        </CharString>
        <CharString name="Racute">
          101 0 39 265 51 285 53 42 callgsubr
          97 215 107 vstem
          -94 callsubr
          168 508 -93 callsubr
        </CharString>
        <CharString name="Racute.sc">
          -1 21 -21 490 47 228 -20 -82 callgsubr
          173 436 -93 callsubr
        </CharString>
        <CharString name="Rcaron">
          101 0 39 265 51 285 53 224 -20 hstem
          120 97 215 107 vstem
          -94 callsubr
          -120 562 rmoveto
          -95 callsubr
        </CharString>
        <CharString name="Rcaron.sc">
          -1 21 -21 490 47 231 -20 -82 callgsubr
          -126 490 rmoveto
          -95 callsubr
        </CharString>
        <CharString name="Rcommaaccent">
          101 -189 -21 210 39 265 51 285 53 hstemhm
          120 97 80 97 -74 74 38 107 hintmask 11111101
          -94 callsubr
          29 -565 -24 callsubr
          hintmask 11111011
          -11 callgsubr
        </CharString>
        <CharString name="S">
          -8 -9 56 599 56 hstem
          48 83 255 -106 callsubr
          endchar
        </CharString>
        <CharString name="S.sc">
          -103 -7 49 453 49 hstem
          43 84 174 91 vstem
          -103 callgsubr
          endchar
        </CharString>
        <CharString name="Sacute">
          -8 -9 56 599 56 212 -20 hstem
          48 83 255 -106 callsubr
          -17 188 -93 callsubr
        </CharString>
        <CharString name="Sacute.sc">
          -103 -7 49 453 49 221 -20 hstem
          43 84 174 91 vstem
          -103 callgsubr
          -24 200 -93 callsubr
        </CharString>
        <CharString name="Scaron">
          -8 -9 56 599 56 215 -20 hstem
          48 83 255 -106 callsubr
          -303 242 rmoveto
          -95 callsubr
        </CharString>
        <CharString name="Scaron.sc">
          -103 -7 49 453 49 224 -20 hstem
          43 84 174 91 vstem
          -103 callgsubr
          -293 254 rmoveto
          -95 callsubr
        </CharString>
        <CharString name="Scedilla">
          -8 30 callsubr
          36 56 599 56 hstem
          48 83 166 82 7 -106 callsubr
          -244 -764 -78 callgsubr
          -21 -58 -7 hvcurveto
          endchar
        </CharString>
        <CharString name="Scedilla.sc">
          -103 -217 172 38 49 453 49 hstemhm
          43 84 117 82 -25 91 hintmask 11110100
          -103 callgsubr
          -218 -603 rmoveto
          55 3 32 113 -49 13 rlineto
          -33 -257 rmoveto
          hintmask 11111000
          111 6 62 49 53 vvcurveto
          39 -31 25 -54 -13 -16 -2 -5 -16 vhcurveto
          -48 -37 9 -11 rlineto
          6 11 17 4 13 hhcurveto
          31 15 -18 -20 -30 -37 -20 -58 -8 hvcurveto
          endchar
        </CharString>
        <CharString name="Scircumflex">
          -8 -9 56 599 56 212 -20 hstem
          48 83 255 -106 callsubr
          -33 74 -102 callsubr
        </CharString>
        <CharString name="Scircumflex.sc">
          -103 -7 49 453 49 221 -20 hstem
          43 84 174 91 vstem
          -103 callgsubr
          -15 86 -102 callsubr
        </CharString>
        <CharString name="T">
          46 21 -21 515 178 -52 52 -80 callsubr
          endchar
        </CharString>
        <CharString name="T.sc">
          -64 21 -21 492 45 -76 callsubr
          endchar
        </CharString>
        <CharString name="Tbar">
          46 21 -21 344 53 118 178 -52 52 -80 callsubr
          -86 305 rmoveto
          451 53 -451 hlineto
          endchar
        </CharString>
        <CharString name="Tbar.sc">
          -64 21 -21 237 53 202 45 -76 callsubr
          -92 201 rmoveto
          414 53 -414 hlineto
          endchar
        </CharString>
        <CharString name="Tcaron">
          46 21 -21 515 178 -52 52 224 -20 -80 callsubr
          878 vmoveto
          -95 callsubr
        </CharString>
        <CharString name="Tcaron.sc">
          -64 21 -21 492 45 231 -20 -76 callsubr
          -22 732 rmoveto
          -95 callsubr
        </CharString>
        <CharString name="Thorn">
          36 0 215 -53 53 289 53 -53 189 hstemhm
          120 97 221 111 hintmask 10101100
          120 101 rmoveto
          -35 callgsubr
          270 -64 callgsubr
          -87 -8 callsubr
          2 -1 12 12 vvcurveto
          hintmask 01101100
          85 42 vlineto
          195 95 99 116 105 -70 75 -155 hvcurveto
          -107 59 hlineto
          -81 callsubr
          rlineto
          hintmask 10011100
          -45 callsubr
          -245 hlineto
          -6 -39 rlineto
          74 -13 2 -10 -39 vvcurveto
          174 -88 rmoveto
          57 87 -23 -117 -125 -117 -24 -80 hvcurveto
          -24 267 hlineto
          11 1 11 19 vhcurveto
          endchar
        </CharString>
        <CharString name="U">
          -15 callsubr
          hstem
          115 97 362 67 vstem
          574 573 rmoveto
          -324 vlineto
          -91 -45 -100 -140 -128 -49 75 131 vhcurveto
          352 -89 callsubr
          -343 vlineto
          -176 92 -82 166 184 84 108 158 vhcurveto
          359 vlineto
          12 0 10 20 44 callsubr
          -45 callsubr
          -235 hlineto
          -6 -39 rlineto
          -8 callgsubr
          -57 vvcurveto
          endchar
        </CharString>
        <CharString name="U.sc">
          72 -7 52 492 -20 hstem
          104 93 255 52 vstem
          -107 callsubr
          endchar
        </CharString>
        <CharString name="Uacute">
          -15 callsubr
          241 -20 hstem
          115 97 362 67 vstem
          574 573 rmoveto
          -324 vlineto
          -91 -45 -100 -140 -128 -49 75 131 vhcurveto
          352 -89 callsubr
          -343 vlineto
          -176 92 -82 166 184 84 108 158 vhcurveto
          359 vlineto
          12 0 10 20 44 callsubr
          -45 callsubr
          -235 hlineto
          -6 -39 rlineto
          -8 callgsubr
          -57 vvcurveto
          -19 290 -93 callsubr
        </CharString>
        <CharString name="Uacute.sc">
          72 -7 52 720 -20 hstem
          104 93 255 52 vstem
          -107 callsubr
          -7 275 -93 callsubr
        </CharString>
        <CharString name="Ubreve">
          -15 callsubr
          87 -2 callsubr
          115 97 362 67 hintmask 11011100
          574 573 rmoveto
          -324 vlineto
          -91 -45 -100 -140 -128 -49 75 131 vhcurveto
          352 -89 callsubr
          -343 vlineto
          -176 92 -82 166 184 84 108 158 vhcurveto
          359 vlineto
          12 0 10 20 44 callsubr
          -45 callsubr
          -235 hlineto
          -6 -39 rlineto
          -8 callgsubr
          -57 vvcurveto
          -83 327 rmoveto
          hintmask 11101100
          -28 callgsubr
          hintmask 11011100
          -83 callsubr
        </CharString>
        <CharString name="Ubreve.sc">
          72 -7 52 566 -2 callsubr
          104 93 255 52 hintmask 10111000
          -107 callsubr
          -44 312 rmoveto
          hintmask 11011000
          -28 callgsubr
          hintmask 10111000
          -83 callsubr
        </CharString>
        <CharString name="Ucircumflex">
          -15 callsubr
          241 -20 hstem
          115 97 362 67 vstem
          574 573 rmoveto
          -324 vlineto
          -91 -45 -100 -140 -128 -49 75 131 vhcurveto
          352 -89 callsubr
          -343 vlineto
          -176 92 -82 166 184 84 108 158 vhcurveto
          359 vlineto
          12 0 10 20 44 callsubr
          -45 callsubr
          -235 hlineto
          -6 -39 rlineto
          -8 callgsubr
          -57 vvcurveto
          -58 176 -102 callsubr
        </CharString>
        <CharString name="Ucircumflex.sc">
          72 -7 52 720 -20 hstem
          104 93 255 52 vstem
          -107 callsubr
          -7 161 -102 callsubr
        </CharString>
        <CharString name="Udieresis">
          -15 callsubr
          102 110 hstem
          115 97 20 105 88 105 44 67 vstem
          574 573 rmoveto
          -324 vlineto
          -91 -45 -100 -140 -128 -49 75 131 vhcurveto
          352 -89 callsubr
          -343 vlineto
          -176 92 -82 166 184 84 108 158 vhcurveto
          359 vlineto
          12 0 10 20 44 callsubr
          -45 callsubr
          -235 hlineto
          -6 -39 rlineto
          -8 callgsubr
          -57 vvcurveto
          -97 202 rmoveto
          -97 callgsubr
          endchar
        </CharString>
        <CharString name="Udieresis.sc">
          72 -7 52 581 110 hstemhm
          104 93 -31 105 88 105 -12 52 hintmask 11100100
          -107 callsubr
          -41 187 rmoveto
          hintmask 11011000
          -97 callgsubr
          endchar
        </CharString>
        <CharString name="Ugrave">
          -15 callsubr
          241 -20 hstem
          115 97 362 67 vstem
          574 573 rmoveto
          -324 vlineto
          -91 -45 -100 -140 -128 -49 75 131 vhcurveto
          352 -89 callsubr
          -343 vlineto
          -176 92 -82 166 184 84 108 158 vhcurveto
          359 vlineto
          12 0 10 20 44 callsubr
          -45 callsubr
          -235 hlineto
          -6 -39 rlineto
          -8 callgsubr
          -57 vvcurveto
          -356 269 -63 callsubr
        </CharString>
        <CharString name="Ugrave.sc">
          72 -7 52 720 -20 hstem
          104 93 255 52 vstem
          -107 callsubr
          -296 254 -63 callsubr
        </CharString>
        <CharString name="Uhungarumlaut">
          -15 callsubr
          242 -20 hstem
          115 97 362 67 vstem
          574 573 rmoveto
          -324 vlineto
          -91 -45 -100 -140 -128 -49 75 131 vhcurveto
          352 -89 callsubr
          -343 vlineto
          -176 92 -82 166 184 84 108 158 vhcurveto
          359 vlineto
          12 0 10 20 44 callsubr
          -45 callsubr
          -235 hlineto
          -6 -39 rlineto
          -8 callgsubr
          -57 vvcurveto
          69 312 -63 callgsubr
        </CharString>
        <CharString name="Uhungarumlaut.sc">
          72 -7 52 721 -20 hstem
          104 93 255 52 vstem
          -107 callsubr
          65 297 -63 callgsubr
        </CharString>
        <CharString name="Umacron">
          205 229 134 85 197 endchar
        </CharString>
        <CharString name="Umacron.sc">
          72 -7 52 605 60 hstem
          104 93 255 52 vstem
          -107 callsubr
          -270 211 -37 callgsubr
        </CharString>
        <CharString name="Uogonek">
          205 -215 56 150 54 callgsubr
          hstem
          115 97 74 81 207 67 vstem
          473 31 rmoveto
          -133 -32 -54 -57 -61 vvcurveto
          -57 48 -39 50 24 45 9 37 41 vhcurveto
          -30 callgsubr
          -31 -24 21 35 46 39 39 71 23 hvcurveto
          97 568 rmoveto
          -324 vlineto
          -91 -45 -100 -140 -128 -49 75 131 vhcurveto
          352 -89 callsubr
          -343 vlineto
          -176 92 -82 166 184 84 108 158 vhcurveto
          359 vlineto
          12 0 10 20 44 callsubr
          -45 callsubr
          -235 hlineto
          -6 -39 rlineto
          -8 callgsubr
          -57 vvcurveto
          endchar
        </CharString>
        <CharString name="Uogonek.sc">
          72 -191 -21 205 52 492 -20 hstem
          104 93 35 67 153 52 vstem
          -107 callsubr
          -39 -610 -62 callsubr
        </CharString>
        <CharString name="Uring">
          -15 callsubr
          66 43 94 43 hstem
          115 97 63 49 98 50 102 67 vstem
          574 573 rmoveto
          -324 vlineto
          -91 -45 -100 -140 -128 -49 75 131 vhcurveto
          352 -89 callsubr
          -343 vlineto
          -176 92 -82 166 184 84 108 158 vhcurveto
          359 vlineto
          12 0 10 20 44 callsubr
          -45 callsubr
          -235 hlineto
          -6 -39 rlineto
          -8 callgsubr
          -57 vvcurveto
          -203 166 -69 callgsubr
        </CharString>
        <CharString name="Uring.sc">
          72 -7 52 545 43 94 43 hstem
          104 93 18 49 98 50 40 52 vstem
          -107 callsubr
          -141 151 -69 callgsubr
        </CharString>
        <CharString name="Utilde">
          -15 callsubr
          105 -34 callsubr
          115 97 362 67 hintmask 11010111
          574 573 rmoveto
          -324 vlineto
          -91 -45 -100 -140 -128 -49 75 131 vhcurveto
          352 -89 callsubr
          -343 vlineto
          -176 92 -82 166 184 84 108 158 vhcurveto
          359 vlineto
          12 0 10 20 44 callsubr
          -45 callsubr
          -235 hlineto
          -6 -39 rlineto
          -8 callgsubr
          -57 vvcurveto
          -34 318 -64 callsubr
        </CharString>
        <CharString name="Utilde.sc">
          72 -7 52 584 -34 callsubr
          104 93 255 52 hintmask 10101110
          -107 callsubr
          7 303 -32 callsubr
          hintmask 10010110
          -77 callgsubr
          hintmask 11001110
          -56 callgsubr
        </CharString>
        <CharString name="V">
          124 12 -21 702 -20 hstem
          293 -9 rmoveto
          69 hlineto
          220 604 12 34 3 10 58 12 rlinecurve
          -4 42 rlineto
          -197 hlineto
          -6 -40 rlineto
          46 -9 27 -8 -16 vvcurveto
          -9 -3 -11 -11 -31 vhcurveto
          -156 -445 rlineto
          -10 hlineto
          4 -4 16 -5 14 vhcurveto
          -154 453 rlineto
          -2 6 -2 7 2 vvcurveto
          3 2 3 5 1 vhcurveto
          71 19 -4 41 rlineto
          -238 hlineto
          -7 -40 46 -11 10 -2 11 -30 rlinecurve
          endchar
        </CharString>
        <CharString name="V.sc">
          -7 14 -21 544 -20 hstem
          230 -7 rmoveto
          63 hlineto
          169 463 9 26 5 8 45 9 rlinecurve
          -3 38 rlineto
          -157 hlineto
          -4 -36 rlineto
          36 -7 21 -7 -12 vvcurveto
          -7 -3 -9 -8 -24 vhcurveto
          -115 -324 rlineto
          -8 hlineto
          3 -3 13 -4 11 vhcurveto
          -113 330 rlineto
          -2 5 -2 5 2 vvcurveto
          2 2 2 4 1 vhcurveto
          55 15 -3 37 rlineto
          -203 -47 callsubr
          36 -9 7 -2 9 -23 rlinecurve
          endchar
        </CharString>
        <CharString name="W">
          399 12 -21 702 -74 callsubr
          endchar
        </CharString>
        <CharString name="W.sc">
          219 14 -21 544 -73 callsubr
          endchar
        </CharString>
        <CharString name="Wcircumflex">
          399 12 -21 702 -20 241 -74 callsubr
          121 394 -102 callsubr
        </CharString>
        <CharString name="Wcircumflex.sc">
          219 14 -21 772 -73 callsubr
          123 343 -102 callsubr
        </CharString>
        <CharString name="X">
          108 6 callsubr
          21 hmoveto
          194 hlineto
          4 41 -47 14 rlineto
          -7 2 -3 4 5 vvcurveto
          4 2 6 6 8 vhcurveto
          138 202 rlineto
          10 hlineto
          -4 2 -14 8 -12 vhcurveto
          112 -166 rlineto
          5 -8 2 -7 -5 vvcurveto
          -20 -32 -5 -27 -5 vhcurveto
          6 -40 rlineto
          241 hlineto
          4 42 -43 8 -16 5 -9 13 rlinecurve
          -195 290 165 241 21 30 0 10 58 12 rlinecurve
          -4 42 rlineto
          -195 hlineto
          -6 -40 rlineto
          45 -10 16 -6 -15 vvcurveto
          -10 -10 -15 -15 -21 vhcurveto
          -111 -162 rlineto
          -10 hlineto
          4 -2 11 -8 12 vhcurveto
          -114 170 rlineto
          -4 5 -3 6 4 vvcurveto
          4 2 3 5 1 vhcurveto
          67 18 -4 41 rlineto
          -238 hlineto
          -7 -40 46 -11 4 -5 18 -27 rlinecurve
          179 -269 -177 -260 -17 -25 -12 -3 -51 -13 rlinecurve
          endchar
        </CharString>
        <CharString name="X.sc">
          -14 21 -21 537 -20 hstem
          15 hmoveto
          152 hlineto
          3 37 -44 12 rlineto
          -5 2 -2 2 4 vvcurveto
          3 2 4 4 7 vhcurveto
          110 155 rlineto
          8 hlineto
          -5 4 -12 4 -6 vhcurveto
          86 -128 rlineto
          4 -6 2 -5 -4 vvcurveto
          -16 -25 -3 -22 -4 vhcurveto
          5 -37 rlineto
          203 hlineto
          3 38 -33 6 -7 4 -7 10 rlinecurve
          -157 232 124 167 16 23 3 10 45 9 rlinecurve
          -3 38 rlineto
          -159 -71 callsubr
          35 -8 16 -4 -12 vvcurveto
          -7 -8 -12 -12 -17 vhcurveto
          -82 -117 rlineto
          -7 hlineto
          4 -3 13 -5 7 vhcurveto
          -81 120 rlineto
          -3 4 -3 4 4 vvcurveto
          2 2 3 4 1 vhcurveto
          52 14 -3 37 rlineto
          -207 hlineto
          -6 -36 36 -9 3 -4 14 -21 rlinecurve
          138 -205 -138 -192 -14 -19 -3 -4 -39 -10 rlinecurve
          endchar
        </CharString>
        <CharString name="Y">
          67 21 -21 693 -85 callsubr
          endchar
        </CharString>
        <CharString name="Y.sc">
          -20 21 -21 537 -20 hstem
          213 93 vstem
          -96 callsubr
          endchar
        </CharString>
        <CharString name="Yacute">
          67 -36 callsubr
          241 -85 callsubr
          56 287 -93 callsubr
        </CharString>
        <CharString name="Yacute.sc">
          -20 21 -21 765 -20 hstem
          213 93 vstem
          -96 callsubr
          45 273 -93 callsubr
        </CharString>
        <CharString name="Ycircumflex">
          67 -36 callsubr
          241 -85 callsubr
          22 173 -102 callsubr
        </CharString>
        <CharString name="Ycircumflex.sc">
          -20 21 -21 765 -20 hstem
          213 93 vstem
          -96 callsubr
          26 159 -102 callsubr
        </CharString>
        <CharString name="Ydieresis">
          67 -36 callsubr
          102 110 hstemhm
          169 105 -20 97 11 105 hintmask 11101100
          319 361 rmoveto
          -10 hlineto
          4 -1 10 -9 15 vhcurveto
          -115 221 rlineto
          -3 5 -4 6 5 vvcurveto
          3 2 3 5 1 vhcurveto
          67 18 -4 41 rlineto
          -235 hlineto
          -7 -40 46 -11 5 -3 18 -29 rlinecurve
          180 -331 rlineto
          -178 30 callgsubr
          hintmask 11110100
          -35 callsubr
          275 -64 callgsubr
          -77 12 rlineto
          hintmask 11101100
          -61 callgsubr
          -16 199 rmoveto
          -95 callgsubr
          -193 hmoveto
          hintmask 11110100
          -95 callgsubr
          endchar
        </CharString>
        <CharString name="Ydieresis.sc">
          -20 21 -21 626 110 hstemhm
          121 105 -13 93 8 105 hintmask 11011000
          -96 callsubr
          -7 185 rmoveto
          -95 callgsubr
          -193 hmoveto
          hintmask 11101000
          -95 callgsubr
          endchar
        </CharString>
        <CharString name="Z">
          76 0 52 590 51 hstem
          120 510 rmoveto
          20 95 10 30 11 1 rrcurveto
          3 21 117 3 41 hhcurveto
          96 hlineto
          2 -7 -9 -4 -7 -10 -6 -9 rlinecurve
          -381 -586 rlineto
          -26 517 vlineto
          5 39 6 57 61 vvcurveto
          17 0 17 -1 17 vhcurveto
          -55 5 -35 -132 -11 -19 -10 -3 rlinecurve
          -2 -7 4 -5 -127 hhcurveto
          -150 hlineto
          -2 6 9 4 7 10 6 9 rlinecurve
          382 586 rlineto
          26 -509 vlineto
          -6 -33 -3 -50 -21 vvcurveto
          -27 1 -24 1 -21 vhcurveto
          endchar
        </CharString>
        <CharString name="Z.sc">
          37 callsubr
          -79 callgsubr
          endchar
        </CharString>
        <CharString name="Zacute">
          76 0 52 590 51 42 callgsubr
          510 rmoveto
          20 95 10 30 11 1 rrcurveto
          3 21 117 3 41 hhcurveto
          96 hlineto
          2 -7 -9 -4 -7 -10 -6 -9 rlinecurve
          -381 -586 rlineto
          -26 517 vlineto
          5 39 6 57 61 vvcurveto
          17 0 17 -1 17 vhcurveto
          -55 5 -35 -132 -11 -19 -10 -3 rlinecurve
          -2 -7 4 -5 -127 hhcurveto
          -150 hlineto
          -2 6 9 4 7 10 6 9 rlinecurve
          382 586 rlineto
          26 -509 vlineto
          -6 -33 -3 -50 -21 vvcurveto
          -27 1 -24 1 -21 vhcurveto
          398 346 -93 callsubr
        </CharString>
        <CharString name="Zacute.sc">
          37 callsubr
          228 -20 -79 callgsubr
          338 319 -93 callsubr
        </CharString>
        <CharString name="Zcaron">
          76 0 52 590 51 224 -20 hstem
          120 510 rmoveto
          20 95 10 30 11 1 rrcurveto
          3 21 117 3 41 hhcurveto
          96 hlineto
          2 -7 -9 -4 -7 -10 -6 -9 rlinecurve
          -381 -586 rlineto
          -26 517 vlineto
          5 39 6 57 61 vvcurveto
          17 0 17 -1 17 vhcurveto
          -55 5 -35 -132 -11 -19 -10 -3 rlinecurve
          -2 -7 4 -5 -127 hhcurveto
          -150 hlineto
          -2 6 9 4 7 10 6 9 rlinecurve
          382 586 rlineto
          26 -509 vlineto
          -6 -33 -3 -50 -21 vvcurveto
          -27 1 -24 1 -21 vhcurveto
          128 400 rmoveto
          -95 callsubr
        </CharString>
        <CharString name="Zcaron.sc">
          37 callsubr
          231 -20 -79 callgsubr
          44 373 rmoveto
          -95 callsubr
        </CharString>
        <CharString name="_TT">
          560 21 -21 515 178 -52 52 hstem
          240 97 417 97 vstem
          1075 693 rmoveto
          -1059 hlineto
          -4 -33 -5 -48 -52 vvcurveto
          -14 0 -14 1 -15 vhcurveto
          51 -4 20 111 10 6 10 4 rlinecurve
          7 3 3 2 131 2 rrcurveto
          28 callsubr
          -39 callsubr
          417 28 callsubr
          -39 callsubr
          vlineto
          131 -2 3 -2 7 -3 10 -4 10 -6 20 -111 51 4 rcurveline
          1 15 0 14 14 vvcurveto
          52 -5 48 -4 33 vhcurveto
          endchar
        </CharString>
        <CharString name="_em">
          469 -201 -21 1000 -20 hstem
          -222 vmoveto
          1000 1000 -1000 hlineto
          endchar
        </CharString>
        <CharString name="_f_iacute">
          129 21 9 callgsubr
          256 90 hintmask 11011100
          403 749 rmoveto
          8 -21 -48 15 -45 hhcurveto
          -157 -12 3 callgsubr
          -35 callsubr
          -69 callsubr
          339 vlineto
          6 67 90 6 30 32 callsubr
          -287 vlineto
          -85 callgsubr
          -35 callsubr
          -27 callgsubr
          hintmask 10111100
          -11 10 rlineto
          hintmask 11011100
          -24 -78 -5 -115 hhcurveto
          -118 hlineto
          148 15 98 36 callgsubr
          53 5 rcurveline
          9 28 4 44 39 vvcurveto
          248 -14 -25 callgsubr
          endchar
        </CharString>
        <CharString name="_fb">
          363 0 48 -36 -21 425 72 234 50 hstemhm
          115 90 228 90 238 97 hintmask 10111110
          51 hmoveto
          237 hlineto
          4 39 -65 12 rlineto
          -20 3 -2 6 -55 callgsubr
          21 callgsubr
          -643 vlineto
          hintmask 01111110
          22 callgsubr
          -63 -50 -36 -39 -30 hvcurveto
          -10 -13 25 callsubr
          -27 -47 4 -28 hhcurveto
          -215 -61 -144 -133 -11 hvcurveto
          -1 -18 -2 -12 -19 -5 -49 -12 rcurveline
          4 -43 rlineto
          65 -309 hlineto
          -85 callgsubr
          hintmask 10111110
          478 45 rmoveto
          252 vlineto
          -13 callsubr
          -19 -61 -22 -26 hvcurveto
          -23 -20 -33 -4 -28 34 callsubr
        </CharString>
        <CharString name="_ffb">
          699 -9 57 -27 -21 405 61 -61 83 201 53 -20 50 -14 callgsubr
          228 90 238 97 hintmask 1001011111000000
          769 34 rmoveto
          22 callgsubr
          -65 -48 -36 -39 -30 hvcurveto
          -10 -13 25 callsubr
          -27 -47 4 -28 hhcurveto
          -214 -56 -143 -132 -17 hvcurveto
          hintmask 0110101111000000
          -17 -1 -8 -14 -23 hhcurveto
          -216 hlineto
          118 23 105 67 12 23 -7 -4 6 vhcurveto
          6 -5 4 -6 -101 callsubr
          332 -9 callgsubr
          -314 vlineto
          -85 callgsubr
          -35 callsubr
          237 -64 callgsubr
          -67 12 rlineto
          -20 4 0 5 -55 callgsubr
          hintmask 1010011111000000
          21 callgsubr
          90 -341 rmoveto
          -13 callsubr
          -19 -61 -22 -26 hvcurveto
          -23 -21 -32 -4 -28 34 callsubr
        </CharString>
        <CharString name="_ffh">
          751 21 -21 405 61 -61 83 201 53 -20 50 -14 callgsubr
          249 90 220 90 hintmask 1100111110000000
          880 481 rmoveto
          256 0 callsubr
          hintmask 1101011110000000
          118 23 105 67 12 23 -7 -4 6 vhcurveto
          6 -5 4 -6 -101 callsubr
          332 -9 callgsubr
          -314 vlineto
          -85 callgsubr
          -35 callsubr
          237 -64 callgsubr
          -67 12 rlineto
          -20 5 0 4 -55 callgsubr
          hintmask 1010111110000000
          -59 callgsubr
          -20 5 0 4 12 vvcurveto
          257 vlineto
          31 7 6 16 11 vhcurveto
          24 35 41 15 35 hhcurveto
          75 11 -52 -52 12 callgsubr
          -20 5 0 4 12 vvcurveto
          270 vlineto
          91 -53 55 -89 -69 -54 -36 -38 -32 vhcurveto
          -12 -14 -30 callsubr
          endchar
        </CharString>
        <CharString name="_ffj">
          435 -219 79 161 -21 423 50 5 -20 231 53 -23 53 -14 callgsubr
          92 243 -90 90 hintmask 1101101101000000
          876 38 rmoveto
          430 vlineto
          -11 10 rlineto
          hintmask 1110011110000000
          -23 -74 -5 -109 -58 callsubr
          -201 -36 -189 -74 -8 hvcurveto
          -20 -1 -3 -16 -29 hhcurveto
          -216 hlineto
          hintmask 1110101101000000
          114 23 102 67 12 23 -7 -4 6 vhcurveto
          6 -5 4 -6 -101 callsubr
          339 -9 callgsubr
          -321 vlineto
          -85 callgsubr
          -35 callsubr
          237 -64 callgsubr
          -67 12 rlineto
          -20 4 0 5 12 vvcurveto
          339 vlineto
          6 63 85 6 28 32 callsubr
          -315 vlineto
          -91 -15 -91 -30 -19 vhcurveto
          -5 -8 -7 -2 -14 hhcurveto
          -16 -19 3 7 -27 hvcurveto
          hintmask 1110101110000000
          -67 callsubr
          endchar
        </CharString>
        <CharString name="_ffk">
          724 0 39 366 61 7 -20 236 53 -20 50 -14 callgsubr
          249 90 hintmask 11001111
          880 231 rmoveto
          506 0 callsubr
          hintmask 11010111
          118 23 105 67 12 23 -7 -4 6 vhcurveto
          6 -5 4 -6 -101 callsubr
          332 -9 callgsubr
          -314 vlineto
          -85 callgsubr
          -35 callsubr
          237 -64 callgsubr
          -67 12 rlineto
          -20 5 0 4 -55 callgsubr
          hintmask 10101111
          -59 callgsubr
          -20 5 0 4 12 vvcurveto
          92 vlineto
          65 62 155 -226 rlineto
          139 -1 callgsubr
          -21 11 -18 26 rlinecurve
          -145 207 137 131 4 4 5 5 46 7 rlinecurve
          -45 callsubr
          -199 hlineto
          -6 -39 rlineto
          43 -6 26 -7 -12 vvcurveto
          -5 0 -4 -8 -8 vhcurveto
          endchar
        </CharString>
        <CharString name="_fft">
          505 0 63 -51 -21 414 61 223 53 -23 53 -14 callgsubr
          230 90 hintmask 10101111
          541 466 rmoveto
          -56 callsubr
          23 callgsubr
          -175 -14 -224 -47 -3 hvcurveto
          -18 -1 -3 -17 -28 hhcurveto
          -216 hlineto
          hintmask 10110111
          118 23 105 67 12 23 -7 -4 6 vhcurveto
          6 -5 4 -6 -101 callsubr
          332 -9 callgsubr
          -314 vlineto
          -85 callgsubr
          -35 callsubr
          247 -64 callgsubr
          -75 -48 callsubr
          332 vlineto
          6 60 116 2 54 hhcurveto
          -275 vlineto
          hintmask 01110111
          -91 45 -55 74 59 45 35 38 28 vhcurveto
          -21 29 rlineto
          hintmask 10110111
          -14 callsubr
          -8 -11 -6 -16 hhcurveto
          endchar
        </CharString>
        <CharString name="_fh">
          415 53 callsubr
          234 50 hstem
          115 90 249 90 220 90 vstem
          51 hmoveto
          237 hlineto
          4 39 -65 12 rlineto
          -20 3 -2 6 -55 callgsubr
          -59 callgsubr
          -18 5 -2 4 12 vvcurveto
          257 vlineto
          31 7 6 16 11 vhcurveto
          24 35 41 15 35 hhcurveto
          75 11 -52 -52 12 callgsubr
          -18 5 -2 4 12 vvcurveto
          270 vlineto
          91 -53 55 -89 -69 -54 -36 -38 -32 vhcurveto
          -12 -14 25 callsubr
          -32 -57 4 -34 hhcurveto
          -215 -61 -144 -133 -11 hvcurveto
          -1 -18 -2 -12 -19 -5 -49 -12 rcurveline
          4 -43 rlineto
          65 -309 hlineto
          -85 callgsubr
          endchar
        </CharString>
        <CharString name="_fj">
          99 -219 79 161 9 callgsubr
          92 243 -90 90 hintmask 11101101
          450 68 rmoveto
          -91 -16 -91 -29 -19 vhcurveto
          -5 -6 -10 -2 -13 hhcurveto
          -15 -19 3 7 -28 hvcurveto
          hintmask 11011110
          -67 callsubr
          430 vlineto
          -11 10 rlineto
          hintmask 11101101
          -23 -74 -5 -109 -58 callsubr
          -214 -27 -215 -62 -96 callgsubr
          339 vlineto
          6 63 85 6 28 32 callsubr
          endchar
        </CharString>
        <CharString name="_fk">
          388 0 39 434 -20 269 50 hstem
          115 90 249 90 vstem
          51 hmoveto
          237 hlineto
          4 39 -65 12 rlineto
          -20 3 -2 6 -55 callgsubr
          -59 callgsubr
          -18 5 -2 4 12 vvcurveto
          92 vlineto
          65 62 155 -226 rlineto
          139 -1 callgsubr
          -21 12 -18 25 rlinecurve
          -145 207 137 131 4 4 5 5 46 7 rlinecurve
          -45 callsubr
          -199 hlineto
          -6 -39 rlineto
          43 -6 26 -7 -12 vvcurveto
          -5 0 -4 -8 50 callsubr
          506 vlineto
          -17 26 rlineto
          5 -32 -57 4 -34 hhcurveto
          -215 -61 -144 -133 -11 hvcurveto
          -1 -18 -2 -12 -19 -5 -49 -12 rcurveline
          4 -43 rlineto
          65 -309 hlineto
          -85 callgsubr
          endchar
        </CharString>
        <CharString name="_ft">
          169 0 63 -51 -21 421 54 253 51 callsubr
          230 90 hintmask 10111100
          423 749 rmoveto
          -41 callsubr
          -35 callsubr
          247 -64 callgsubr
          -75 -48 callsubr
          332 vlineto
          6 60 116 2 54 hhcurveto
          -275 vlineto
          hintmask 01111100
          -91 45 -55 74 59 45 35 38 28 vhcurveto
          -21 29 rlineto
          hintmask 10111100
          -14 callsubr
          -4 -15 -6 -16 hhcurveto
          -200 hlineto
          -56 callsubr
          endchar
        </CharString>
        <CharString name="a">
          -17 callsubr
          hstemhm
          42 97 175 90 hintmask 10111100
          42 123 rmoveto
          -54 callgsubr
          hintmask 01111100
          -30 19 -30 13 vhcurveto
          -99 callgsubr
          hintmask 10111100
          -26 callgsubr
          endchar
        </CharString>
        <CharString name="aacute">
          -17 callsubr
          277 -20 hstemhm
          42 97 175 90 hintmask 10111110
          42 123 rmoveto
          -54 callgsubr
          hintmask 01111110
          -30 19 -30 13 vhcurveto
          -99 callgsubr
          hintmask 10111110
          -26 callgsubr
          237 603 -25 callgsubr
          endchar
        </CharString>
        <CharString name="abreve">
          -19 13 0 97 198 endchar
        </CharString>
        <CharString name="acircumflex">
          -19 92 0 97 195 endchar
        </CharString>
        <CharString name="acute">
          -333 49 callsubr
          199 735 -25 callgsubr
          endchar
        </CharString>
        <CharString name="acute.cap">
          -297 51 callgsubr
          234 863 -93 callsubr
        </CharString>
        <CharString name="adieresis">
          -17 callsubr
          112 110 hstemhm
          42 97 -48 105 88 105 -75 90 hintmask 1011110100000000
          42 123 rmoveto
          -54 callgsubr
          hintmask 0111110010000000
          -30 19 -30 13 vhcurveto
          -99 callgsubr
          hintmask 1011110100000000
          -26 callgsubr
          197 468 rmoveto
          -95 callgsubr
          -193 hmoveto
          hintmask 1011101100000000
          -95 callgsubr
          endchar
        </CharString>
        <CharString name="ae">
          232 -9 19 callsubr
          hstem
          42 97 175 100 220 96 vstem
          139 337 rmoveto
          7 40 11 38 6 7 rrcurveto
          9 8 30 4 19 hhcurveto
          72 22 -57 -73 hvcurveto
          -23 vlineto
          -196 -12 -76 -50 -97 vvcurveto
          -87 62 -45 70 82 57 52 55 30 vhcurveto
          6 hlineto
          -64 33 60 -43 89 hhcurveto
          85 76 40 29 36 hvcurveto
          -21 33 rlineto
          -22 -43 -46 -12 -46 hhcurveto
          -86 -72 41 144 hvcurveto
          290 16 26 19 rlineto
          123 -5 -49 86 -124 hhcurveto
          -68 -56 -26 -42 -40 hvcurveto
          48 -22 -47 20 -74 hhcurveto
          -58 -69 -12 -25 -40 hvcurveto
          -1 -10 0 -11 -11 vvcurveto
          -26 2 -27 6 -23 vhcurveto
          332 -53 rmoveto
          84 8 25 61 82 hhcurveto
          82 20 -61 -47 -10 -1 -8 -9 -1 hvcurveto
          -310 -177 rmoveto
          -14 -5 -10 -18 -14 vhcurveto
          -14 -18 -29 -19 -36 hhcurveto
          -40 -29 23 49 70 58 24 117 12 hvcurveto
          endchar
        </CharString>
        <CharString name="afii61352">
          443 12 -21 30 -21 175 53 58 45 273 46 43 -20 hstemhm
          91 60 302 60 82 81 171 82 hintmask 0111111111000000
          21 hmoveto
          240 -64 callgsubr
          -70 9 rlineto
          -34 4 -10 16 32 vvcurveto
          456 8 vlineto
          1 -7 6 -12 10 -18 rrcurveto
          hintmask 1011111111000000
          291 -528 rlineto
          hintmask 0111111111000000
          46 9 rlineto
          616 -36 callgsubr
          -228 hlineto
          -6 -39 rlineto
          -8 callgsubr
          -58 vvcurveto
          -326 -8 vlineto
          6 -9 16 -8 15 vhcurveto
          -227 410 rlineto
          -180 hlineto
          -6 -39 rlineto
          74 -13 2 -10 -39 vvcurveto
          -491 vlineto
          -16 callgsubr
          743 247 -44 callgsubr
        </CharString>
        <CharString name="agrave">
          -19 125 0 97 193 endchar
        </CharString>
        <CharString name="amacron">
          -17 callsubr
          154 60 hstemhm
          42 97 175 90 hintmask 10111110
          42 123 rmoveto
          -54 callgsubr
          hintmask 01111110
          -30 19 -30 13 vhcurveto
          -99 callgsubr
          hintmask 10111110
          -26 callgsubr
          -19 510 -37 callgsubr
        </CharString>
        <CharString name="ampersand">
          154 -9 63 -33 -21 473 -20 196 53 hstemhm
          40 104 -48 79 343 60 hintmask 10110110
          578 396 rmoveto
          18 callsubr
          -228 hlineto
          -6 -39 rlineto
          83 -9 13 -17 -49 vvcurveto
          -54 -15 -63 -30 -55 vhcurveto
          -208 225 rlineto
          -74 80 -16 34 41 vvcurveto
          31 9 17 11 11 vhcurveto
          13 13 20 10 36 hhcurveto
          12 41 -1 -12 17 hvcurveto
          9 -6 5 -12 6 -69 2 callgsubr
          10 -26 -48 15 -54 hhcurveto
          -114 -74 -67 -96 -50 18 -54 64 -69 hvcurveto
          hintmask 10111010
          -82 -36 -56 -66 -92 vvcurveto
          -109 77 -72 132 85 67 30 47 50 vhcurveto
          hintmask 01111010
          64 -68 rlineto
          144 hlineto
          6 39 -44 3 -20 9 -17 17 rlinecurve
          -72 77 43 74 20 90 3 87 rlinecurve
          hintmask 10111010
          -296 -342 rmoveto
          -92 -46 64 77 60 28 45 43 25 hvcurveto
          200 -217 rlineto
          -33 -36 -44 -21 -53 hhcurveto
          endchar
        </CharString>
        <CharString name="anoteleia">
          -299 334 115 hstem
          58 115 vstem
          115 334 -16 callsubr
        </CharString>
        <CharString name="aogonek">
          -19 -215 56 150 68 -49 26 -18 -21 232 44 162 53 hstemhm
          42 97 135 81 -41 90 hintmask 1010111100000000
          482 -20 callgsubr
          -440 292 rmoveto
          hintmask 1100111100000000
          -54 callgsubr
          hintmask 1001111100000000
          -30 19 -30 13 vhcurveto
          hintmask 1010111010000000
          -99 callgsubr
          hintmask 1100111100000000
          -26 callgsubr
          endchar
        </CharString>
        <CharString name="apostrophe">
          -422 578 -21 209 -20 hstemhm
          6 93 -66 66 hintmask 11100000
          24 557 rmoveto
          26 callsubr
          hintmask 11010000
          36 callsubr
        </CharString>
        <CharString name="approxequal">
          -65 150 75 -15 75 15 75 -15 75 hstemhm
          hintmask 10100000
          412 424 -19 callsubr
          hintmask 10010000
          -40 callgsubr
          hintmask 10100000
          14 callgsubr
          -35 -126 -19 callsubr
          hintmask 01100000
          -40 callgsubr
          hintmask 10100000
          14 callgsubr
          endchar
        </CharString>
        <CharString name="aring">
          -19 12 0 97 202 endchar
        </CharString>
        <CharString name="arrowdown">
          89 6 callsubr
          278 61 vstem
          574 255 rmoveto
          -41 38 -162 -161 -8 -8 -15 -17 -5 -10 rlinecurve
          -4 1 rlineto
          595 -61 -595 vlineto
          -4 -1 -7 12 -13 15 -8 8 rlinecurve
          -162 161 -41 -38 256 -255 rlineto
          19 hlineto
          endchar
        </CharString>
        <CharString name="arrowleft">
          41 callsubr
          300 88 rmoveto
          40 40 -161 161 -14 14 -14 13 -9 6 rlinecurve
          1 4 rlineto
          585 53 -585 hlineto
          -1 4 12 7 11 12 14 14 rlinecurve
          161 161 -40 40 -256 -257 rlineto
          -15 vlineto
          endchar
        </CharString>
        <CharString name="arrowright">
          41 callsubr
          728 345 rmoveto
          15 vlineto
          -256 257 -40 -40 161 -161 14 -14 11 -12 12 -7 rlinecurve
          -1 -4 rlineto
          -585 -53 585 hlineto
          1 -4 -9 -6 -14 -13 -14 -14 rlinecurve
          -161 -161 40 -40 rlineto
          endchar
        </CharString>
        <CharString name="arrowup">
          89 6 callsubr
          281 61 vstem
          321 693 rmoveto
          -19 hlineto
          -256 -255 41 -38 162 161 8 8 13 15 7 12 rlinecurve
          4 -1 rlineto
          -595 61 595 vlineto
          4 1 5 -10 15 -17 8 -8 rlinecurve
          162 -161 41 38 rlineto
          endchar
        </CharString>
        <CharString name="asciicircum">
          -30 345 -21 369 -20 hstem
          205 693 rmoveto
          -181 -369 rlineto
          68 hlineto
          151 313 166 -313 rlineto
          68 hlineto
          -195 369 rlineto
          endchar
        </CharString>
        <CharString name="asciitilde">
          -46 200 75 -15 75 hstemhm
          hintmask 10000000
          422 324 -19 callsubr
          hintmask 01000000
          -40 callgsubr
          hintmask 10000000
          14 callgsubr
          endchar
        </CharString>
        <CharString name="asterisk">
          -140 401 -21 364 -20 hstem
          222 744 -100 callgsubr
          endchar
        </CharString>
        <CharString name="at">
          264 -121 53 70 61 341 51 85 50 hstemhm
          31 82 97 85 184 69 -52 52 140 76 hintmask 1111110110000000
          31 185 rmoveto
          -180 95 -126 216 19 34 1 20 101 vhcurveto
          9 12 rlineto
          15 -11 12 13 vvcurveto
          -19 -80 -22 -1 -18 hhcurveto
          -192 -69 108 153 173 87 174 220 170 98 -106 -124 -73 -34 -187 -74 -27 -5 25 40 97 30 152 10 70 hvcurveto
          -19 12 -40 -10 rlineto
          11 -33 -35 8 -32 hhcurveto
          -123 -96 -125 -167 -98 33 -63 75 80 50 71 88 35 hvcurveto
          7 -2 -6 -42 rlineto
          hintmask 1111111010000000
          -2 -13 -3 -21 -18 vvcurveto
          -40 14 -21 30 -5 vhcurveto
          32 6 50 4 37 4 rrcurveto
          84 84 38 125 87 vvcurveto
          192 -151 89 -178 -237 -167 -167 -238 vhcurveto
          312 -122 rmoveto
          -33 -15 41 65 78 22 106 29 36 hvcurveto
          8 7 29 7 23 hhcurveto
          hintmask 1111110110000000
          35 36 -16 -10 20 hvcurveto
          -126 -5 -76 -189 -72 hhcurveto
          endchar
        </CharString>
        <CharString name="atilde">
          -17 callsubr
          107 77 -35 35 -35 77 1 -20 hstemhm
          42 97 175 90 hintmask 1011100111000000
          42 123 rmoveto
          -54 callgsubr
          hintmask 0111100111000000
          -30 19 -30 13 vhcurveto
          -99 callgsubr
          hintmask 1011100111000000
          -26 callgsubr
          265 583 48 callgsubr
          hintmask 1011001011000000
          18 callgsubr
          hintmask 1011100111000000
          23 -17 rlineto
          hintmask 1011010111000000
          30 24 23 12 25 hhcurveto
          hintmask 1011100111000000
          17 callgsubr
          endchar
        </CharString>
        <CharString name="b">
          13 -9 57 368 72 284 -20 hstem
          83 90 238 97 vstem
          83 34 rmoveto
          22 callgsubr
          -64 -49 -36 -39 -30 hvcurveto
          -10 -13 -30 callsubr
          281 -104 callsubr
          90 -593 rmoveto
          252 vlineto
          -13 callsubr
          -18 -61 -23 -26 hvcurveto
          -23 -20 -34 -4 -27 34 callsubr
        </CharString>
        <CharString name="backslash">
          -140 -39 -21 832 -20 hstem
          15 772 rmoveto
          291 -832 rlineto
          70 hlineto
          -292 832 rlineto
          endchar
        </CharString>
        <CharString name="bar">
          26 callgsubr
          -982 65 982 vlineto
          endchar
        </CharString>
        <CharString name="braceleft">
          -208 -143 -21 930 -20 hstemhm
          109 70 -70 161 hintmask 11010000
          30 282 rmoveto
          35 -14 26 -11 11 -29 rrcurveto
          4 -12 3 -17 -14 -79 -10 -78 -78 vvcurveto
          -71 46 -43 61 18 21 2 2 25 vhcurveto
          43 vlineto
          hintmask 11100000
          -52 6 -39 8 62 vvcurveto
          253 vlineto
          17 0 12 -7 15 vhcurveto
          -7 19 -21 16 -24 6 -11 3 rcurveline
          2 vlineto
          11 3 24 7 21 15 7 19 rlinecurve
          6 15 1 12 17 vvcurveto
          253 vlineto
          hintmask 11010000
          62 39 8 52 6 vhcurveto
          43 vlineto
          2 -25 -21 2 -18 hhcurveto
          -61 -46 -43 -71 hvcurveto
          -79 10 -78 -78 vvcurveto
          -14 -3 -17 -4 -12 vhcurveto
          -11 -29 -26 -11 -35 -14 rrcurveto
          endchar
        </CharString>
        <CharString name="braceright">
          -208 -143 -21 930 -20 hstemhm
          53 161 -70 70 hintmask 11100000
          293 320 rmoveto
          -35 14 -26 11 -11 29 rrcurveto
          -4 12 -3 17 14 78 10 78 79 vvcurveto
          71 -46 43 -61 -18 -21 -2 -2 -25 vhcurveto
          -43 vlineto
          hintmask 11010000
          52 -6 39 -8 -62 vvcurveto
          -253 vlineto
          -17 1 -12 6 -15 vhcurveto
          7 -19 21 -15 24 -7 11 -3 rcurveline
          -2 vlineto
          -11 -3 -24 -6 -21 -16 -7 -19 rlinecurve
          -7 -15 0 -12 -17 vvcurveto
          -253 vlineto
          hintmask 11100000
          -62 -39 -8 -52 -6 vhcurveto
          -43 vlineto
          -2 25 21 -2 18 hhcurveto
          61 46 43 71 hvcurveto
          78 -10 78 79 vvcurveto
          14 3 17 4 12 vhcurveto
          11 29 26 11 35 14 rrcurveto
          endchar
        </CharString>
        <CharString name="bracketleft">
          -247 -164 53 824 53 hstemhm
          70 70 -70 161 hintmask 11010000
          70 -164 rmoveto
          161 53 hlineto
          hintmask 11100000
          -91 824 hlineto
          hintmask 11010000
          91 53 -161 hlineto
          endchar
        </CharString>
        <CharString name="bracketright">
          -247 -164 53 824 53 hstemhm
          53 161 -70 70 hintmask 11100000
          214 766 rmoveto
          -161 -53 hlineto
          hintmask 11010000
          91 -824 hlineto
          hintmask 11100000
          -91 -53 161 hlineto
          endchar
        </CharString>
        <CharString name="breve">
          -19 567 68 -68 153 hstemhm
          hintmask 01000000
          351 720 rmoveto
          hintmask 10000000
          -56 -11 -36 -29 -65 hhcurveto
          hintmask 01000000
          -65 -36 29 56 -11 hvcurveto
          -37 hlineto
          -83 5 44 -70 100 hhcurveto
          100 44 70 83 5 hvcurveto
          endchar
        </CharString>
        <CharString name="breve.cap">
          199 760 -2 callsubr
          hintmask 01000000
          479 900 rmoveto
          hintmask 10000000
          -28 callgsubr
          hintmask 01000000
          -83 callsubr
        </CharString>
        <CharString name="brokenbar">
          26 callgsubr
          -417 65 417 vlineto
          -65 -564 rmoveto
          -418 65 418 vlineto
          endchar
        </CharString>
        <CharString name="bullet">
          -188 148 -21 256 -20 hstem
          172 127 rmoveto
          81 50 60 69 94 -62 33 -69 -85 -47 -60 -67 -89 59 -40 73 hvcurveto
          endchar
        </CharString>
        <CharString name="c">
          -63 -9 68 374 55 hstem
          34 97 vstem
          34 236 rmoveto
          -136 70 -109 146 94 66 45 34 35 vhcurveto
          -28 33 rlineto
          -29 -42 -47 -15 -45 hhcurveto
          -81 -71 48 138 61 14 58 21 32 hvcurveto
          27 18 25 10 36 hhcurveto
          20 41 -3 -6 14 hvcurveto
          9 -4 6 -10 15 -93 56 6 rcurveline
          8 28 4 46 35 vvcurveto
          11 0 9 -1 8 vhcurveto
          6 -15 -56 22 -75 hhcurveto
          -187 -50 -137 -115 hvcurveto
          endchar
        </CharString>
        <CharString name="cacute">
          -63 218 0 99 194 endchar
        </CharString>
        <CharString name="caron">
          -232 587 -21 194 -20 hstem
          118 566 rmoveto
          63 hlineto
          118 169 -35 25 -114 -118 -115 118 -35 -25 rlineto
          endchar
        </CharString>
        <CharString name="caron.alt">
          -434 598 -21 197 -20 hstem
          85 774 rmoveto
          -85 -22 rlineto
          -50 callsubr
        </CharString>
        <CharString name="caron.cap">
          -203 773 -21 165 -20 hstem
          25 917 rmoveto
          -95 callsubr
        </CharString>
        <CharString name="ccaron">
          -63 109 0 99 207 endchar
        </CharString>
        <CharString name="ccedilla">
          -63 -9 0 99 203 endchar
        </CharString>
        <CharString name="ccircumflex">
          -63 106 0 99 195 endchar
        </CharString>
        <CharString name="cedilla">
          -46 30 callsubr
          85 -20 hstem
          301 82 vstem
          205 -89 -78 callgsubr
          -20 -58 -8 hvcurveto
          endchar
        </CharString>
        <CharString name="cedilla.cap">
          -54 30 callsubr
          85 -20 hstem
          301 82 vstem
          205 -89 -78 callgsubr
          -21 -58 -7 hvcurveto
          endchar
        </CharString>
        <CharString name="cent">
          -107 43 callgsubr
          34 90 71 57 vstem
          195 -94 callgsubr
        </CharString>
        <CharString name="cent.alt">
          -107 0 197 301 48 -48 170 hstemhm
          44 90 58 62 hintmask 11011000
          375 523 rmoveto
          5 -12 -47 18 -64 hhcurveto
          hintmask 10111000
          4 122 rlineto
          -65 hlineto
          3 -128 rlineto
          -117 -23 -33 -95 -82 vvcurveto
          -101 48 -82 102 -16 vhcurveto
          -3 -141 rlineto
          65 hlineto
          -3 140 70 6 50 32 28 26 rlinecurve
          -26 30 rlineto
          -24 -36 -42 -13 -39 hhcurveto
          -66 -58 39 111 49 11 47 18 25 hvcurveto
          22 15 21 8 31 hhcurveto
          16 35 -2 -5 13 hvcurveto
          7 -3 5 -9 12 -73 48 5 rcurveline
          7 23 3 38 28 vvcurveto
          9 0 8 -1 6 vhcurveto
          endchar
        </CharString>
        <CharString name="cent.fitted">
          -101 43 callgsubr
          40 90 71 57 vstem
          201 -94 callgsubr
        </CharString>
        <CharString name="cent.tab">
          43 callgsubr
          80 90 71 57 vstem
          241 -94 callgsubr
        </CharString>
        <CharString name="cent.tabonum">
          43 callgsubr
          70 90 71 57 vstem
          231 -94 callgsubr
        </CharString>
        <CharString name="circumflex">
          -232 582 -21 194 -20 hstem
          181 10 callsubr
          endchar
        </CharString>
        <CharString name="circumflex.cap">
          -203 51 callgsubr
          303 749 -102 callsubr
        </CharString>
        <CharString name="colon">
          -279 -9 122 253 122 hstem
          65 122 vstem
          9 callsubr
          -375 vmoveto
          -52 callgsubr
          endchar
        </CharString>
        <CharString name="comma">
          -279 -116 -21 250 -20 hstemhm
          70 119 -84 84 hintmask 11100000
          91 -137 -7 callgsubr
        </CharString>
        <CharString name="commaaccent">
          -231 -189 -21 189 -20 hstemhm
          114 97 -74 74 hintmask 11100000
          118 -210 -24 callsubr
          hintmask 11010000
          -11 callgsubr
        </CharString>
        <CharString name="copyright">
          310 -9 53 70 53 358 53 71 53 hstem
          45 97 74 97 396 -42 callsubr
          16 534 rmoveto
          -170 -64 -127 -103 -125 57 -109 189 36 79 19 20 22 hvcurveto
          1 8 0 13 9 vvcurveto
          26 -4 33 -6 19 vhcurveto
          -59 4 -8 -70 -6 -9 -4 -4 rlinecurve
          -8 -3 -27 -7 -24 hhcurveto
          -66 -80 52 129 104 41 73 89 25 27 -9 -11 8 hvcurveto
          7 -4 0 -10 10 -87 68 6 rcurveline
          6 25 3 33 37 9 0 6 7 vvcurveto
          9 -14 -64 42 -69 hhcurveto
          endchar
        </CharString>
        <CharString name="copyright.sup">
          43 271 32 43 32 227 32 33 32 hstemhm
          55 59 33 246 68 58 vstemhm
          283 271 rmoveto
          149 87 91 135 123 -81 82 -146 -150 -87 -89 -132 -127 81 -83 147 hvcurveto
          9 32 rmoveto
          -119 -59 81 108 89 43 89 125 119 60 -80 -104 -94 -44 -89 -125 hvcurveto
          -145 193 rmoveto
          -79 36 -71 121 23 50 8 8 14 vhcurveto
          1 7 1 10 8 vvcurveto
          17 -3 21 -2 13 vhcurveto
          -32 2 -5 -45 -7 -5 -1 -3 rlinecurve
          -5 -3 -16 -4 -17 hhcurveto
          hintmask 11111110
          -45 -54 33 85 61 29 48 59 17 17 -7 -5 7 hvcurveto
          5 -2 0 -7 7 -55 35 4 rcurveline
          4 16 2 20 24 8 0 8 6 vvcurveto
          4 -10 -39 18 -44 hhcurveto
          -109 -41 -82 -59 hvcurveto
          endchar
        </CharString>
        <CharString name="currency">
          72 87 -21 72 53 301 53 53 -20 hstem
          84 97 242 97 vstem
          296 138 rmoveto
          49 42 10 18 34 hvcurveto
          101 -100 46 45 -95 96 rlineto
          31 35 16 48 57 vvcurveto
          49 -12 41 -24 32 vhcurveto
          84 83 -47 46 -85 -85 rlineto
          21 -33 -43 11 -52 hhcurveto
          -56 -46 -13 -23 -36 hvcurveto
          -88 89 -46 -45 87 -88 rlineto
          -26 -35 -13 -44 -51 vvcurveto
          -54 14 -45 28 -33 vhcurveto
          -91 -91 46 -46 97 97 rlineto
          -16 32 39 -9 47 hhcurveto
          -3 354 rmoveto
          88 42 -70 -87 -52 -14 -46 -17 -19 hvcurveto
          -20 -20 -34 -7 -27 hhcurveto
          -88 -42 70 87 52 14 46 17 19 hvcurveto
          20 20 34 7 27 hhcurveto
          endchar
        </CharString>
        <CharString name="d">
          38 callgsubr
          284 -20 hstemhm
          36 97 238 90 hintmask 10111100
          -21 callsubr
          hintmask 01111100
          -30 21 -31 5 callgsubr
          664 vlineto
          -11 10 rlineto
          -24 -59 -3 -11 -84 hvcurveto
          -6 -32 rlineto
          69 -9 25 -11 -29 vvcurveto
          -168 vlineto
          -15 2 -21 2 -8 vhcurveto
          -7 -3 rlineto
          15 -20 -42 11 -46 hhcurveto
          -145 -79 -111 -148 hvcurveto
          hintmask 10111100
          -54 callsubr
          endchar
        </CharString>
        <CharString name="dagger">
          -23 -198 -21 927 -20 hstem
          269 -219 rmoveto
          34 401 -20 175 -2 17 -10 -51 callgsubr
          -5 -19 -3 -20 rlinecurve
          -24 -189 30 -386 rlineto
          endchar
        </CharString>
        <CharString name="daggerdbl">
          -23 -198 -21 927 -20 hstem
          35 92 rmoveto
          34 -90 112 20 18 3 22 8 6 3 rlinecurve
          9 -11 -5 -7 -5 -19 -3 -20 rlinecurve
          -24 -181 14 -17 90 32 -20 167 -2 17 -10 21 -3 7 rlinecurve
          12 11 7 -5 19 -4 20 -4 rlinecurve
          130 -24 17 14 -32 90 -116 -20 -17 -3 -21 -9 -7 -3 rlinecurve
          -11 12 5 6 5 20 3 20 rlinecurve
          23 127 -22 104 -3 17 -9 -51 callgsubr
          -4 -19 -4 -20 rlinecurve
          -22 -119 21 -113 3 -18 8 -22 3 -6 rlinecurve
          -11 -9 -6 5 -20 4 -20 4 rlinecurve
          -126 24 rlineto
          endchar
        </CharString>
        <CharString name="dcaron">
          38 callgsubr
          286 -20 hstemhm
          36 97 0 238 0 90 0 67 hintmask 10111010
          -21 callsubr
          hintmask 01111010
          -30 21 -31 5 callgsubr
          664 vlineto
          -11 10 rlineto
          -24 -59 -3 -11 -84 hvcurveto
          -6 -32 rlineto
          69 -9 25 -11 -29 vvcurveto
          -168 vlineto
          -15 2 -21 2 -8 vhcurveto
          -7 -3 rlineto
          15 -20 -42 11 -46 hhcurveto
          -145 -79 -111 -148 hvcurveto
          hintmask 10110101
          -54 callsubr
          367 711 rmoveto
          -85 -22 rlineto
          -50 callsubr
        </CharString>
        <CharString name="dcroat">
          38 callgsubr
          97 53 134 -20 hstemhm
          36 97 238 90 hintmask 10111110
          -21 callsubr
          hintmask 01111110
          -30 21 -31 5 callgsubr
          664 vlineto
          -11 10 rlineto
          -24 -59 -3 -11 -84 hvcurveto
          -6 -32 rlineto
          69 -9 25 -11 -29 vvcurveto
          -168 vlineto
          -15 2 -21 2 -8 vhcurveto
          -7 -3 rlineto
          15 -20 -42 11 -46 hhcurveto
          -145 -79 -111 -148 hvcurveto
          hintmask 10111110
          -54 callsubr
          -1 522 rmoveto
          301 53 -301 hlineto
          endchar
        </CharString>
        <CharString name="degree">
          -166 435 51 165 51 hstem
          45 57 160 57 vstem
          178 435 rmoveto
          90 51 55 82 80 -48 50 -86 -90 -50 -55 -82 -81 48 -49 85 hvcurveto
          51 vmoveto
          -49 -27 30 49 51 30 35 53 49 28 -30 -49 -51 -30 -35 -54 hvcurveto
          endchar
        </CharString>
        <CharString name="dieresis">
          -223 600 110 hstem
          5 105 88 105 vstem
          250 600 rmoveto
          -97 callgsubr
          endchar
        </CharString>
        <CharString name="dieresis.cap">
          -301 775 110 hstem
          -34 105 88 105 vstem
          211 775 rmoveto
          -97 callgsubr
          endchar
        </CharString>
        <CharString name="divide">
          -65 64 116 64 53 79 116 hstem
          169 116 vstem
          226 376 rmoveto
          23 callsubr
          -312 vmoveto
          23 callsubr
          -181 180 rmoveto
          6 callgsubr
          endchar
        </CharString>
        <CharString name="dollar">
          -51 -107 -21 796 -20 hstem
          57 80 74 57 83 80 vstem
          414 -75 callsubr
        </CharString>
        <CharString name="dollar.fitted">
          16 56 callsubr
          63 83 103 57 95 62 -62 92 hintmask 11111101
          249 -66 callgsubr
        </CharString>
        <CharString name="dollar.tab">
          56 callsubr
          55 83 103 57 95 62 -62 92 hintmask 11111101
          241 -66 callgsubr
        </CharString>
        <CharString name="dollar.tabonum">
          -107 -21 796 -20 hstem
          72 80 74 57 83 80 vstem
          429 -75 callsubr
        </CharString>
        <CharString name="dotaccent">
          -219 597 115 hstem
          87 115 vstem
          145 597 -23 callsubr
          -22 callgsubr
          endchar
        </CharString>
        <CharString name="dotaccentcmb">
          -219 597 115 hstem
          87 115 vstem
          145 597 -23 callsubr
          -22 callgsubr
          endchar
        </CharString>
        <CharString name="dotaccentcmb.cap">
          -299 331 121 hstem
          54 119 vstem
          113 331 rmoveto
          37 23 29 33 43 -28 16 -32 -36 -23 -28 -31 -43 28 -19 31 hvcurveto
          endchar
        </CharString>
        <CharString name="dotlessi">
          4 callgsubr
          hstem
          111 90 vstem
          47 hmoveto
          -77 callsubr
        </CharString>
        <CharString name="dotlessj">
          38 callsubr
          hstemhm
          -53 243 -90 90 hintmask 11010000
          100 16 callsubr
          hintmask 11100000
          -67 callsubr
          430 vlineto
          -90 callsubr
          hintmask 11010000
          57 -11 19 -9 -29 vvcurveto
          endchar
        </CharString>
        <CharString name="e">
          -53 -9 19 callsubr
          -72 callgsubr
          endchar
        </CharString>
        <CharString name="eacute">
          -53 196 0 101 194 endchar
        </CharString>
        <CharString name="ebreve">
          -53 17 0 101 198 endchar
        </CharString>
        <CharString name="ecaron">
          -53 100 0 101 207 endchar
        </CharString>
        <CharString name="ecircumflex">
          -53 -9 19 callsubr
          267 -20 -72 callgsubr
          -62 447 -53 callgsubr
          endchar
        </CharString>
        <CharString name="edieresis">
          -53 98 0 101 200 endchar
        </CharString>
        <CharString name="egrave">
          -53 104 0 101 193 endchar
        </CharString>
        <CharString name="eight">
          -101 callgsubr
        </CharString>
        <CharString name="eight.dnom">
          -188 -6 -11 callsubr
          303 -87 callgsubr
        </CharString>
        <CharString name="eight.fitted">
          -101 callgsubr
        </CharString>
        <CharString name="eight.inf">
          -188 -169 -11 callsubr
          140 -87 callgsubr
        </CharString>
        <CharString name="eight.numr">
          -188 272 39 166 -20 27 -20 198 37 hstemhm
          14 72 -56 74 140 72 -72 88 hintmask 10110110
          30 581 rmoveto
          -46 28 -32 32 -17 vhcurveto
          -2 5 3 0 2 hhcurveto
          hintmask 11011001
          -7 vlineto
          -8 -5 -3 -3 -6 hvcurveto
          -27 -16 -40 -34 -52 vvcurveto
          -84 101 -13 53 99 65 49 69 49 -34 31 -44 22 vhcurveto
          -6 3 -3 0 -2 1 rrcurveto
          5 vlineto
          9 2 7 4 6 6 rrcurveto
          hintmask 10110110
          30 19 21 31 37 vvcurveto
          79 -89 20 -52 -81 -64 -46 -72 vhcurveto
          74 20 rmoveto
          29 19 32 48 42 31 -23 -43 -40 -28 -27 -18 -12 vhcurveto
          -52 21 -42 18 45 vvcurveto
          150 -227 rmoveto
          -27 -19 -36 -62 vhcurveto
          hintmask 10111010
          -50 -37 23 43 51 49 28 8 4 hvcurveto
          55 -21 56 -16 -49 vvcurveto
          endchar
        </CharString>
        <CharString name="eight.sup">
          -188 429 -11 callsubr
          738 -87 callgsubr
        </CharString>
        <CharString name="eight.tab">
          -101 callgsubr
        </CharString>
        <CharString name="eight.tabonum">
          -101 callgsubr
        </CharString>
        <CharString name="ellipsis">
          329 -9 122 hstem
          95 122 152 122 152 122 cntrmask 01110000
          703 -9 21 callsubr
          -274 hmoveto
          -52 callgsubr
          -274 hmoveto
          -52 callgsubr
          endchar
        </CharString>
        <CharString name="emacron">
          -53 -9 19 callsubr
          154 60 -72 callgsubr
          -201 334 -37 callgsubr
        </CharString>
        <CharString name="emdash">
          469 46 callgsubr
          992 hlineto
          12 53 rlineto
          endchar
        </CharString>
        <CharString name="endash">
          -31 46 callgsubr
          492 hlineto
          12 53 rlineto
          endchar
        </CharString>
        <CharString name="eng">
          63 -219 79 161 55 callsubr
          60 243 -90 90 hintmask 11101010
          414 16 callsubr
          hintmask 11101100
          -67 callsubr
          304 vlineto
          92 -53 54 -85 -65 -53 -32 -42 -36 50 callgsubr
          vlineto
          hintmask 11011100
          26 -12 51 -39 callgsubr
          -35 callsubr
          -10 callsubr
          -16 4 -4 2 16 vvcurveto
          258 vlineto
          31 7 5 15 10 vhcurveto
          hintmask 11101010
          23 34 36 16 39 hhcurveto
          71 11 -53 -51 hvcurveto
          endchar
        </CharString>
        <CharString name="eogonek">
          -53 -1 0 101 206 endchar
        </CharString>
        <CharString name="equal">
          -65 173 53 84 53 hstem
          45 173 rmoveto
          6 callgsubr
          84 vmoveto
          6 callgsubr
          endchar
        </CharString>
        <CharString name="estimated">
          300 12 -21 689 22 hstem
          20 145 500 146 vstem
          811 336 rmoveto
          9 vlineto
          197 -177 160 -220 -218 -176 -160 -197 -195 176 -159 218 128 116 54 83 70 vhcurveto
          -58 hlineto
          -71 -61 -91 -47 -103 hhcurveto
          -94 -85 42 63 -63 hvcurveto
          -5 7 -3 7 9 vvcurveto
          193 vlineto
          4 2 1 3 vhcurveto
          495 26 rmoveto
          -3 -1 -4 -3 vhcurveto
          -491 hlineto
          -3 -2 4 3 hvcurveto
          190 vlineto
          10 3 8 7 7 vhcurveto
          62 62 84 41 94 hhcurveto
          94 85 -40 -61 62 hvcurveto
          6 -6 3 -8 -9 vvcurveto
          endchar
        </CharString>
        <CharString name="eth">
          2 52 callsubr
          289 -20 hstem
          32 97 262 97 vstem
          416 774 rmoveto
          -127 -53 -23 22 -23 19 -21 15 rlinecurve
          -52 -28 21 -16 20 -18 18 -19 rlinecurve
          -119 -49 39 -35 113 46 41 -51 33 -62 22 -73 rlinecurve
          10 -27 -31 6 -34 hhcurveto
          -150 -84 -103 -153 -149 80 -92 142 150 84 102 153 167 -60 152 -104 119 hvcurveto
          132 54 rlineto
          -205 -303 rmoveto
          92 48 -86 -117 -69 -17 -63 -23 -26 hvcurveto
          -23 -20 -35 -7 -27 hhcurveto
          -95 -45 90 113 69 17 63 23 26 hvcurveto
          23 20 35 7 27 hhcurveto
          endchar
        </CharString>
        <CharString name="exclam">
          -305 -9 108 604 -20 hstem
          40 115 vstem
          167 703 rmoveto
          -103 -30 13 -494 50 -2 52 507 rlineto
          -81 -693 rmoveto
          36 21 25 30 39 -25 14 -32 -37 -21 -23 -30 -37 26 -18 32 hvcurveto
          endchar
        </CharString>
        <CharString name="exclamdown">
          -305 -199 -21 604 108 hstem
          71 115 vstem
          128 492 rmoveto
          -36 -21 -25 -30 -39 25 -14 32 37 21 23 30 37 -26 18 -32 hvcurveto
          -69 -712 rmoveto
          103 30 -13 494 -50 2 -52 -507 rlineto
          endchar
        </CharString>
        <CharString name="f">
          41 callgsubr
          51 hmoveto
          247 -64 callgsubr
          -75 12 rlineto
          -20 3 -2 6 -55 callgsubr
          -56 callsubr
          -41 callsubr
          endchar
        </CharString>
        <CharString name="ff">
          155 21 -21 405 61 223 53 -23 53 -14 callgsubr
          hintmask 11011100
          541 404 rmoveto
          110 15 8 47 rlineto
          -118 hlineto
          -56 callsubr
          23 callgsubr
          -175 -14 -224 -47 -3 hvcurveto
          -18 -1 -3 -17 -28 hhcurveto
          -216 hlineto
          hintmask 11101100
          118 23 105 67 12 24 -6 -5 5 vhcurveto
          7 -4 3 -7 -101 callsubr
          332 -9 callgsubr
          -314 vlineto
          -85 callgsubr
          -35 callsubr
          5 callsubr
          -20 5 0 4 12 vvcurveto
          endchar
        </CharString>
        <CharString name="ffi">
          465 21 -21 423 50 5 -20 231 53 -23 53 -14 callgsubr
          256 90 hintmask 10110111
          733 hmoveto
          5 callsubr
          -20 5 0 4 12 vvcurveto
          396 vlineto
          -11 10 rlineto
          hintmask 11001111
          -24 -78 -5 -115 -58 callsubr
          -201 -36 -189 -74 -8 hvcurveto
          -20 -1 -3 -16 -29 hhcurveto
          -216 hlineto
          hintmask 11010111
          114 23 102 67 12 24 -6 -5 5 vhcurveto
          7 -4 3 -7 -101 callsubr
          339 -9 callgsubr
          -321 vlineto
          -85 callgsubr
          -35 callsubr
          237 -64 callgsubr
          -67 12 rlineto
          -20 5 0 4 12 vvcurveto
          339 vlineto
          6 67 90 6 30 32 callsubr
          47 callsubr
        </CharString>
        <CharString name="ffl">
          458 21 -21 405 61 223 53 -20 50 -14 callgsubr
          249 90 hintmask 11011110
          863 763 rmoveto
          5 -32 -57 4 -34 hhcurveto
          -213 -58 -141 -131 -16 hvcurveto
          -20 -1 -5 -14 -26 hhcurveto
          -216 hlineto
          hintmask 11101110
          118 23 105 67 12 23 -5 -6 6 vhcurveto
          6 -6 4 -5 -101 callsubr
          332 -9 callgsubr
          -314 vlineto
          -85 callgsubr
          -35 callsubr
          237 -64 callgsubr
          -67 12 rlineto
          -20 5 0 4 -55 callgsubr
          hintmask 11011110
          -4 callsubr
          11 35 -1 -13 19 vhcurveto
          9 -6 7 -9 -16 vvcurveto
          -581 vlineto
          -85 callgsubr
          -35 callsubr
          5 callsubr
          -20 5 0 4 12 vvcurveto
          665 vlineto
          endchar
        </CharString>
        <CharString name="fi">
          129 21 9 callgsubr
          256 90 hintmask 10111100
          397 hmoveto
          16 callgsubr
          hintmask 11011100
          -24 -78 -5 -115 -58 callsubr
          -214 -27 -215 -62 -96 callgsubr
          339 vlineto
          6 67 90 6 30 32 callsubr
          47 callsubr
        </CharString>
        <CharString name="filledbox">
          469 21 -21 838 -20 hstem
          40 callsubr
          endchar
        </CharString>
        <CharString name="five">
          -49 -117 -21 369 63 162 81 73 -20 hstem
          74 65 211 104 vstem
          55 -138 rmoveto
          239 22 160 112 140 vvcurveto
          97 -77 61 -133 -32 -41 -4 -13 -38 vhcurveto
          -20 callsubr
          -55 -60 -103 -118 -71 -182 -24 hvcurveto
          endchar
        </CharString>
        <CharString name="five.dnom">
          -198 -6 -18 callsubr
          358 -84 callgsubr
        </CharString>
        <CharString name="five.fitted">
          -32 -9 52 320 63 162 81 hstem
          74 65 210 105 vstem
          145 -51 callsubr
        </CharString>
        <CharString name="five.inf">
          -198 -169 -18 callsubr
          195 -84 callgsubr
        </CharString>
        <CharString name="five.numr">
          -198 272 -18 callsubr
          636 -84 callgsubr
        </CharString>
        <CharString name="five.sup">
          -198 429 -18 callsubr
          793 -84 callgsubr
        </CharString>
        <CharString name="five.tab">
          -9 52 320 63 162 81 hstem
          87 65 210 105 vstem
          158 -51 callsubr
        </CharString>
        <CharString name="five.tabonum">
          -137 52 316 63 162 81 73 -20 hstem
          82 65 211 104 vstem
          40 -116 rmoveto
          -7 17 47 -14 71 hhcurveto
          156 131 98 150 113 -77 70 -133 -32 -41 -4 -13 -38 hvcurveto
          -20 callsubr
          -64 -76 -112 -74 -64 -90 -13 -33 1 7 -15 hvcurveto
          -10 5 -2 15 -8 88 -53 -3 rcurveline
          -12 -45 -8 -57 -42 vvcurveto
          endchar
        </CharString>
        <CharString name="fl">
          122 21 -21 722 50 hstem
          115 90 249 90 vstem
          527 763 rmoveto
          5 -32 -57 4 -34 hhcurveto
          -215 -61 -144 -133 -11 hvcurveto
          -1 -18 -2 -12 -19 -5 -49 -12 rcurveline
          4 -43 rlineto
          65 -309 hlineto
          -85 callgsubr
          -35 callsubr
          237 hlineto
          4 39 -65 12 rlineto
          -20 3 -2 6 -55 callgsubr
          -4 callsubr
          10 36 -1 -13 19 vhcurveto
          10 -6 6 -9 -16 vvcurveto
          -581 vlineto
          -85 callgsubr
          -35 callsubr
          5 callsubr
          -20 5 0 4 12 vvcurveto
          665 vlineto
          endchar
        </CharString>
        <CharString name="florin">
          -181 -219 53 885 53 hstem
          115 90 vstem
          390 638 rmoveto
          9 28 4 44 39 vvcurveto
          3 callsubr
          -318 hlineto
          -148 -15 -105 -56 -17 -12 5 5 -8 vhcurveto
          -7 4 -2 5 -15 67 -53 -5 rcurveline
          -9 -28 -4 -44 -39 vvcurveto
          -8 21 48 -15 45 hhcurveto
          157 17 219 119 hvcurveto
          285 vlineto
          110 15 8 47 rlineto
          -118 hlineto
          148 15 105 36 callgsubr
          rrcurveto
          endchar
        </CharString>
        <CharString name="four">
          3 -107 -21 172 62 441 -20 hstem
          332 90 vstem
          31 -46 callsubr
        </CharString>
        <CharString name="four.dnom">
          -176 0 1 callgsubr
          hmoveto
          -88 callsubr
        </CharString>
        <CharString name="four.fitted">
          3 0 232 -62 62 441 -20 hstemhm
          332 90 hintmask 10110000
          241 hmoveto
          254 -64 callgsubr
          -57 -8 callsubr
          4 -1 5 12 vvcurveto
          hintmask 01110000
          98 93 vlineto
          9 57 -102 2 rlineto
          434 vlineto
          -11 10 rlineto
          -20 -40 -7 -6 -26 hvcurveto
          -317 -428 23 -61 1 -1 rlineto
          300 -74 hlineto
          -31 -19 -14 -78 -12 vhcurveto
          hintmask 10110000
          -156 202 -50 callgsubr
        </CharString>
        <CharString name="four.inf">
          -176 -163 162 -53 53 259 -20 hstemhm
          211 73 hintmask 10110000
          152 -163 rmoveto
          -88 callsubr
        </CharString>
        <CharString name="four.numr">
          -176 278 1 callgsubr
          278 rmoveto
          -88 callsubr
        </CharString>
        <CharString name="four.sup">
          -176 435 1 callgsubr
          435 rmoveto
          -88 callsubr
        </CharString>
        <CharString name="four.tab">
          0 232 -62 62 441 -20 hstemhm
          332 90 hintmask 10110000
          241 hmoveto
          254 -64 callgsubr
          -57 -8 callsubr
          4 -1 5 12 vvcurveto
          hintmask 01110000
          98 93 vlineto
          9 57 -102 2 rlineto
          434 vlineto
          -11 10 rlineto
          -20 -40 -7 -6 -26 hvcurveto
          -317 -428 23 -61 1 -1 rlineto
          300 -74 hlineto
          -31 -19 -14 -78 -12 vhcurveto
          hintmask 10110000
          -156 202 -50 callgsubr
        </CharString>
        <CharString name="four.tabonum">
          -107 -21 172 62 441 -20 hstem
          329 90 vstem
          28 -46 callsubr
        </CharString>
        <CharString name="fraction">
          -486 6 callsubr
          211 693 rmoveto
          -32 callgsubr
          endchar
        </CharString>
        <CharString name="g">
          23 -219 50 331 49 228 49 2 -20 hstemhm
          55 77 -58 73 -73 92 192 92 -92 165 -106 68 hintmask 1101100010000000
          392 422 rmoveto
          3 20 17 0 19 hhcurveto
          26 25 -3 -5 21 hvcurveto
          2 6 1 8 9 vvcurveto
          18 -4 22 -6 10 vhcurveto
          -38 -1 -55 -15 -41 -21 rrcurveto
          -123 -291 rmoveto
          hintmask 1110001100000000
          105 89 52 115 108 -79 51 -103 -105 -89 -52 -115 -110 81 -49 101 hvcurveto
          9 49 rmoveto
          -68 -31 44 74 72 30 38 63 68 31 -44 -74 -72 -30 -38 -63 hvcurveto
          -191 -150 rmoveto
          -40 25 -26 32 -10 vhcurveto
          hintmask 1110100001000000
          -40 -29 -36 -31 -50 vvcurveto
          -80 95 -14 69 170 96 86 91 105 -125 1 -110 vhcurveto
          hintmask 1110010001000000
          -50 -53 0 41 23 16 32 23 24 hvcurveto
          -15 14 rlineto
          -41 -26 -56 -52 -59 vvcurveto
          86 -85 rmoveto
          130 -26 127 34 -60 vvcurveto
          -35 -42 -58 -118 vhcurveto
          hintmask 1110100100000000
          -93 -32 36 38 19 8 30 20 22 hvcurveto
          endchar
        </CharString>
        <CharString name="gbreve">
          23 27 0 103 198 endchar
        </CharString>
        <CharString name="gcaron">
          23 100 0 103 207 endchar
        </CharString>
        <CharString name="gcircumflex">
          23 110 0 103 195 endchar
        </CharString>
        <CharString name="germandbls">
          146 0 44 -32 -21 728 51 callsubr
          105 80 60 90 2 86 hintmask 10111110
          362 772 rmoveto
          -223 -18 -225 -52 -4 hvcurveto
          -1 -18 -2 -12 -19 -5 -49 -12 rcurveline
          4 -43 rlineto
          65 -309 hlineto
          -85 callgsubr
          -35 callsubr
          154 466 hlineto
          152 42 101 94 61 48 -48 -74 vhcurveto
          -106 -140 -32 -108 vvcurveto
          -73 48 -34 55 -27 vhcurveto
          60 -30 69 -20 -57 vvcurveto
          -20 -7 -18 -15 -12 vhcurveto
          -10 -11 -18 -6 -31 hhcurveto
          -37 -25 9 5 -12 hvcurveto
          -8 3 -2 2 -10 66 -48 -3 rcurveline
          -9 -21 0 -29 -29 vvcurveto
          -11 0 -11 2 -10 vhcurveto
          hintmask 01111110
          -9 19 58 -15 55 hhcurveto
          116 69 67 79 75 -61 33 -60 28 hvcurveto
          -59 28 -58 21 51 91 150 25 119 vvcurveto
          107 -88 57 -90 vhcurveto
          endchar
        </CharString>
        <CharString name="grave">
          -329 49 callsubr
          712 vmoveto
          13 callsubr
          endchar
        </CharString>
        <CharString name="grave.cap">
          -297 51 callgsubr
          8 842 -63 callsubr
        </CharString>
        <CharString name="greater">
          -14 17 -21 509 -20 hstem
          490 275 rmoveto
          -464 230 rlineto
          -69 vlineto
          386 -186 -386 -185 rlineto
          -69 vlineto
          464 229 rlineto
          endchar
        </CharString>
        <CharString name="greaterequal">
          -65 0 51 550 -20 hstem
          421 388 rmoveto
          -375 213 rlineto
          -69 vlineto
          319 -182 -319 -180 rlineto
          -69 vlineto
          375 212 rlineto
          -262 vmoveto
          -376 -51 376 hlineto
          endchar
        </CharString>
        <CharString name="guillemotleft">
          -71 83 -21 368 -20 hstem
          244 414 -18 callgsubr
          281 162 -18 callgsubr
          endchar
        </CharString>
        <CharString name="guillemotright">
          -71 83 -21 368 -20 hstem
          145 252 -19 callgsubr
          281 -162 -19 callgsubr
          endchar
        </CharString>
        <CharString name="guilsinglleft">
          -247 83 -21 368 -20 hstem
          244 414 -18 callgsubr
          endchar
        </CharString>
        <CharString name="guilsinglright">
          -247 83 -21 368 -20 hstem
          145 252 -19 callgsubr
          endchar
        </CharString>
        <CharString name="h">
          42 callsubr
          284 -20 hstem
          104 90 220 90 vstem
          40 hmoveto
          214 hlineto
          4 39 -44 -59 callsubr
          257 vlineto
          31 7 6 16 11 vhcurveto
          24 35 41 15 35 hhcurveto
          75 11 -52 -52 12 callgsubr
          -19 5 -1 4 12 vvcurveto
          270 vlineto
          91 -53 55 -89 -69 -54 -36 -38 -32 vhcurveto
          -12 -14 -30 callsubr
          281 -104 callsubr
          -581 vlineto
          -85 callgsubr
          endchar
        </CharString>
        <CharString name="hbar">
          42 callsubr
          97 53 134 -20 hstem
          104 90 220 90 vstem
          40 hmoveto
          214 hlineto
          4 39 -44 -59 callsubr
          257 vlineto
          31 7 6 16 11 vhcurveto
          24 35 41 15 35 hhcurveto
          75 11 -52 -52 12 callgsubr
          -19 5 -1 4 12 vvcurveto
          270 vlineto
          91 -53 55 -89 -69 -54 -36 -38 -32 vhcurveto
          -12 -14 -30 callsubr
          281 -104 callsubr
          -581 vlineto
          -85 callgsubr
          -11 546 rmoveto
          301 53 -301 hlineto
          endchar
        </CharString>
        <CharString name="hcircumflex">
          42 callsubr
          426 -20 hstem
          104 90 220 90 vstem
          40 hmoveto
          214 hlineto
          4 39 -44 -59 callsubr
          257 vlineto
          31 7 6 16 11 vhcurveto
          24 35 41 15 35 hhcurveto
          75 11 -52 -52 12 callgsubr
          -19 5 -1 4 12 vvcurveto
          270 vlineto
          91 -53 55 -89 -69 -54 -36 -38 -32 vhcurveto
          -12 -14 -30 callsubr
          260 -104 callsubr
          -560 vlineto
          -85 callgsubr
          229 710 -102 callsubr
        </CharString>
        <CharString name="hungarumlaut">
          -135 49 callsubr
          396 735 rmoveto
          -95 30 -107 -179 35 -25 167 151 rlineto
          -198 23 rmoveto
          -95 30 -107 -179 35 -25 167 151 rlineto
          endchar
        </CharString>
        <CharString name="hungarumlaut.cap">
          -266 772 -21 164 -20 hstem
          333 885 -63 callgsubr
        </CharString>
        <CharString name="hyphen">
          11 callgsubr
        </CharString>
        <CharString name="i">
          -221 0 0 245 199 endchar
        </CharString>
        <CharString name="iacute">
          4 callgsubr
          307 -20 hstem
          111 90 vstem
          288 735 -25 callgsubr
          -241 -712 rmoveto
          -77 callsubr
        </CharString>
        <CharString name="ibreve">
          -221 -96 0 245 198 endchar
        </CharString>
        <CharString name="icircumflex">
          4 callgsubr
          297 -20 hstem
          111 90 vstem
          176 10 callsubr
          -247 -586 rmoveto
          -77 callsubr
        </CharString>
        <CharString name="idieresis">
          4 callgsubr
          142 110 hstemhm
          -3 105 9 90 -11 105 hintmask 11110100
          242 600 rmoveto
          -97 callgsubr
          -2 -600 rmoveto
          5 callsubr
          hintmask 11111000
          -19 5 -1 4 12 vvcurveto
          396 vlineto
          hintmask 11110100
          -90 callsubr
          hintmask 11111000
          2 callsubr
          endchar
        </CharString>
        <CharString name="igrave">
          4 callgsubr
          307 -20 hstem
          111 90 vstem
          16 712 rmoveto
          13 callsubr
          31 -735 rmoveto
          -77 callsubr
        </CharString>
        <CharString name="ij">
          59 -219 79 161 -21 478 -20 139 115 hstemhm
          87 114 -90 90 56 243 -114 114 -90 90 hintmask 1111101000000000
          -7 callsubr
          hintmask 1111011000000000
          2 callsubr
          104 558 -23 callsubr
          hvcurveto
          hintmask 1111100010000000
          -22 callgsubr
          265 -529 -52 callsubr
          hintmask 1111101000000000
          -67 callsubr
          430 vlineto
          -90 callsubr
          hintmask 1111100010000000
          57 -11 19 -9 -29 vvcurveto
          34 214 -23 callsubr
          hvcurveto
          hintmask 1111100100000000
          -22 callgsubr
          endchar
        </CharString>
        <CharString name="imacron">
          -221 -11 0 245 197 endchar
        </CharString>
        <CharString name="infinity">
          228 128 58 213 52 hstem
          52 59 537 59 vstem
          535 128 rmoveto
          98 74 65 108 101 -77 49 -78 -76 -53 -49 -47 -32 hvcurveto
          66 -41 -61 30 -65 hhcurveto
          -98 -74 -66 -107 -101 77 -49 78 76 53 49 47 32 hvcurveto
          -66 41 61 -30 65 hhcurveto
          18 58 rmoveto
          -61 -37 59 65 -36 hvcurveto
          48 26 49 41 57 hhcurveto
          65 32 -50 -57 -62 -44 -44 -51 hvcurveto
          -346 207 rmoveto
          60 37 -60 -64 36 hvcurveto
          -41 -21 -41 -48 -62 hhcurveto
          -64 -41 49 60 59 44 45 52 hvcurveto
          endchar
        </CharString>
        <CharString name="integral">
          -149 -137 79 833 79 hstemhm
          8 233 -100 233 hintmask 11100000
          151 127 rmoveto
          -83 -9 -78 -16 -17 vhcurveto
          -5 -11 -9 -2 -19 hhcurveto
          -16 -19 3 7 -27 hvcurveto
          -12 -18 -5 -20 -20 vvcurveto
          -8 1 -8 2 -8 vhcurveto
          -4 23 18 -3 35 hhcurveto
          60 94 121 130 hvcurveto
          160 -10 157 157 vvcurveto
          83 10 79 15 18 vhcurveto
          5 9 13 2 17 hhcurveto
          15 20 -3 -7 27 hvcurveto
          hintmask 11010000
          12 18 5 20 20 vvcurveto
          8 -1 8 -2 8 vhcurveto
          4 -23 -18 3 -35 hhcurveto
          -60 -94 -121 -130 hvcurveto
          -160 10 -158 -158 vvcurveto
          endchar
        </CharString>
        <CharString name="iogonek">
          -221 31 callgsubr
          452 -20 139 115 hstemhm
          34 81 -28 114 -90 90 hintmask 11110100
          -7 callsubr
          hintmask 11110010
          2 callsubr
          104 558 -23 callsubr
          hvcurveto
          hintmask 11110100
          -22 callgsubr
          97 -766 rmoveto
          -30 callgsubr
          hintmask 11111000
          -48 callgsubr
        </CharString>
        <CharString name="itilde">
          4 callgsubr
          137 77 -35 35 -35 77 1 -20 hstemhm
          111 90 hintmask 11100110
          296 715 48 callgsubr
          hintmask 11001010
          18 callgsubr
          hintmask 11100110
          23 -17 rlineto
          hintmask 11010110
          30 24 23 12 25 hhcurveto
          hintmask 11100110
          17 callgsubr
          -274 -702 rmoveto
          -77 callsubr
        </CharString>
        <CharString name="j">
          38 callsubr
          139 115 hstemhm
          -53 243 -114 114 -90 90 hintmask 11100100
          100 16 callsubr
          hintmask 11110000
          -67 callsubr
          430 vlineto
          -90 callsubr
          hintmask 11100100
          57 -11 19 -9 -29 vvcurveto
          34 214 -23 callsubr
          hvcurveto
          hintmask 11101000
          -22 callgsubr
          endchar
        </CharString>
        <CharString name="jcircumflex">
          38 callsubr
          297 -20 hstemhm
          -53 243 -90 90 hintmask 11101000
          165 10 callsubr
          -183 -518 -52 callsubr
          hintmask 11110000
          -67 callsubr
          430 vlineto
          -90 callsubr
          hintmask 11101000
          57 -11 19 -9 -29 vvcurveto
          endchar
        </CharString>
        <CharString name="k">
          38 0 39 434 -20 319 -20 hstem
          104 90 vstem
          -71 callgsubr
          531 -104 callsubr
          -581 vlineto
          -85 callgsubr
          endchar
        </CharString>
        <CharString name="kcommaaccent">
          38 -189 -21 210 39 434 -20 319 -20 hstemhm
          104 90 80 97 -74 74 hintmask 11111100
          -71 callgsubr
          531 -104 callsubr
          -581 vlineto
          -85 callgsubr
          244 -249 -24 callsubr
          hintmask 11111010
          -11 callgsubr
        </CharString>
        <CharString name="kgreenlandic">
          38 0 39 434 -20 32 -20 hstemhm
          104 90 hintmask 11010000
          -71 callgsubr
          244 vlineto
          hintmask 10110000
          -90 callsubr
          57 -11 19 -9 -29 vvcurveto
          -294 vlineto
          -85 callgsubr
          endchar
        </CharString>
        <CharString name="l">
          -228 21 -21 772 -20 hstem
          104 90 vstem
          40 hmoveto
          -72 callsubr
          690 -104 callsubr
          -581 vlineto
          -85 callgsubr
          endchar
        </CharString>
        <CharString name="lacute">
          -229 21 -21 914 -20 hstem
          104 90 vstem
          40 hmoveto
          -72 callsubr
          637 -104 callsubr
          -528 vlineto
          -85 callgsubr
          227 824 -93 callsubr
        </CharString>
        <CharString name="lcaron">
          -228 21 -21 774 -20 hstemhm
          104 90 0 73 hintmask 11100000
          40 hmoveto
          -72 callsubr
          690 -104 callsubr
          -581 vlineto
          -85 callgsubr
          314 735 rmoveto
          -85 -22 rlineto
          hintmask 11010000
          -50 callsubr
        </CharString>
        <CharString name="ldot">
          -192 21 -21 334 115 323 -20 hstem
          104 90 61 115 vstem
          40 hmoveto
          -72 callsubr
          690 -104 callsubr
          -581 vlineto
          -85 callgsubr
          278 295 -16 callsubr
        </CharString>
        <CharString name="less">
          -14 17 -21 509 -20 hstem
          26 225 rmoveto
          464 -229 rlineto
          69 vlineto
          -386 185 386 186 rlineto
          69 vlineto
          -464 -230 rlineto
          endchar
        </CharString>
        <CharString name="lessequal">
          -65 0 51 550 -20 hstem
          45 313 rmoveto
          375 -212 rlineto
          69 vlineto
          -319 180 319 182 rlineto
          69 vlineto
          -375 -213 rlineto
          -388 vmoveto
          376 51 -376 hlineto
          endchar
        </CharString>
        <CharString name="logicalnot">
          -15 185 -21 171 53 hstem
          414 57 vstem
          471 164 rmoveto
          224 -426 -53 369 -171 vlineto
          endchar
        </CharString>
        <CharString name="longs">
          41 callgsubr
          423 749 rmoveto
          -41 callsubr
          -35 callsubr
          247 -64 callgsubr
          -75 -48 callsubr
          394 vlineto
          -56 callsubr
          endchar
        </CharString>
        <CharString name="lozenge">
          -37 -46 -21 839 -20 hstem
          202 772 rmoveto
          -180 -419 180 -420 rlineto
          86 hlineto
          192 420 -192 419 rlineto
          -44 -775 rmoveto
          -145 356 145 355 159 -355 rlineto
          endchar
        </CharString>
        <CharString name="lslash">
          -228 21 -21 772 -20 hstem
          104 90 vstem
          43 286 rmoveto
          260 170 -28 43 -260 -170 rlineto
          25 -329 rmoveto
          -72 callsubr
          690 -104 callsubr
          -581 vlineto
          -85 callgsubr
          endchar
        </CharString>
        <CharString name="m">
          328 45 callsubr
          193 90 193 90 cntrmask 00011100
          hintmask 11011100
          47 hmoveto
          214 hlineto
          4 39 -44 -59 callsubr
          259 vlineto
          31 6 6 14 9 vhcurveto
          21 32 35 18 31 hhcurveto
          60 15 -45 -48 hvcurveto
          -227 39 callgsubr
          -64 -13 vhcurveto
          -35 callsubr
          209 -64 callgsubr
          -44 -59 callsubr
          259 vlineto
          31 6 6 14 9 vhcurveto
          21 32 35 18 31 hhcurveto
          60 15 -45 -48 hvcurveto
          -227 22 callsubr
          -19 5 -1 4 12 vvcurveto
          270 vlineto
          91 -49 55 -81 -59 -52 -32 -41 -32 vhcurveto
          -11 -14 -7 1 rlineto
          56 -17 -44 30 -61 hhcurveto
          -60 -54 -35 -40 -31 hvcurveto
          -10 -13 -7 3 rlineto
          6 vlineto
          hintmask 10111100
          28 -12 49 -39 callgsubr
          endchar
        </CharString>
        <CharString name="macron">
          -153 642 60 hstem
          22 642 -37 callgsubr
        </CharString>
        <CharString name="minus">
          -65 244 53 hstem
          45 244 rmoveto
          6 callgsubr
          endchar
        </CharString>
        <CharString name="mu">
          46 -202 -21 214 72 420 -20 hstem
          92 90 206 90 vstem
          223 -9 rmoveto
          71 47 32 42 36 hvcurveto
          12 14 8 -3 rlineto
          -6 vlineto
          -25 12 -53 10 1 vhcurveto
          129 -38 callsubr
          378 -104 callsubr
          -240 vlineto
          -28 -5 -7 -16 -11 vhcurveto
          -27 -38 -36 -12 -32 hhcurveto
          -68 -11 53 51 hvcurveto
          306 -104 callsubr
          -594 vlineto
          15 -17 81 40 -34 180 7 6 rlineto
          -10 17 27 -2 18 hhcurveto
          endchar
        </CharString>
        <CharString name="multiply">
          96 -21 348 -20 hstem
          121 75 rmoveto
          139 139 138 -139 36 35 -139 140 139 137 -37 36 -138 -137 -137 137 -36 -35 138 -138 -139 -139 rlineto
          endchar
        </CharString>
        <CharString name="n">
          65 45 callsubr
          213 90 hintmask 11011000
          47 hmoveto
          -10 callsubr
          -16 4 -4 2 16 vvcurveto
          258 vlineto
          31 7 5 15 10 vhcurveto
          23 34 36 16 39 hhcurveto
          71 11 -53 -51 12 callgsubr
          -19 5 -1 4 12 vvcurveto
          270 vlineto
          92 -53 54 -85 -65 -53 -32 -42 -36 50 callgsubr
          vlineto
          hintmask 10111000
          26 -12 51 -39 callgsubr
          endchar
        </CharString>
        <CharString name="nacute">
          65 256 0 110 194 endchar
        </CharString>
        <CharString name="napostrophe">
          42 callsubr
          -2 -20 300 -20 hstemhm
          68 93 -66 66 -50 90 213 90 hintmask 11010011
          47 hmoveto
          -10 callsubr
          -16 4 -4 2 16 vvcurveto
          258 vlineto
          31 7 5 15 10 vhcurveto
          23 34 36 16 39 hhcurveto
          71 11 -53 -51 12 callgsubr
          -19 5 -1 4 12 vvcurveto
          270 vlineto
          92 -53 54 -85 -65 -53 -32 -42 -36 50 callgsubr
          vlineto
          hintmask 10110011
          26 -12 51 -39 callgsubr
          45 518 rmoveto
          hintmask 11011001
          26 callsubr
          hintmask 11010101
          36 callsubr
        </CharString>
        <CharString name="nbspace">
          -336 endchar
        </CharString>
        <CharString name="ncaron">
          65 139 0 110 207 endchar
        </CharString>
        <CharString name="nine">
          -15 -116 1 callsubr
          332 -91 callgsubr
        </CharString>
        <CharString name="nine.dnom">
          -187 -7 -24 callgsubr
          285 -87 callsubr
        </CharString>
        <CharString name="nine.fitted">
          -15 9 1 callsubr
          457 -91 callgsubr
        </CharString>
        <CharString name="nine.inf">
          -187 -170 -24 callgsubr
          122 -87 callsubr
        </CharString>
        <CharString name="nine.numr">
          -187 271 -24 callgsubr
          563 -87 callsubr
        </CharString>
        <CharString name="nine.sup">
          -187 428 -24 callgsubr
          720 -87 callsubr
        </CharString>
        <CharString name="nine.tab">
          9 -21 262 69 309 49 hstem
          41 95 246 94 vstem
          41 457 -91 callgsubr
        </CharString>
        <CharString name="nine.tabonum">
          -116 1 callsubr
          332 -91 callgsubr
        </CharString>
        <CharString name="notequal">
          -65 64 -21 130 53 84 53 130 -20 hstem
          322 493 rmoveto
          -221 -430 54 -20 222 430 rlineto
          -332 -300 rmoveto
          6 callgsubr
          84 vmoveto
          6 callgsubr
          endchar
        </CharString>
        <CharString name="ntilde">
          65 127 0 110 196 endchar
        </CharString>
        <CharString name="numbersign">
          20 21 -21 222 59 152 59 201 -20 hstem
          194 693 rmoveto
          -27 -201 rlineto
          -111 -59 104 hlineto
          -20 -152 rlineto
          -105 -59 97 47 callgsubr
          131 47 callgsubr
          113 59 -106 hlineto
          20 152 rlineto
          107 59 -100 hlineto
          27 201 rlineto
          -58 hlineto
          -27 -201 rlineto
          -132 hlineto
          27 201 rlineto
          -34 -260 rmoveto
          132 hlineto
          -20 -152 rlineto
          -132 hlineto
          endchar
        </CharString>
        <CharString name="o">
          -11 52 callsubr
          -70 callgsubr
          endchar
        </CharString>
        <CharString name="oacute">
          -11 191 0 111 194 endchar
        </CharString>
        <CharString name="obreve">
          -11 28 0 111 198 endchar
        </CharString>
        <CharString name="ocircumflex">
          -11 105 0 111 195 endchar
        </CharString>
        <CharString name="odieresis">
          -11 97 0 111 200 endchar
        </CharString>
        <CharString name="oe">
          304 -9 53 -53 19 callsubr
          hstemhm
          32 97 260 97 220 96 hintmask 10101110
          802 279 rmoveto
          123 -5 -49 86 -124 hhcurveto
          -82 -63 -38 -59 -38 hvcurveto
          62 -35 -53 35 -87 hhcurveto
          -150 -84 -103 -153 -149 80 -92 142 86 56 34 57 36 hvcurveto
          -55 32 54 -36 79 hhcurveto
          85 76 40 29 36 hvcurveto
          -21 33 rlineto
          hintmask 01011110
          -22 -43 -46 -12 -46 hhcurveto
          -92 -60 41 144 hvcurveto
          290 16 rlineto
          -287 30 rmoveto
          84 8 25 61 82 hhcurveto
          82 20 -61 -47 -10 -1 -8 -9 -1 hvcurveto
          -445 127 rmoveto
          94 44 -90 -113 -69 -16 -63 -22 -26 hvcurveto
          hintmask 10011110
          -23 -20 -35 -7 -27 hhcurveto
          -95 -45 90 113 69 17 63 23 26 hvcurveto
          23 20 35 7 27 hhcurveto
          endchar
        </CharString>
        <CharString name="ogonek">
          89 -215 56 239 -20 hstem
          242 81 vstem
          450 -169 rmoveto
          -12 20 rlineto
          -10 -28 -13 0 -19 hhcurveto
          -31 -24 21 35 67 48 44 70 50 hvcurveto
          -12 22 rlineto
          -131 -66 -56 -59 -69 vvcurveto
          -64 48 -37 50 24 45 9 37 41 vhcurveto
          endchar
        </CharString>
        <CharString name="ogonek.cap">
          89 31 callgsubr
          hstem
          242 81 vstem
          450 -169 rmoveto
          -12 20 rlineto
          -9 -26 -9 -1 -25 hhcurveto
          -48 callgsubr
        </CharString>
        <CharString name="ogonek.sc">
          89 -191 -21 245 -20 hstem
          269 67 vstem
          450 -171 -62 callsubr
        </CharString>
        <CharString name="ograve">
          -11 52 callsubr
          277 -20 -70 callgsubr
          -141 668 rmoveto
          13 callsubr
          endchar
        </CharString>
        <CharString name="ohungarumlaut">
          -11 94 0 111 205 endchar
        </CharString>
        <CharString name="omacron">
          -11 52 callsubr
          154 60 -70 callgsubr
          -128 598 -37 callgsubr
        </CharString>
        <CharString name="one">
          -177 21 -21 473 74 hstem
          142 90 vstem
          51 hmoveto
          274 -64 callgsubr
          -77 -59 callsubr
          465 vlineto
          -11 10 -46 -1 -99 -24 -38 -16 rlinecurve
          8 -38 rlineto
          2 19 29 3 19 hhcurveto
          25 4 -1 -69 hvcurveto
          -307 vlineto
          -31 -19 -14 -78 -12 vhcurveto
          endchar
        </CharString>
        <CharString name="one.dnom">
          -264 21 15 callgsubr
          hmoveto
          -70 callsubr
        </CharString>
        <CharString name="one.fitted">
          -117 21 -21 599 74 hstem
          172 90 vstem
          81 hmoveto
          274 -64 callgsubr
          -77 -59 callsubr
          591 vlineto
          -11 10 -52 -1 -109 -24 -42 -16 rlinecurve
          8 -38 rlineto
          2 25 37 3 25 hhcurveto
          25 4 -1 -69 hvcurveto
          -433 vlineto
          -31 -19 -14 -78 -12 vhcurveto
          endchar
        </CharString>
        <CharString name="one.inf">
          -264 -142 15 callgsubr
          -163 rmoveto
          -70 callsubr
        </CharString>
        <CharString name="one.numr">
          -264 299 15 callgsubr
          278 rmoveto
          -70 callsubr
        </CharString>
        <CharString name="one.tab">
          21 -21 599 74 hstem
          212 90 vstem
          91 hmoveto
          334 -64 callgsubr
          -107 -59 callsubr
          591 vlineto
          -11 10 -54 -1 -115 20 callsubr
          -433 vlineto
          -31 -25 -14 -102 -12 vhcurveto
          endchar
        </CharString>
        <CharString name="one.tabonum">
          21 -21 473 74 hstem
          225 90 vstem
          104 hmoveto
          334 -64 callgsubr
          -107 -8 callsubr
          2 -1 7 12 vvcurveto
          465 vlineto
          -11 10 -55 -1 -114 20 callsubr
          -307 vlineto
          -31 -25 -14 -102 -12 vhcurveto
          endchar
        </CharString>
        <CharString name="onehalf">
          369 0 44 336 41 272 -20 26 -20 hstemhm
          141 73 324 54 150 91 hintmask 11011110
          7 callsubr
          hintmask 11101110
          -36 -68 -16 -10 -29 hvcurveto
          5 -31 rlineto
          2 12 19 1 13 hhcurveto
          16 3 0 -43 hvcurveto
          -258 vlineto
          -19 -13 -8 -51 -8 vhcurveto
          534 384 rmoveto
          -32 callgsubr
          -138 -693 rmoveto
          -98 callsubr
        </CharString>
        <CharString name="onequarter">
          314 0 161 -52 52 532 -20 26 -20 hstemhm
          141 73 437 73 hintmask 10011100
          7 callsubr
          hintmask 10101100
          -36 -68 -16 -10 -29 hvcurveto
          5 -31 rlineto
          2 12 19 1 13 hhcurveto
          16 3 0 -43 hvcurveto
          -258 vlineto
          -19 -13 -8 -51 -8 vhcurveto
          534 384 rmoveto
          -32 callgsubr
          -84 -693 27 callsubr
          hintmask 01011100
          57 61 vlineto
          6 50 -67 1 rlineto
          255 vlineto
          -7 6 rlineto
          -18 -29 -4 -4 -23 hvcurveto
          -202 -258 15 -46 rlineto
          191 -43 hlineto
          -19 -12 -8 -51 -8 vhcurveto
          hintmask 10011100
          -84 136 rmoveto
          3 4 5 5 3 5 134 170 rcurveline
          4 -2 rlineto
          -2 -6 0 -6 -7 vvcurveto
          -170 vlineto
          -145 3 rlineto
          endchar
        </CharString>
        <CharString name="onesuperior">
          -264 456 15 callgsubr
          435 rmoveto
          -70 callsubr
        </CharString>
        <CharString name="ordfeminine">
          -153 227 53 58 57 115 38 109 45 hstem
          35 82 106 77 vstem
          117 586 rmoveto
          4 29 7 28 3 5 rrcurveto
          6 5 18 3 12 hhcurveto
          44 13 -38 -50 hvcurveto
          -21 vlineto
          -136 -2 -52 -38 -72 vvcurveto
          -65 45 -33 51 46 32 27 26 17 vhcurveto
          9 13 5 -2 rlineto
          -6 0 -4 -4 vvcurveto
          -23 14 -22 9 vhcurveto
          88 9 4 30 rlineto
          -53 10 -2 9 21 vvcurveto
          166 vlineto
          83 -35 31 -82 -42 -51 -9 -18 -29 vhcurveto
          -1 -11 0 -10 -8 vvcurveto
          -19 2 -20 5 -17 vhcurveto
          156 -147 rmoveto
          -9 -3 -7 -11 -10 vhcurveto
          -9 -11 -17 -13 -23 hhcurveto
          -24 -17 16 33 47 35 17 71 2 hvcurveto
          -194 -283 rmoveto
          330 53 -330 hlineto
          endchar
        </CharString>
        <CharString name="ordmasculine">
          -147 227 53 58 45 273 46 hstem
          25 81 171 82 vstem
          188 338 -44 callgsubr
        </CharString>
        <CharString name="oslash">
          -11 -45 -21 57 53 391 53 84 -20 hstem
          32 97 262 97 vstem
          254 -9 rmoveto
          150 84 102 153 96 -33 72 -62 40 hvcurveto
          51 98 -55 20 -49 -94 rlineto
          6 -22 -25 4 -27 hhcurveto
          -150 -84 -103 -153 -89 28 -68 53 -41 hvcurveto
          -41 -80 54 -20 37 72 rlineto
          -10 26 31 -5 34 hhcurveto
          -3 444 rmoveto
          23 20 -6 -9 17 hvcurveto
          -156 -303 rlineto
          -18 35 -8 45 50 vvcurveto
          69 17 63 23 26 vhcurveto
          23 20 35 7 27 hhcurveto
          140 -203 rmoveto
          -69 -17 -63 -23 -26 vhcurveto
          -23 -20 -35 -7 -27 hhcurveto
          -30 -24 8 16 -20 hvcurveto
          160 310 rlineto
          24 -37 12 -51 -58 vvcurveto
          endchar
        </CharString>
        <CharString name="otilde">
          -11 79 0 111 196 endchar
        </CharString>
        <CharString name="p">
          26 -189 -21 201 57 368 72 -2 -20 hstemhm
          96 90 238 97 hintmask 11101100
          96 -114 rmoveto
          -85 callgsubr
          -35 callsubr
          -33 callsubr
          10 vlineto
          hintmask 11011100
          26 -15 47 -9 -3 -88 -9 -4 -38 vhcurveto
          -6 -32 rlineto
          73 -14 3 -12 -31 vvcurveto
          90 -287 rmoveto
          239 vlineto
          19 5 12 22 15 vhcurveto
          hintmask 11101100
          -6 callgsubr
        </CharString>
        <CharString name="paragraph">
          66 -119 85 727 -20 hstemhm
          247 230 -211 82 47 82 hintmask 11011000
          348 34 rmoveto
          606 47 -482 vlineto
          -86 -2 -79 -29 -37 callsubr
          hintmask 11100000
          -49 callgsubr
          64 80 123 124 hvcurveto
          488 -36 callgsubr
          -288 hlineto
          -136 -66 -80 -110 hvcurveto
          hintmask 11011000
          -119 68 -102 133 33 callsubr
          endchar
        </CharString>
        <CharString name="paragraph.alt1">
          66 -119 85 312 53 309 53 hstemhm
          35 111 101 230 -211 82 47 82 hintmask 11110110
          348 34 rmoveto
          606 47 -482 vlineto
          -86 -2 -79 -29 -37 callsubr
          hintmask 11111000
          -49 callgsubr
          65 79 123 124 hvcurveto
          488 -36 callgsubr
          -348 hlineto
          -115 -57 -80 -110 hvcurveto
          hintmask 11110110
          -119 77 -102 154 33 callsubr
          -97 606 rmoveto
          9 6 -7 -8 hvcurveto
          -294 vlineto
          -53 -67 26 133 125 57 25 37 hvcurveto
          endchar
        </CharString>
        <CharString name="paragraph.alt2">
          66 6 callsubr
          266 82 47 82 vstem
          190 39 rmoveto
          -35 callsubr
          152 640 47 -640 -25 callsubr
          -177 vlineto
          -16 callgsubr
          endchar
        </CharString>
        <CharString name="paragraph.alt3">
          66 6 callsubr
          395 82 vstem
          559 654 rmoveto
          -45 callsubr
          -213 hlineto
          -218 -72 -164 -161 -175 84 -193 228 hvcurveto
          191 -64 callgsubr
          -62 -8 callsubr
          4 -1 10 12 vvcurveto
          539 vlineto
          -73 callgsubr
          -149 -2 rmoveto
          47 -587 -47 hlineto
          endchar
        </CharString>
        <CharString name="paragraph.alt4">
          66 -119 85 55 -21 callgsubr
          hstemhm
          120 228 -82 82 47 82 hintmask 11101100
          395 hmoveto
          -25 callsubr
          -120 -28 callsubr
          hintmask 11110100
          -49 callgsubr
          63 79 123 124 hvcurveto
          512 47 vlineto
          endchar
        </CharString>
        <CharString name="parenleft">
          -240 -168 -21 950 -20 hstem
          42 82 vstem
          245 -189 rmoveto
          34 28 rlineto
          -90 106 -65 180 174 vvcurveto
          156 65 174 90 104 vhcurveto
          -34 28 rlineto
          -84 -82 -119 -178 -202 vvcurveto
          -222 119 -182 84 -84 vhcurveto
          endchar
        </CharString>
        <CharString name="parenright">
          -240 -168 -21 950 -20 hstem
          167 82 vstem
          46 -189 rmoveto
          84 84 119 182 222 vvcurveto
          202 -119 178 -84 82 vhcurveto
          -34 -28 rlineto
          90 -104 65 -174 -156 vvcurveto
          -174 -65 -180 -90 -106 vhcurveto
          endchar
        </CharString>
        <CharString name="partialdiff">
          -25 -10 52 327 52 228 53 hstem
          21 97 252 110 vstem
          32 628 rmoveto
          21 -31 36 -21 17 -4 rrcurveto
          33 26 33 44 58 hhcurveto
          79 68 -80 -197 hvcurveto
          28 -36 -53 21 -50 hhcurveto
          -113 -97 -105 -131 -117 77 -78 115 183 84 197 170 182 -97 163 -178 -77 -57 -31 -43 -39 hvcurveto
          186 -586 rmoveto
          -64 -36 58 67 68 37 134 101 44 47 -26 -38 17 hvcurveto
          -64 -28 -199 -118 vhcurveto
          endchar
        </CharString>
        <CharString name="percent">
          277 7 callgsubr
          hintmask 1011011111000000
          611 -9 -81 callgsubr
          -20 329 rmoveto
          hintmask 0111011111000000
          -32 callgsubr
          -467 -407 rmoveto
          109 63 102 112 hvcurveto
          hintmask 1011101111000000
          106 -58 96 -104 -110 -62 -103 -112 -107 58 -94 104 vhcurveto
          -2 373 rmoveto
          56 36 -65 -115 -100 -27 -50 -52 -54 -37 55 118 97 26 60 52 hvcurveto
          endchar
        </CharString>
        <CharString name="period">
          -279 -9 122 hstem
          65 122 vstem
          125 -9 21 callsubr
          endchar
        </CharString>
        <CharString name="periodcentered">
          -291 193 130 hstem
          55 130 vstem
          119 193 -41 callgsubr
        </CharString>
        <CharString name="perthousand">
          656 7 callgsubr
          45 82 170 82 hintmask 0111011111110000
          589 693 rmoveto
          -32 callgsubr
          hintmask 1011101111110000
          336 -702 -81 callgsubr
          -377 -373 -81 callgsubr
          -422 -78 -81 callgsubr
          endchar
        </CharString>
        <CharString name="pi">
          65 -9 58 -28 -21 396 77 82 -20 hstemhm
          23 202 -67 67 117 74 hintmask 10111010
          498 52 rmoveto
          -2 -13 -31 -1 -7 hhcurveto
          -28 -3 19 53 74 5 123 8 79 hvcurveto
          104 hlineto
          7 24 9 63 37 vvcurveto
          10 0 11 -1 9 vhcurveto
          -46 4 -20 -70 -10 -5 -9 -3 rlinecurve
          -2 -7 -18 -2 -33 hhcurveto
          -376 hlineto
          -4 -25 -2 -60 -21 vvcurveto
          -14 1 -20 1 -16 vhcurveto
          46 -5 17 72 4 5 10 3 rlinecurve
          hintmask 01110110
          6 2 26 0 24 1 -11 -219 -18 -85 -17 -25 -11 -15 -20 -7 -23 -5 6 -39 rcurveline
          116 hlineto
          17 72 23 205 5 119 rrcurveto
          137 hlineto
          -18 -219 -2 -95 -20 vvcurveto
          hintmask 10111010
          -33 7 -38 51 26 40 10 12 37 vhcurveto
          endchar
        </CharString>
        <CharString name="plus">
          -65 94 -21 171 55 callgsubr
          244 12 callsubr
          endchar
        </CharString>
        <CharString name="plusminus">
          -65 -1 53 254 55 callgsubr
          306 12 callsubr
          -360 vmoveto
          6 callgsubr
          endchar
        </CharString>
</ttFont>
